<svg width="24" height="24" viewBox="0 0 24 24" fill="none" xmlns="http://www.w3.org/2000/svg">
<path d="M20.4012 12.229C20.4012 16.8666 16.6368 20.6279 12.0001 20.6279C7.3606 20.6279 3.59912 16.8666 3.59912 12.229C3.59912 7.58872 7.3606 3.82793 12.0001 3.82793C16.6368 3.82793 20.4012 7.58872 20.4012 12.229Z" fill="#E83E44"/>
<path fill-rule="evenodd" clip-rule="evenodd" d="M13.7591 5.10963C13.8363 5.13552 14.1023 5.25277 14.2655 5.81189C14.317 6.0457 14.078 5.97644 14.078 5.97644C13.5217 5.74389 12.9024 5.66889 12.2932 5.7576C11.4937 5.87766 10.8301 6.26384 10.4254 6.84731C10.022 7.42098 9.89044 8.16242 10.0493 8.93548C10.421 10.7205 11.9198 11.6306 13.8692 11.2559C14.6287 11.1065 15.2365 10.7848 15.6356 10.3228C15.647 10.3085 15.7085 10.2412 15.7671 10.2412C15.8473 10.2412 15.8974 10.2756 15.9287 10.39C16.0446 10.8612 16.0317 11.0106 16.0317 11.0106C16.0317 11.1959 15.9859 11.4598 15.7471 11.6672C15.2123 12.1285 14.5214 12.4538 13.6848 12.6354C12.2688 12.9329 10.9445 12.7285 9.94907 12.0577C9.09961 11.4841 8.55322 10.6074 8.36153 9.52469C8.17278 8.44632 8.41876 7.38012 9.05526 6.52563C9.66167 5.71311 10.5755 5.15832 11.6325 4.96369C12.336 4.84084 13.0613 4.8866 13.7591 5.10963ZM5.01491 11.4775C5.01491 11.4775 4.99924 11.2979 4.99924 11.2922C4.99057 11.1906 5.05927 11.1348 5.05927 11.1348C5.94888 10.2991 6.37354 9.52305 6.35073 8.7637C6.34933 8.6235 6.32219 8.44468 6.21067 8.39753C6.07607 8.3417 5.82729 8.47043 5.5627 8.72788L5.50827 8.78721L5.02065 9.30701C4.93768 9.41293 4.88899 9.54306 4.87331 9.65038C4.72598 11.0791 4.86044 12.6094 5.25516 14.0661C5.2795 14.129 5.28958 14.1519 5.32526 14.1705C5.36108 14.1876 5.39382 14.1735 5.39382 14.1735L5.97463 13.8887L5.9903 13.8816C6.44364 13.6737 7.17025 13.1629 6.95281 12.1032C6.84703 11.5977 6.64387 11.2894 6.345 11.1856C5.96315 11.0541 5.48826 11.2894 5.17512 11.5526C5.14224 11.5804 5.10502 11.5876 5.07214 11.5725C5.03492 11.5582 5.01212 11.5189 5.01491 11.4775ZM6.80701 10.0795C7.10882 10.0359 7.40755 10.0808 7.67228 10.2389C7.95254 10.404 8.31591 10.7531 8.47458 11.4839C8.54748 11.8157 8.52747 12.1933 8.50886 12.3878C8.48746 12.6381 8.44604 12.8583 8.38587 13.06C8.27002 13.4505 8.04405 13.7936 7.7365 14.0561C7.50691 14.2489 7.27141 14.3448 7.02085 14.4467L7.01437 14.4494L6.66248 14.6039L6.37354 14.7312L6.07607 14.8642L5.99897 14.9027L5.99689 14.9038C5.70847 15.0524 5.3832 15.22 5.04066 15.0803C4.71744 14.95 4.58298 14.598 4.54156 14.4522C4.18253 13.2044 4.07815 11.797 4.24115 10.3869C4.3384 9.55733 4.86478 8.76076 5.00344 8.59202L5.50394 8.03136C6.33772 7.17896 6.8627 7.12467 7.14884 7.23185C7.43484 7.33343 7.61939 7.63384 7.64793 8.03415C7.65507 8.09432 7.65661 8.15295 7.65661 8.21157C7.65661 8.85521 7.35746 9.49297 6.80701 10.0795Z" fill="white"/>
</svg>
