<svg width="24" height="24" viewBox="0 0 24 24" fill="none" xmlns="http://www.w3.org/2000/svg">
<path fill-rule="evenodd" clip-rule="evenodd" d="M13.4803 9.15063H14.7503C14.7868 9.15063 14.8172 9.18077 14.8172 9.21694V15.757C14.8172 15.8215 14.7639 15.8748 14.6991 15.8748H13.2751C12.3559 15.8748 11.9367 15.581 11.6586 14.9574L9.95372 10.7777C9.81659 10.4806 9.6201 10.3516 9.21898 10.3516H8.25158C8.21391 10.3516 8.18437 10.3212 8.18437 10.2853V9.21694C8.18437 9.18077 8.21391 9.15063 8.25158 9.15063H9.44742C10.3663 9.15063 10.8542 9.44417 11.1321 10.0686L12.8598 14.3013C12.9644 14.5545 13.1151 14.6738 13.4134 14.6738V9.21694C13.4134 9.18077 13.4433 9.15063 13.4803 9.15063ZM4.63193 14.7034H2.48467V13.1272H4.63193C5.21056 13.1272 5.60144 13.4792 5.60144 13.9153C5.60144 14.3508 5.21056 14.7034 4.63193 14.7034ZM6.11063 12.5125C6.62025 12.3012 7.04216 11.8262 7.04216 11.0376C7.04216 9.86312 6.03499 9.15068 4.82016 9.15068H1.0666C1.02984 9.15068 1 9.18082 1 9.21698V10.2853C1 10.3212 1.02984 10.3519 1.0666 10.3519H4.55948C5.12334 10.3519 5.50458 10.6958 5.50458 11.1195C5.50458 11.5445 5.12334 11.888 4.55948 11.888H2.48455V11.096C2.48455 11.0593 2.45441 11.03 2.41764 11.03H1.0666C1.02984 11.03 1 11.0593 1 11.096V15.8073C1 15.8444 1.02984 15.8748 1.0666 15.8748H4.76532C6.148 15.8748 7.1386 15.2296 7.1386 13.9153C7.1386 13.2689 6.75737 12.734 6.11063 12.5125ZM21.628 10.3517H22.1937C22.2296 10.3517 22.2594 10.321 22.2594 10.2851V9.21678C22.2594 9.18062 22.2296 9.15078 22.1937 9.15078H21.3984C20.4795 9.15078 19.9928 9.44401 19.7143 10.0688L17.9863 14.3012C17.882 14.5543 17.7307 14.674 17.433 14.674V9.21678C17.433 9.18062 17.4028 9.15078 17.3661 9.15078H16.0967C16.0596 9.15078 16.0298 9.18062 16.0298 9.21678V15.7571C16.0298 15.8213 16.0825 15.8746 16.1479 15.8746H17.5719C18.4908 15.8746 18.9097 15.5811 19.1881 14.9573L20.8933 10.7779C21.0301 10.4807 21.2278 10.3517 21.628 10.3517ZM20.7645 13.0133L22.9422 15.7968C22.9687 15.8317 22.9491 15.8748 22.9048 15.8748H21.3714C21.2575 15.8748 21.1809 15.8408 21.1143 15.7516L20.1623 14.4756C20.1566 14.468 20.1566 14.4581 20.1602 14.4497L20.7461 13.0163C20.7497 13.0064 20.7587 13.0046 20.7645 13.0133ZM9.52214 11.03H8.25186C8.21419 11.03 8.18496 11.0596 8.18496 11.0963V15.8076C8.18496 15.8447 8.21419 15.8749 8.25186 15.8749H9.52214C9.55921 15.8749 9.58965 15.8447 9.58965 15.8076V11.0963C9.58965 11.0596 9.55921 11.03 9.52214 11.03Z" fill="#D61920"/>
</svg>
