<svg width="24" height="24" viewBox="0 0 24 24" fill="none" xmlns="http://www.w3.org/2000/svg">
<path fill-rule="evenodd" clip-rule="evenodd" d="M0.999756 22.8492H22.8485V1H0.999756V22.8492Z" fill="url(#paint0_linear_8045_3942)"/>
<path fill-rule="evenodd" clip-rule="evenodd" d="M2.6848 1.38916C2.27334 1.40162 2.00565 1.75516 1.9408 2.24785C1.9408 2.24785 1.39526 5.11631 1.39526 11.2047C1.39526 17.297 1.9408 21.2815 1.9408 21.2815C1.99088 21.7631 2.28349 22.1409 2.70696 22.1409H21.6173C22.0396 22.1409 22.3756 21.8067 22.3844 21.2815C22.3844 21.2815 22.1737 16.6151 22.1737 12.0562C22.1737 7.49439 22.3844 2.24785 22.3844 2.24785C22.3846 2.2407 22.3846 2.23378 22.3846 2.22685V2.22616C22.3835 1.77708 22.0452 1.40185 21.6388 1.38916H2.6848Z" fill="url(#paint1_linear_8045_3942)"/>
<path fill-rule="evenodd" clip-rule="evenodd" d="M17.9662 6.90386C16.6148 7.69517 16.2029 7.75771 14.7359 8.64017L14.8081 8.4754C15.5782 7.6361 15.9112 7.28371 16.4182 6.54063C15.0648 6.61471 13.0995 6.77671 11.6951 7.08525L11.7685 6.93571C13.0432 6.31563 15.4086 5.69948 16.6148 5.54048C16.3204 5.12556 13.9248 3.83094 13.3275 3.58079L13.3975 3.42871C15.2138 3.63317 17.6208 4.48286 18.6703 5.12556C19.1131 4.98686 19.5673 4.97279 20.3891 4.90263C20.3891 4.90263 20.2668 5.39763 19.3711 6.01263C19.5929 6.60733 19.0598 9.90363 18.6186 10.7776C18.5983 9.39733 18.4774 7.65848 17.9662 6.90386Z" fill="#009A7B"/>
<path fill-rule="evenodd" clip-rule="evenodd" d="M8.09513 18.7158L8.1639 18.5589C7.44598 18.2836 6.72782 18.0621 6.14813 17.5186C6.32998 17.0082 6.53952 16.6101 6.88059 16.107L6.95213 15.9515C6.33575 16.0449 5.77728 16.2718 5.24213 16.3761C4.82259 15.6372 4.65967 14.6271 4.44852 13.6643L4.37859 13.8148C4.25905 14.9165 4.21175 15.7013 4.36752 16.5766C3.92305 16.7015 3.53467 16.7185 3.17721 16.8729L3.10913 17.0211C3.67752 17.3705 4.14228 17.6388 4.78682 17.9428C5.13067 18.6794 5.48698 19.1811 6.06459 19.7504L6.13452 19.5948C6.03159 19.179 5.89728 18.8305 5.94805 18.3706C6.66298 18.5776 7.27775 18.6877 8.09513 18.7158Z" fill="#009A7B"/>
<path fill-rule="evenodd" clip-rule="evenodd" d="M10.087 7.74316C10.087 7.74316 9.79805 8.25316 9.56682 8.93255H9.5112C11.1947 9.16009 12.7837 9.84132 13.1816 10.0767L13.111 10.2283C11.3657 9.91978 10.4456 9.95532 9.79551 10.0125C9.14589 10.0767 9.0132 10.1565 9.0132 10.1565C8.63982 10.976 8.41989 12.3131 8.33082 12.8065L8.26043 12.9595C7.94082 12.1905 7.48089 10.6592 7.48089 10.6592C6.6012 11.1304 4.57251 13.0345 4.57251 13.0345C5.69013 10.8041 6.82159 9.78755 6.82159 9.78755C6.43066 9.39432 5.41182 9.19516 4.66551 9.16401L4.73613 9.0117C5.20251 8.87532 6.16597 8.81739 6.81051 8.78739C7.57482 8.76386 8.03566 8.80816 8.03566 8.80816C8.71597 8.26655 9.73043 7.79209 10.087 7.74316Z" fill="#009A7B"/>
<path fill-rule="evenodd" clip-rule="evenodd" d="M12.2275 17.329C11.874 17.8044 11.5737 18.1849 11.1851 18.6222C10.6093 18.781 9.9198 18.7101 9.38857 18.727L9.31934 18.8777C9.71903 19.0851 10.1104 19.2088 10.5293 19.2954C10.1896 19.6041 9.73587 19.8393 9.4188 20.0558L9.34818 20.2058C10.031 20.0417 10.9292 19.7546 11.5977 19.3607C11.9462 19.3745 12.273 19.3498 12.51 19.3032C12.51 19.3032 12.581 19.1486 12.581 19.1523C12.5388 19 12.4024 18.9044 12.362 18.6878C12.9886 18.2013 13.443 17.7582 13.9689 17.2291L14.0406 17.0784C13.5223 17.4368 12.8937 17.9262 12.2877 18.2117C12.2621 17.9174 12.2434 17.662 12.2275 17.329Z" fill="#009A7B"/>
<path fill-rule="evenodd" clip-rule="evenodd" d="M18.0358 6.75042C16.6872 7.54426 16.2734 7.60957 14.8087 8.48719C15.6626 7.5618 15.9584 7.16534 16.4878 6.3918C15.1359 6.46242 13.1709 6.62534 11.7686 6.93572C12.9896 6.2838 15.4108 5.55803 16.6872 5.38634C16.3911 4.97765 13.9934 3.67842 13.3971 3.42896C15.2963 3.5778 17.6162 4.28534 18.7406 4.97326C19.1839 4.83549 19.6438 4.82834 20.4681 4.75542C20.2569 5.11588 20.2479 5.32426 19.4407 5.85919C19.6636 6.4578 19.1299 9.7518 18.6882 10.6232C18.6718 9.24595 18.5513 7.50572 18.0358 6.75042Z" fill="white"/>
<path fill-rule="evenodd" clip-rule="evenodd" d="M8.16367 18.5589C7.38736 18.2746 6.83028 17.94 6.21598 17.3647C6.40036 16.8588 6.60805 16.4624 6.95144 15.9519C6.32236 16.0456 5.85759 16.1188 5.31574 16.2224C4.87313 15.4475 4.67305 14.7032 4.44805 13.6643C4.32759 14.7655 4.28144 15.5518 4.43698 16.4259C3.93828 16.5642 3.58613 16.6844 3.17651 16.8727C3.75067 17.2212 4.21474 17.4928 4.85536 17.7914C5.1999 18.5294 5.55736 19.0267 6.13405 19.5946C5.99951 19.1118 5.96421 18.7274 6.01867 18.2155C6.73544 18.4276 7.34882 18.5391 8.16367 18.5589Z" fill="white"/>
<path fill-rule="evenodd" clip-rule="evenodd" d="M10.1812 7.61035C9.94029 7.9242 9.65968 8.50874 9.58398 8.78012C11.5792 9.04989 13.1817 10.0764 13.1817 10.0764C11.4361 9.76712 10.5161 9.80658 9.86414 9.86381C9.21683 9.92404 9.08506 10.0014 9.08506 10.0014C8.6136 11.0334 8.33137 12.8061 8.33137 12.8061C8.01244 12.039 7.55437 10.5063 7.55437 10.5063C6.67352 10.9777 4.64575 12.8811 4.64575 12.8811C5.75968 10.6505 6.89068 9.63604 6.89068 9.63604C6.50229 9.24212 5.48114 9.04551 4.73598 9.01135C5.12183 8.85397 6.11644 8.66981 6.88029 8.63474C7.64529 8.61143 8.10637 8.65458 8.10637 8.65458C8.78829 8.11643 9.82375 7.66274 10.1812 7.61035Z" fill="white"/>
<path fill-rule="evenodd" clip-rule="evenodd" d="M12.2982 17.1806C11.9468 17.6565 11.6435 18.0322 11.2519 18.4676C10.5795 18.6575 10.0429 18.7272 9.38892 18.7272C9.79069 18.9329 10.1811 19.0568 10.5993 19.1449C10.1811 19.5273 9.82645 19.7945 9.41892 20.056C10.1018 19.8933 10.9978 19.6042 11.6666 19.2082C12.0158 19.2211 12.3437 19.2005 12.5816 19.1528C12.5193 18.9495 12.481 18.8009 12.4307 18.5392C13.0593 18.0481 13.5174 17.6105 14.0408 17.0789C13.4837 17.4668 13.0023 17.7571 12.3594 18.0612C12.3289 17.7647 12.3141 17.5162 12.2982 17.1806Z" fill="white"/>
<defs>
<linearGradient id="paint0_linear_8045_3942" x1="0.999756" y1="1" x2="0.999756" y2="22.8492" gradientUnits="userSpaceOnUse">
<stop stop-color="#049C7D"/>
<stop offset="0.351536" stop-color="#61BAA8"/>
<stop offset="0.668127" stop-color="#61BAA8"/>
<stop offset="1" stop-color="#00A184"/>
</linearGradient>
<linearGradient id="paint1_linear_8045_3942" x1="1.4127" y1="1.42365" x2="1.4127" y2="22.1409" gradientUnits="userSpaceOnUse">
<stop offset="0.000554265" stop-color="#6ADBC4"/>
<stop offset="0.821791" stop-color="#026D58"/>
<stop offset="1" stop-color="#00A184"/>
</linearGradient>
</defs>
</svg>
