<svg width="24" height="24" viewBox="0 0 24 24" fill="none" xmlns="http://www.w3.org/2000/svg">
<path fill-rule="evenodd" clip-rule="evenodd" d="M14.8847 7.90183C14.9642 7.87912 15.0458 7.8564 15.1286 7.83331C15.5081 7.72757 15.9151 7.61416 16.2797 7.45795C15.0115 6.88752 13.3633 6.31685 11.9048 6C11.6515 6.06327 10.954 6.25358 10.5102 6.38037C10.6466 6.43148 10.8655 6.49634 11.1559 6.58237L11.1559 6.58237C11.9453 6.81626 13.2625 7.20654 14.8847 7.90183ZM9.11512 6.88755C10.6368 7.26792 12.7922 8.09217 13.4262 8.40902C13.2025 8.50496 12.9305 8.61699 12.6589 8.72885C12.3917 8.83886 12.1249 8.94872 11.905 9.04296C10.1932 8.15544 8.16433 7.58476 7.59365 7.45797C8.03729 7.33119 8.67148 7.07761 9.11512 6.88755ZM22.9363 11.0082C20.2102 12.086 15.3919 14.9389 11.9049 17.9188C11.5402 17.5946 11.1496 17.2963 10.7496 16.9907L10.7495 16.9907C10.5238 16.8183 10.2951 16.6436 10.0663 16.4606C13.6802 13.6075 17.7377 11.0717 21.1612 9.93062C21.8587 10.3743 22.4926 10.7546 22.9363 11.0082ZM7.39852 14.5357C7.18153 14.386 6.97054 14.2404 6.76953 14.1148C11.461 10.4377 15.4549 8.78946 17.8642 8.15552C18.0863 8.26653 18.2851 8.36977 18.4741 8.46797C18.8247 8.65005 19.1419 8.81479 19.5124 8.97952C15.582 10.2477 12.0316 12.4031 8.41779 15.1927C8.07345 15.0014 7.72901 14.7638 7.39852 14.5357Z" fill="#E31837"/>
<path fill-rule="evenodd" clip-rule="evenodd" d="M1 11.0719C2.1411 10.3109 4.16972 9.10627 6.07181 8.21875C6.2496 8.2899 6.4874 8.36104 6.76271 8.44341C6.97802 8.50783 7.21629 8.57912 7.46674 8.66264C6.70575 8.97948 4.80392 9.9938 2.33116 11.6423C2.08063 11.5309 1.86676 11.444 1.67345 11.3655C1.42662 11.2651 1.21331 11.1785 1 11.0719ZM8.79798 9.16978C9.24161 9.36008 9.81229 9.61366 10.3194 9.86724C8.48088 10.8183 6.83262 11.9594 5.12085 13.164C4.76261 12.9847 4.40437 12.774 4.06834 12.5763C3.92866 12.4941 3.79281 12.4142 3.6624 12.3397C5.81831 10.8183 7.46657 9.80397 8.79798 9.16978Z" fill="#012169"/>
</svg>
