<svg width="24" height="24" viewBox="0 0 24 24" fill="none" xmlns="http://www.w3.org/2000/svg">
<path fill-rule="evenodd" clip-rule="evenodd" d="M5.0824 17.9435C5.1313 18.5909 5.4037 18.9686 6.1615 18.9536C11.4448 18.8681 12.8317 12.4625 9.5674 9.44901C9.0436 8.96751 8.4082 8.57031 7.6414 8.30181C7.2559 8.16531 6.6208 7.96851 6.0793 7.96851C5.614 7.96851 5.218 8.11581 5.1151 8.57961C4.924 9.46521 5.0131 17.0651 5.0824 17.9435Z" fill="url(#paint0_linear_8045_4075)"/>
<path fill-rule="evenodd" clip-rule="evenodd" d="M12.4536 2C12.0285 2 11.6709 2.1368 11.5758 2.5574C11.4015 3.3584 11.4855 10.2599 11.5455 11.06C11.5914 11.6444 11.8368 11.9867 12.5247 11.9771C17.3229 11.8964 18.5853 6.0809 15.621 3.3455C15.1461 2.9081 14.5635 2.5478 13.8735 2.3048C13.5213 2.1791 12.9462 2 12.4536 2Z" fill="url(#paint1_linear_8045_4075)"/>
<path fill-rule="evenodd" clip-rule="evenodd" d="M12.6572 8.76877C12.434 9.77767 12.5417 18.4462 12.6185 19.4521C12.6776 20.1916 12.983 20.6167 13.8461 20.6041C19.8785 20.5075 21.464 13.198 17.7395 9.75937C17.1443 9.21067 16.4102 8.75707 15.5429 8.45197C15.1007 8.29447 14.3753 8.07007 13.7603 8.07007C13.2269 8.07007 12.7727 8.23897 12.6572 8.76877Z" fill="url(#paint2_linear_8045_4075)"/>
<defs>
<linearGradient id="paint0_linear_8045_4075" x1="5" y1="18.954" x2="11.3197" y2="18.954" gradientUnits="userSpaceOnUse">
<stop stop-color="#CB292B"/>
<stop offset="1" stop-color="#F47920"/>
</linearGradient>
<linearGradient id="paint1_linear_8045_4075" x1="11.4702" y1="12.0653" x2="17.322" y2="12.0837" gradientUnits="userSpaceOnUse">
<stop stop-color="#1CB0E6"/>
<stop offset="1" stop-color="#0462B0"/>
</linearGradient>
<linearGradient id="paint2_linear_8045_4075" x1="11.8878" y1="21.827" x2="20.5298" y2="21.8543" gradientUnits="userSpaceOnUse">
<stop stop-color="#8BC53F"/>
<stop offset="1" stop-color="#009B56"/>
</linearGradient>
</defs>
</svg>
