<svg width="24" height="24" viewBox="0 0 24 24" fill="none" xmlns="http://www.w3.org/2000/svg">
<path fill-rule="evenodd" clip-rule="evenodd" d="M6.32992 1.33028C5.73829 1.6257 5.29754 2.13396 5.08925 2.76142L1.12826 14.6658C0.918378 15.2913 0.967482 15.9645 1.26527 16.5587C1.56128 17.1461 2.06995 17.5881 2.69523 17.7971L15.685 22.1583C16.3149 22.3674 16.9873 22.3197 17.5781 22.0231C18.1695 21.7243 18.6113 21.2188 18.817 20.5895L22.7798 8.68875C23.2136 7.39245 22.5081 5.98585 21.2118 5.55402L8.22319 1.19406C7.59217 0.985957 6.92411 1.0313 6.32992 1.33028Z" fill="#FEFEFE"/>
<path fill-rule="evenodd" clip-rule="evenodd" d="M6.57353 15.146H7.46869V8.96206H6.57353V15.146ZM12.6794 12.763C11.974 13.5502 11.0942 14.1854 10.0745 14.5792L9.48827 14.8063V9.29082L10.0674 9.51516C11.0885 9.90502 11.9704 10.5404 12.6794 11.3239C13.1841 10.5117 13.4976 9.56941 13.5619 8.54456C13.7223 5.90047 12.0662 3.47418 9.79141 2.62971L7.91476 2.00522C7.06792 1.72307 6.16642 2.19015 5.88705 3.03462L1.91477 14.9457C1.63262 15.7935 2.10782 16.7133 2.95566 16.992L11.9704 20.0018C12.8895 19.0245 13.4857 17.7296 13.5728 16.2852C13.6524 14.9964 13.3164 13.7813 12.6794 12.763Z" fill="#198FCA"/>
<path fill-rule="evenodd" clip-rule="evenodd" d="M12.1592 12.0437C11.6559 11.4537 11.0475 10.9579 10.345 10.5947V13.5014C11.0475 13.1374 11.6593 12.6357 12.1592 12.0437Z" fill="#E95705"/>
<path fill-rule="evenodd" clip-rule="evenodd" d="M18.7318 15.1264L17.6143 15.1296L15.3153 12.037L17.6505 8.94544L18.7777 8.94109L16.4372 12.0416L18.7318 15.1264ZM20.9235 6.34866L12.6506 3.58398C13.7618 4.8003 14.4417 6.41637 14.4449 8.1863C14.4467 9.58536 14.0105 10.9236 13.2514 12.0437C14.0133 13.1605 14.452 14.4977 14.4558 15.8968C14.4564 17.5679 13.8559 19.1076 12.856 20.2997L15.9628 21.3367C16.8124 21.6192 17.7093 21.1521 17.9919 20.3051L21.9661 8.39519C22.2475 7.54874 21.7719 6.62982 20.9235 6.34866Z" fill="#015198"/>
</svg>
