<svg width="24" height="24" viewBox="0 0 24 24" fill="none" xmlns="http://www.w3.org/2000/svg">
<path d="M20.4001 15.959C20.4001 17.3967 19.2294 18.5673 17.7918 18.5673H3.6001V8.23674C3.6001 6.79908 4.77076 5.62842 6.20841 5.62842H20.4001V15.959Z" fill="white"/>
<path d="M15.7791 13.3098H16.8573C16.8881 13.3098 16.96 13.2995 16.9908 13.2995C17.1962 13.2585 17.3707 13.0736 17.3707 12.8169C17.3707 12.5704 17.1962 12.3856 16.9908 12.3342C16.96 12.324 16.8984 12.324 16.8573 12.324H15.7791V13.3098Z" fill="url(#paint0_linear_8045_4301)"/>
<path d="M16.734 6.50146C15.7071 6.50146 14.865 7.33325 14.865 8.37042V10.3113H17.5041C17.5657 10.3113 17.6376 10.3113 17.689 10.3215C18.2846 10.3523 18.7261 10.6604 18.7261 11.1944C18.7261 11.6154 18.4283 11.9748 17.8738 12.0467V12.0673C18.4797 12.1083 18.9418 12.4472 18.9418 12.9709C18.9418 13.5357 18.4283 13.9054 17.7506 13.9054H14.8547V17.7049H17.5965C18.6234 17.7049 19.4655 16.8731 19.4655 15.836V6.50146H16.734Z" fill="url(#paint1_linear_8045_4301)"/>
<path d="M17.2372 11.3176C17.2372 11.0711 17.0627 10.9068 16.8573 10.876C16.8368 10.876 16.7854 10.8657 16.7546 10.8657H15.7791V11.7694H16.7546C16.7854 11.7694 16.847 11.7694 16.8573 11.7591C17.0627 11.7283 17.2372 11.564 17.2372 11.3176Z" fill="url(#paint2_linear_8045_4301)"/>
<path d="M6.40363 6.50146C5.37674 6.50146 4.53468 7.33325 4.53468 8.37042V12.9812C5.0584 13.2379 5.60265 13.4022 6.14691 13.4022C6.79385 13.4022 7.143 13.012 7.143 12.478V10.301H8.74495V12.4677C8.74495 13.3098 8.22124 13.9978 6.44471 13.9978C5.36647 13.9978 4.52441 13.7616 4.52441 13.7616V17.6947H7.26622C8.29312 17.6947 9.13517 16.8629 9.13517 15.8257V6.50146H6.40363Z" fill="url(#paint3_linear_8045_4301)"/>
<path d="M11.5687 6.50146C10.5418 6.50146 9.69971 7.33325 9.69971 8.37042V10.8144C10.1721 10.4139 10.9936 10.1572 12.3183 10.2188C13.0268 10.2496 13.7867 10.4448 13.7867 10.4448V11.2355C13.4068 11.0404 12.955 10.8658 12.3696 10.8247C11.3633 10.7528 10.7574 11.2457 10.7574 12.1083C10.7574 12.9812 11.3633 13.4741 12.3696 13.3919C12.955 13.3509 13.4068 13.166 13.7867 12.9812V13.7719C13.7867 13.7719 13.0371 13.967 12.3183 13.9978C10.9936 14.0594 10.1721 13.8027 9.69971 13.4022V17.7152H12.4415C13.4684 17.7152 14.3105 16.8834 14.3105 15.8462V6.50146H11.5687Z" fill="url(#paint4_linear_8045_4301)"/>
<defs>
<linearGradient id="paint0_linear_8045_4301" x1="14.8634" y1="12.8181" x2="19.478" y2="12.8181" gradientUnits="userSpaceOnUse">
<stop stop-color="#007940"/>
<stop offset="0.2285" stop-color="#00873F"/>
<stop offset="0.7433" stop-color="#40A737"/>
<stop offset="1" stop-color="#5CB531"/>
</linearGradient>
<linearGradient id="paint1_linear_8045_4301" x1="14.8632" y1="12.0987" x2="19.4781" y2="12.0987" gradientUnits="userSpaceOnUse">
<stop stop-color="#007940"/>
<stop offset="0.2285" stop-color="#00873F"/>
<stop offset="0.7433" stop-color="#40A737"/>
<stop offset="1" stop-color="#5CB531"/>
</linearGradient>
<linearGradient id="paint2_linear_8045_4301" x1="14.8633" y1="11.3163" x2="19.4781" y2="11.3163" gradientUnits="userSpaceOnUse">
<stop stop-color="#007940"/>
<stop offset="0.2285" stop-color="#00873F"/>
<stop offset="0.7433" stop-color="#40A737"/>
<stop offset="1" stop-color="#5CB531"/>
</linearGradient>
<linearGradient id="paint3_linear_8045_4301" x1="4.53251" y1="12.0987" x2="9.21854" y2="12.0987" gradientUnits="userSpaceOnUse">
<stop stop-color="#1F286F"/>
<stop offset="0.4751" stop-color="#004E94"/>
<stop offset="0.8261" stop-color="#0066B1"/>
<stop offset="1" stop-color="#006FBC"/>
</linearGradient>
<linearGradient id="paint4_linear_8045_4301" x1="9.67316" y1="12.0987" x2="14.2244" y2="12.0987" gradientUnits="userSpaceOnUse">
<stop stop-color="#6C2C2F"/>
<stop offset="0.1735" stop-color="#882730"/>
<stop offset="0.5731" stop-color="#BE1833"/>
<stop offset="0.8585" stop-color="#DC0436"/>
<stop offset="1" stop-color="#E60039"/>
</linearGradient>
</defs>
</svg>
