<svg width="24" height="24" viewBox="0 0 24 24" fill="none" xmlns="http://www.w3.org/2000/svg">
<path fill-rule="evenodd" clip-rule="evenodd" d="M22.0203 19.1615C22.0203 20.7395 20.7417 22.0188 19.1637 22.0188H4.87722C3.29972 22.0188 2.02026 20.7395 2.02026 19.1615V4.87565C2.02026 3.29769 3.29972 2.0188 4.87722 2.0188H19.1637C20.7417 2.0188 22.0203 3.29769 22.0203 4.87565V19.1615Z" fill="#FFE400"/>
<path fill-rule="evenodd" clip-rule="evenodd" d="M12.2423 14.5541H11.3079V9.40519H12.2318C12.2318 9.40519 12.228 9.40288 12.2317 9.40283C12.2317 9.40362 12.2318 9.4044 12.2318 9.40519H12.2423V14.5541ZM16.2214 14.1662C16.1134 13.3853 15.753 12.7268 15.1506 12.2083C15.0616 12.1317 14.9684 12.06 14.8636 11.9748C14.9502 11.9097 15.0231 11.8595 15.0908 11.8031C15.5208 11.4451 15.8375 11.0072 16.0445 10.4853C16.2412 9.9893 16.2906 9.47477 16.2202 8.95662C16.1339 8.3211 15.8656 7.75849 15.427 7.28222C15.111 6.93905 14.7425 6.66817 14.3106 6.49205C13.8945 6.32243 13.4677 6.24561 13.0079 6.24561L8.00827 6.24652C7.97368 6.24652 7.93878 6.24482 7.90454 6.2487C7.78199 6.26258 7.70988 6.34045 7.70438 6.46343C7.7028 6.49794 7.7042 6.53258 7.7042 6.56713C7.7042 10.1632 7.70416 13.7593 7.7042 17.3554C7.7042 17.4097 7.70119 17.4643 7.70525 17.5184C7.71232 17.6132 7.77727 17.6834 7.87117 17.6989C7.90498 17.7045 7.94018 17.7027 7.97477 17.7027L13.1524 17.7028C13.6841 17.7032 14.1809 17.5693 14.6391 17.3062C15.2957 16.9291 15.7647 16.3885 16.0443 15.6799C16.2384 15.188 16.2924 14.6788 16.2214 14.1662Z" fill="#1E1719"/>
</svg>
