<svg width="24" height="26" viewBox="0 0 24 26" fill="none" xmlns="http://www.w3.org/2000/svg">
<path fill-rule="evenodd" clip-rule="evenodd" d="M8.22909 14.9776C7.72063 14.9776 7.30706 14.5427 7.30706 14.0081C7.30706 13.4733 7.72063 13.0384 8.22909 13.0384C8.73756 13.0384 9.15113 13.4733 9.15113 14.0081C9.15113 14.5427 8.73756 14.9776 8.22909 14.9776ZM8.38368 12.1045C8.02022 12.1045 7.68385 12.24 7.43659 12.486L7.35148 12.5705V10.6548H6.38315V13.9287C6.38315 15.1503 7.07757 15.9092 8.19542 15.9092C9.28849 15.9092 10.0818 15.1107 10.0818 14.0104C10.0818 12.906 9.36756 12.1045 8.38368 12.1045ZM4.83695 10.6548L2.95946 12.9804V10.6548H1.99951V15.7633H2.95946V13.4581L4.87508 15.7633H6.1091L3.98966 13.209L6.05173 10.6548H4.83695ZM20.9204 12.217H21.9995L20.5641 13.9901L21.9995 15.7632H20.9204L19.6806 14.2318V15.7632H18.7119V10.6548H19.6806V13.7484L20.9204 12.217ZM16.8953 12.1144C16.3144 12.1144 15.9559 12.4055 15.7847 12.6096V12.2351H14.8763V15.7632H15.8174L15.8173 13.8418C15.8173 13.3615 16.1296 13.026 16.5202 13.026C16.9108 13.026 17.223 13.3615 17.223 13.8418V15.7632H18.164V13.5392C18.164 12.7137 17.6053 12.1144 16.8953 12.1144ZM11.4538 14.0131C11.4538 14.5463 11.8622 14.9801 12.3642 14.9801C12.8663 14.9801 13.2747 14.5463 13.2747 14.0131C13.2747 13.4797 12.8663 13.046 12.3642 13.046C11.8622 13.046 11.4538 13.4797 11.4538 14.0131ZM10.4926 14.0153C10.4926 12.9138 11.2676 12.1144 12.3353 12.1144C13.4107 12.1144 14.1913 12.9138 14.1913 14.0153V15.7903H13.3214V15.2864L13.2672 15.3659C13.2635 15.3714 12.8899 15.9092 12.1906 15.9092C11.2067 15.9092 10.4926 15.1127 10.4926 14.0153Z" fill="#0F0060"/>
</svg>
