<svg width="24" height="24" viewBox="0 0 24 24" fill="none" xmlns="http://www.w3.org/2000/svg">
<path fill-rule="evenodd" clip-rule="evenodd" d="M21.0015 14.5081C20.9999 14.9369 20.6463 15.2822 20.2059 15.2827L18.8069 15.2842C18.3665 15.2822 18.0129 14.9369 18.0118 14.5081L18.0129 11.668C18.0288 11.251 18.376 10.9187 18.8069 10.9187H20.2101C20.6468 10.9213 20.9999 11.266 21.0015 11.6922V14.5081ZM20.5795 9.2009H18.4341C18.2896 9.2009 18.1499 9.21638 18.0128 9.23857V5L16.014 6.98564L16.0135 14.6397C16.0135 15.9422 17.0965 17 18.4341 17H20.5784C21.916 17 23.0001 15.9422 23.0001 14.6408V11.5622C23.0001 10.2587 21.916 9.20193 20.5795 9.2009ZM12.0607 14.5082V10.9085H14.4485V9.19168H12.0607V6.94648L8.47451 10.9085H10.0614V14.6398C10.062 15.9422 11.145 17.0001 12.4831 17.0001H15.1081V15.2843H12.8547C12.417 15.2822 12.0612 14.937 12.0607 14.5082ZM1 7.46654V17H2.99981V13.6072H3.82292L6.44574 16.9979H8.92354L5.47601 12.7237L8.61917 9.19159H6.15408L3.7758 11.8904H2.99981V5.48193L1 7.46654Z" fill="#1C2372"/>
</svg>
