<svg width="24" height="24" viewBox="0 0 24 24" fill="none" xmlns="http://www.w3.org/2000/svg">
<path fill-rule="evenodd" clip-rule="evenodd" d="M11.6264 3.61748L7.37813 1.34888L11.569 9.37624L15.7598 1.40705L11.6264 3.61748ZM14.8417 4.25734L20.2382 2.0469V6.06058L17.1381 7.45665C18.9752 8.96905 20.1808 11.2376 20.1808 13.7389C20.1808 18.2761 16.277 21.999 11.512 21.999C6.68966 21.999 2.84326 18.3343 2.84326 13.7389C2.84326 11.1795 4.04885 8.91088 6.00075 7.34031L2.90067 5.94425V1.93057L8.2397 4.19917L9.10084 5.76974L11.0527 9.49257C8.8712 9.78342 7.20634 11.5867 7.20634 13.7389C7.20634 16.0657 9.21566 17.9853 11.6842 17.9853C14.1528 17.9853 16.1621 16.1239 16.1621 13.7389C16.1621 11.5285 14.3825 9.66708 12.0861 9.49257L13.9232 5.88608H13.9806L14.8417 4.25734Z" fill="#FFDC00"/>
</svg>
