<svg width="24" height="24" viewBox="0 0 24 24" fill="none" xmlns="http://www.w3.org/2000/svg">
<path fill-rule="evenodd" clip-rule="evenodd" d="M12.6708 1L7.49254 4.38306C6.25537 5.89927 7.6444 6.8364 10.1545 7.95627C9.79771 7.78341 10.0125 7.26731 10.3039 7.1105C12.7326 5.65356 13.871 4.90781 13.9648 3.88795C14.071 2.5162 13.6104 1.44943 12.6708 1ZM12.3693 15.2496L16.3425 17.1115C17.8705 15.608 15.9981 14.7303 14.306 13.9371L14.3059 13.937C14.1235 13.8515 13.9432 13.767 13.7694 13.6828C14.1522 13.9087 13.8707 14.226 13.6719 14.3557L12.3693 15.2496ZM7.56406 18.4697L5.52682 19.839C3.95382 20.8934 6.80226 23.6875 8.61602 22.4701L11.7386 20.4218L7.56406 18.4697Z" fill="#60B1DC"/>
<path fill-rule="evenodd" clip-rule="evenodd" d="M16.8106 5.19556L12.1879 8.13413L16.2772 10.0578C17.3329 9.55279 18.1366 8.81568 18.1873 7.60568C18.212 6.42408 17.7724 5.57955 16.8106 5.19556ZM11.4286 13.2654L7.38621 11.3986C6.32299 13.1389 7.75628 13.7915 9.08987 14.3987C9.34677 14.5157 9.59996 14.631 9.8309 14.752C9.58139 14.6112 9.77376 14.4769 9.94907 14.3545C9.98891 14.3267 10.0279 14.2995 10.0606 14.273L11.4286 13.2654Z" fill="#A4C7A2"/>
<path fill-rule="evenodd" clip-rule="evenodd" d="M7.4763 4.39795C6.40829 5.04987 5.46499 6.23147 5.50697 7.90818C5.55759 9.21449 6.36508 10.2689 8.29861 11.1579L14.2968 13.936C16.4599 14.9249 17.7107 15.7571 16.3229 17.1116C17.7576 16.4412 18.6379 15.3102 18.3959 13.31C18.2441 12.0901 17.3193 11.2468 15.8846 10.6072L10.1692 7.95634C7.57631 6.75745 6.30334 5.97218 7.4763 4.39795Z" fill="#008BBC"/>
<path fill-rule="evenodd" clip-rule="evenodd" d="M7.37146 11.3984C6.18245 12.0392 5.32927 13.1739 5.44657 14.8173C5.54164 16.1569 6.26887 17.2064 7.6542 17.8287C11.0706 19.3634 14.4672 20.9216 17.6515 22.8552C18.6553 21.4834 18.6751 18.9103 16.4415 17.8633L9.85196 14.7519C7.34923 13.569 6.49976 13.2813 7.37146 11.3984Z" fill="#56A954"/>
</svg>
