<svg width="24" height="24" viewBox="0 0 24 24" fill="none" xmlns="http://www.w3.org/2000/svg">
<g clip-path="url(#clip0_8045_4256)">
<path d="M13.146 8.1935L13.956 6.5645C13.956 6.5645 14.076 6.4085 13.146 6.0605C12.216 5.7125 9.07496 5.0525 7.01996 6.9155C4.96496 8.7785 6.08996 10.9445 7.01996 11.6825C7.94996 12.4205 9.86696 13.4285 9.86696 14.8595C9.86509 15.1948 9.79034 15.5257 9.64789 15.8293C9.50543 16.1328 9.29868 16.4018 9.04196 16.6175C10.164 15.9575 12.243 14.7815 11.478 12.4955C10.878 10.7435 8.95796 10.3655 8.45396 9.1955C7.94996 8.0255 9.59996 6.2585 11.982 6.9545C13.182 7.2995 13.146 8.1935 13.146 8.1935Z" fill="#0071BB"/>
<path d="M20.7809 14.3283C21.4409 12.2733 22.1639 9.88833 20.0069 9.75333C18.5069 9.65733 16.8809 10.5603 15.9089 11.2113C15.9089 11.2113 17.4269 7.61133 17.7269 6.99033C18.0269 6.36933 17.9189 5.89233 17.0369 5.89233H15.2039C15.8249 6.32733 15.4109 7.25733 15.4109 7.25733L12.5309 13.8003C11.6759 15.4353 10.4159 16.8003 8.41491 17.1573C7.68235 17.2232 6.94402 17.1426 6.24291 16.9203C4.49991 16.2483 3.95991 14.3703 4.05591 13.0023L2.55591 16.3023C2.55591 16.3023 4.01391 18.6093 6.48291 18.7863C8.45391 18.9273 9.86091 18.4323 11.0069 17.3013C10.3799 18.7533 12.0269 18.7083 12.0269 18.7083H13.5779C13.4016 18.6163 13.2648 18.4633 13.193 18.2778C13.1213 18.0923 13.1194 17.8871 13.1879 17.7003C13.2389 17.5593 13.7219 16.2993 13.7219 16.2993C16.0529 11.5563 18.5999 11.1963 18.8819 11.8383C19.4099 13.0083 17.7869 16.1823 17.3999 17.2863C16.7639 18.7473 18.4169 18.6993 18.4169 18.6993H19.9649C19.7966 18.6001 19.6694 18.4439 19.6061 18.2591C19.5428 18.0743 19.5477 17.8729 19.6199 17.6913C19.7099 17.4243 20.6999 14.6283 20.7809 14.3283Z" fill="#0071BB"/>
</g>
<defs>
<clipPath id="clip0_8045_4256">
<rect width="19.2" height="19.2" fill="white" transform="translate(2.3999 2.62842)"/>
</clipPath>
</defs>
</svg>
