<svg width="24" height="24" viewBox="0 0 24 24" fill="none" xmlns="http://www.w3.org/2000/svg">
<path fill-rule="evenodd" clip-rule="evenodd" d="M4.22952 15.935C3.62004 15.6486 3.1177 15.4172 3.1177 14.9507C3.1177 14.5938 3.4037 14.3343 3.96633 14.3343C4.17289 14.3343 4.344 14.3567 4.51919 14.3901C4.61044 14.4052 4.70904 14.4191 4.7897 14.4191C5.28144 14.4191 5.5593 14.1261 5.74385 13.5684L5.82044 13.3394C5.74182 13.3081 4.93759 12.9548 3.88852 12.9548C2.221 12.9548 1.33937 14.0255 1.34059 15.1377C1.34059 15.6975 1.51619 16.1049 1.79078 16.4243C2.14563 16.8362 2.64919 17.1063 3.12015 17.3357C3.80704 17.6738 4.42752 17.9232 4.42752 18.4235C4.42752 18.8675 3.96919 19.1209 3.35522 19.1209C2.51719 19.1209 1.78344 18.6402 1.69056 18.5819L1 19.8763C1.12222 19.9455 2.00956 20.5102 3.47296 20.5102C5.02885 20.5098 6.20707 19.6147 6.20707 18.2389C6.20707 16.8716 5.11441 16.3636 4.22952 15.935Z" fill="#E21837"/>
<path fill-rule="evenodd" clip-rule="evenodd" d="M10.3187 16.5729L13.1432 13.1055H11.131L8.87889 16.0987H8.84508V13.1055H7.18652V20.451H7.28512C8.00175 20.451 8.85567 20.1186 8.85567 18.9204V17.2329H8.89071L11.1864 20.3606H13.2964L10.3187 16.5729Z" fill="#E21837"/>
<path fill-rule="evenodd" clip-rule="evenodd" d="M13.2377 5.23657C12.6527 5.34657 11.7869 5.87661 11.7902 6.81731C11.7918 7.66879 12.4889 8.18498 12.4909 9.30209C12.4938 10.143 12.0318 10.7089 11.5315 11.0226C11.7336 11.0038 11.9556 10.9924 12.1984 10.9924C12.7101 10.9908 13.0173 11.0393 13.0365 11.0434L15.6565 7.82279C14.928 6.73216 14.0782 5.88598 13.2377 5.23657Z" fill="#E21837"/>
<path fill-rule="evenodd" clip-rule="evenodd" d="M15.4385 13.9298C15.7677 13.4173 15.8104 12.5972 15.8377 11.7624C15.8687 10.9846 16.0308 10.3984 17.0706 10.3943C17.3007 10.3931 17.5211 10.4257 17.9188 10.4245C19.4421 10.4179 20.4357 9.89198 21.055 9.54772C19.7908 8.74105 17.9448 7.91605 15.6564 7.82275C15.5077 8.24605 14.3474 11.4752 14.259 11.7355C14.2733 11.7514 14.4762 11.9795 14.73 12.4244C15.1044 13.0351 15.3044 13.5525 15.4385 13.9298Z" fill="#E21837"/>
<mask id="mask0_8045_4246" style="mask-type:luminance" maskUnits="userSpaceOnUse" x="8" y="3" width="5" height="9">
<path fill-rule="evenodd" clip-rule="evenodd" d="M8.87183 3.31226H12.8669V11.2915H8.87183V3.31226Z" fill="white"/>
</mask>
<g mask="url(#mask0_8045_4246)">
<path fill-rule="evenodd" clip-rule="evenodd" d="M9.9038 11.2915C9.77262 11.2915 9.70662 11.2039 9.6891 11.0519C9.67239 10.8992 9.01647 4.89846 8.91869 3.98872C8.90484 3.85549 8.87184 3.61227 8.87184 3.52509C8.87062 3.38494 8.96228 3.31201 9.07025 3.31201C9.38028 3.3112 11.071 3.70842 12.8669 4.96812C12.3499 5.11357 11.4132 5.65298 11.4173 6.76927C11.4218 7.7552 12.127 8.29909 12.1311 9.29112C12.136 10.9012 10.2884 11.2907 9.9038 11.2915Z" fill="#F37725"/>
</g>
<path fill-rule="evenodd" clip-rule="evenodd" d="M15.5884 14.3566C15.6165 14.4328 15.643 14.4967 15.6703 14.5399C15.711 14.6112 15.7644 14.643 15.832 14.643C15.8732 14.643 15.9241 14.6271 15.9807 14.6015C16.1192 14.5379 21.5895 11.9883 22.4145 11.607C22.5355 11.55 22.7608 11.4485 22.8374 11.4045C22.9136 11.3605 22.9486 11.2949 22.9486 11.2293C22.9486 11.1931 22.9376 11.156 22.918 11.1218C22.8154 10.9552 22.2845 10.3929 21.3992 9.77856C20.6969 10.1648 19.5997 10.7649 17.9672 10.771C17.5663 10.7718 17.4771 10.7433 17.2042 10.7462C16.4073 10.7486 16.2089 11.0888 16.1787 11.7887C16.1738 11.9207 16.1734 12.0983 16.164 12.2939C16.1392 12.9201 16.0659 13.7813 15.5884 14.3566Z" fill="#F37725"/>
</svg>
