<svg width="24" height="24" viewBox="0 0 24 24" fill="none" xmlns="http://www.w3.org/2000/svg">
<path d="M14.5545 9.22852C13.2238 9.22852 12.0347 9.91821 12.0347 11.1925C12.0347 12.6538 14.1437 12.7547 14.1437 13.4889C14.1437 13.798 13.7894 14.0747 13.1844 14.0747C12.3257 14.0747 11.6839 13.6881 11.6839 13.6881L11.4093 14.9739C11.4093 14.9739 12.1486 15.3005 13.1302 15.3005C14.585 15.3005 15.7298 14.577 15.7298 13.2809C15.7298 11.7367 13.612 11.6388 13.612 10.9574C13.612 10.7153 13.9028 10.4499 14.5061 10.4499C15.1868 10.4499 15.7422 10.7311 15.7422 10.7311L16.011 9.4892C16.011 9.4892 15.4067 9.22852 14.5545 9.22852ZM2.38036 9.32225L2.34814 9.50971C2.34814 9.50971 2.90795 9.61216 3.41214 9.81653C4.06133 10.0509 4.10758 10.1873 4.21691 10.611L5.40833 15.2039H7.00542L9.46587 9.32225H7.87244L6.29145 13.3212L5.64632 9.9315C5.58715 9.54355 5.28747 9.32225 4.92063 9.32225H2.38036ZM10.1066 9.32225L8.85662 15.2039H10.3761L11.6217 9.32225H10.1066ZM18.5812 9.32225C18.2148 9.32225 18.0207 9.51841 17.8783 9.8612L15.6521 15.2039H17.2456L17.5539 14.3134H19.4951L19.6826 15.2039H21.0886L19.862 9.32225H18.5812ZM18.7885 10.9113L19.2608 13.1183H17.9954L18.7885 10.9113Z" fill="#1434CB"/>
</svg>
