<svg width="24" height="24" viewBox="0 0 24 24" fill="none" xmlns="http://www.w3.org/2000/svg">
<path fill-rule="evenodd" clip-rule="evenodd" d="M6.2616 9.88892C5.4008 9.94172 4.6664 9.29372 4.6112 8.43932C4.56 7.58412 5.2048 6.84492 6.0672 6.79052C6.9192 6.73612 7.652 7.38892 7.7064 8.24332C7.7616 9.09852 7.1144 9.83612 6.2616 9.88892ZM20.5566 7.58584C19.5518 6.56904 17.891 6.74504 16.9118 7.78264C15.6374 9.12024 14.6462 9.62024 13.4646 9.57064C11.8166 9.49864 11.003 8.22344 10.1574 6.61544C9.27816 4.93624 7.92536 4.00024 6.23976 4.00024C3.58856 4.00024 1.99976 6.14664 1.99976 8.54024C1.99976 12.2234 4.58936 14.425 6.38216 15.353C7.87176 16.1298 9.52856 16.453 11.003 16.4906C10.9158 17.3706 10.6566 18.533 10.371 19.3562H10.5222H11.8982H13.2726H13.403C13.1046 18.533 12.8398 17.2746 12.7582 16.3922C17.2006 15.8154 19.311 13.7986 20.4662 11.8778C20.9846 11.0346 21.2614 10.1594 21.2582 9.37304C21.2542 8.68424 21.035 8.05784 20.5566 7.58584Z" fill="#6EB329"/>
</svg>
