<svg width="24" height="24" viewBox="0 0 24 24" fill="none" xmlns="http://www.w3.org/2000/svg">
<path fill-rule="evenodd" clip-rule="evenodd" d="M19.8044 11.395C18.2901 11.6996 17.734 12.5717 17.3354 12.3691C16.9872 12.0854 17.3679 10.4711 17.45 9.82175C17.5561 8.97067 16.4106 8.45098 16.0196 9.49538C15.6962 10.5381 15.8485 14.2278 15.9203 14.8797C15.9965 15.5793 17.2216 15.5517 17.3508 14.9441C17.3893 14.7533 17.4885 14.3533 17.7734 13.7943C18.9959 11.4896 21.6694 12.5039 21.4067 14.1215C20.9542 16.5986 16.3584 16.5459 15.7527 16.0178C14.8458 15.3726 11.9739 13.4671 9.1986 11.6603C9.20202 11.5323 9.20716 11.395 9.21315 11.267C13.0741 9.01084 16.9632 6.72706 17.45 6.29943C18.2174 5.6174 17.3679 4.40312 16.3832 5.18223C15.7261 5.70945 12.6078 7.73966 9.31495 9.8251C9.5391 7.30533 9.93776 5.85674 10.1131 5.19144C10.4391 3.95206 8.66476 3.4876 8.36277 4.73786C7.86229 6.79903 7.58511 8.74974 7.44823 10.5306C5.57466 9.32968 3.96887 8.31541 3.36487 7.9949C1.61621 7.0593 1.43399 8.77652 2.13037 9.10038C2.46402 9.26022 4.23065 10.3264 6.39766 11.6586C4.21782 13.0236 2.27068 14.211 1.28941 14.7743C0.637507 15.3073 1.19872 16.0178 1.8703 15.622C2.9491 14.9441 5.04082 13.7148 7.3507 12.3591C7.26173 15.9726 7.76819 18.5886 8.16515 19.4029C8.68358 20.4498 9.53738 19.9929 9.4005 19.0112C9.21571 16.8421 9.14813 14.9676 9.15583 13.36C12.5034 15.4287 15.8382 17.5124 16.1505 17.7066C16.9264 18.1895 17.6433 17.6388 17.7101 17.2497C20.4101 16.9978 22.2853 16.5275 22.8885 14.3918C23.5087 12.2085 21.4119 11.0728 19.8044 11.395Z" fill="#FCB813"/>
</svg>
