<svg width="24" height="25" viewBox="0 0 24 25" fill="none" xmlns="http://www.w3.org/2000/svg">
<path d="M21.5313 12.6523C21.5313 7.57162 17.2906 4.05984 12.6443 4.06152H11.5718C6.87002 4.05984 3 7.5727 3 12.6523C3 17.2993 6.87013 21.1174 11.5718 21.095H12.6443C17.2904 21.1173 21.5313 17.2982 21.5313 12.6523Z" fill="#1E4B92"/>
<path fill-rule="evenodd" clip-rule="evenodd" d="M3.81787 12.5791C3.819 8.27238 7.30047 4.78282 11.5968 4.78149C15.8941 4.78282 19.3764 8.27228 19.377 12.5791C19.3765 16.8851 15.8941 20.3743 11.5968 20.3756C7.30042 20.3743 3.81894 16.8851 3.81787 12.5791ZM9.84513 7.9458C7.99549 8.65892 6.68378 10.4535 6.67969 12.558C6.68372 14.6628 7.99549 16.4565 9.84513 17.1692V7.9458ZM13.3744 7.9458V17.1715C15.2248 16.4588 16.5386 14.6645 16.542 12.5583C16.5386 10.4529 15.2248 8.65723 13.3744 7.9458Z" fill="white"/>
</svg>
