<svg width="24" height="24" viewBox="0 0 24 24" fill="none" xmlns="http://www.w3.org/2000/svg">
<path fill-rule="evenodd" clip-rule="evenodd" d="M11.9875 4C5.36468 4 1 7.47567 1 11.7645C1 16.0524 5.36468 19.5286 11.9875 19.5286C18.6114 19.5286 22.977 16.0524 22.977 11.7645C22.977 7.47567 18.6114 4 11.9875 4Z" fill="#FEFEFE"/>
<path fill-rule="evenodd" clip-rule="evenodd" d="M13.9458 14.666C15.8325 14.3385 22.2031 13.0275 21.4182 9.3921C21.1357 8.08816 19.7944 6.65382 17.7707 5.65665C16.1534 4.92887 14.1793 4.50635 11.9621 4.50635C5.81333 4.50635 1.5376 7.7556 1.5376 11.7645C1.5376 14.5563 3.6133 16.9803 6.95099 18.1932C7.65907 16.3293 10.4792 15.2674 13.9458 14.666Z" fill="#0075C1"/>
<path fill-rule="evenodd" clip-rule="evenodd" d="M12.0012 15.9517C9.24424 16.2979 7.97921 17.1885 7.16602 18.27C8.57104 18.7507 10.1878 19.0216 11.9618 19.0216C18.1111 19.0216 22.3868 15.7733 22.3868 11.7645C22.3868 11.4092 22.3529 11.0599 22.2872 10.7183C22.0836 15.4251 15.018 15.5772 12.0012 15.9517Z" fill="url(#paint0_linear_8045_3833)"/>
<path fill-rule="evenodd" clip-rule="evenodd" d="M14.5445 13.7429C14.5137 13.4023 14.5011 13.1698 14.5011 12.9696V10.9359H13.5216L13.5529 10.9986C13.5539 11.0001 13.6525 11.1952 13.6525 11.6217L13.6525 11.6254C13.6526 11.7057 13.655 13.0431 13.6166 13.3664C13.3801 13.427 13.0637 13.4488 12.8585 13.4488C11.3044 13.4488 10.5154 12.5562 10.5154 10.7979C10.5154 9.45555 11.4034 8.45333 12.674 8.36135C13.3427 8.31384 13.9861 8.49579 14.3914 8.84755L14.4621 8.90921V8.08742L14.4283 8.08085C14.0245 8.00302 13.5504 7.92114 13.0864 7.92114C10.849 7.92114 9.51221 9.09924 9.51221 11.0718C9.51221 13.1733 11.1442 13.9218 12.672 13.9218C13.3194 13.9218 13.9891 13.8738 14.5092 13.7884L14.5481 13.7818L14.5445 13.7429ZM4.95117 8.4943C5.06994 8.48419 5.43383 8.45791 5.69715 8.45791C7.27149 8.45791 8.00584 9.22107 8.00584 10.8601C8.00584 12.5537 7.35336 13.378 6.01252 13.378C5.03103 13.378 4.95117 13.3305 4.95117 12.7488V8.4943ZM6.02836 7.97476H3.96631L3.99057 8.03389C4.08205 8.25627 4.07649 8.6616 4.07042 9.02044C4.0679 9.10484 4.06688 13.7809 4.06688 13.7809L4.10782 13.7819C4.11742 13.7829 5.04737 13.8162 5.9288 13.8162C7.7705 13.8162 9.00823 12.5679 9.00823 10.71C9.00823 9.04824 7.83873 7.97476 6.02836 7.97476ZM16.9981 8.43027H16.422L16.4189 10.4201H16.795C17.8159 10.4201 18.2915 10.0794 18.2915 9.34758C18.2915 8.70471 17.9058 8.43027 16.9981 8.43027ZM16.8738 10.8761H16.4189V12.789C16.4189 13.2126 16.5979 13.3778 17.0553 13.3778C17.9988 13.3778 18.4578 12.9604 18.4578 12.1022C18.4578 11.2885 17.9261 10.8761 16.8738 10.8761ZM19.1357 9.22938C19.1357 9.95009 18.6 10.4439 18.04 10.593C18.8845 10.7739 19.4592 11.3556 19.4592 12.0501C19.4592 13.1721 18.6091 13.8159 17.1267 13.8159C16.3472 13.8159 15.7057 13.8274 15.5984 13.8293C15.5887 13.8295 15.5833 13.8296 15.5827 13.8296L15.5393 13.8306V8.79575C15.5393 8.26052 15.4882 8.02905 15.4872 8.02652L15.4756 7.97446H17.2395C18.4277 7.97446 19.1357 8.44297 19.1357 9.22938Z" fill="#FEFEFE"/>
<defs>
<linearGradient id="paint0_linear_8045_3833" x1="23.1995" y1="13.136" x2="7.77337" y2="14.1467" gradientUnits="userSpaceOnUse">
<stop stop-color="#6AB935"/>
<stop offset="0.305922" stop-color="#00A5A9"/>
<stop offset="0.669783" stop-color="#008AD5"/>
<stop offset="1" stop-color="#0075C1"/>
</linearGradient>
</defs>
</svg>
