<svg width="24" height="25" viewBox="0 0 24 25" fill="none" xmlns="http://www.w3.org/2000/svg">
<path d="M12.4666 11.0002C13.5225 11.0002 14.3785 11.805 14.3785 12.7991V12.8002C14.3785 13.7944 13.5225 14.6002 12.4666 14.6002C11.4107 14.6002 10.5547 13.7944 10.5547 12.8002V12.7991C10.5547 11.805 11.4107 11.0002 12.4666 11.0002Z" fill="#F47216"/>
<path fill-rule="evenodd" clip-rule="evenodd" d="M9.46461 11.0237C9.76617 11.0237 10.0191 11.0846 10.327 11.2315V12.008C10.0354 11.7397 9.78248 11.6273 9.44796 11.6273C8.79047 11.6273 8.2735 12.1398 8.2735 12.7895C8.2735 13.4745 8.77454 13.9565 9.48055 13.9565C9.79838 13.9565 10.0466 13.85 10.327 13.586V14.3629C10.0081 14.5042 9.74982 14.56 9.44796 14.56C8.38053 14.56 7.55107 13.7888 7.55107 12.7943C7.55104 11.8104 8.40257 11.0237 9.46461 11.0237ZM6.15024 11.0451C6.54428 11.0451 6.90478 11.1721 7.20623 11.4203L6.83942 11.8724C6.6568 11.6797 6.48411 11.5985 6.27416 11.5985C5.97198 11.5985 5.75196 11.7604 5.75196 11.9735C5.75196 12.1562 5.87544 12.2529 6.2961 12.3995C7.09347 12.6739 7.32981 12.9174 7.32981 13.4549C7.32981 14.1099 6.81871 14.5659 6.09031 14.5659C5.55685 14.5659 5.16908 14.3682 4.84609 13.9219L5.29891 13.5113C5.46033 13.8051 5.72967 13.9626 6.06406 13.9626C6.37678 13.9626 6.60831 13.7595 6.60831 13.4853C6.60831 13.3432 6.53814 13.2214 6.39814 13.1352C6.32763 13.0944 6.18798 13.0336 5.91356 12.9425C5.25515 12.7194 5.02929 12.4809 5.02929 12.0147C5.02926 11.461 5.51436 11.0451 6.15024 11.0451ZM14.9264 11.1041H14.1607L15.6858 14.5745H16.0631L17.6156 11.1041H16.8557L15.8849 13.3768L14.9264 11.1041ZM3.88105 11.1092H4.58208V14.4928H3.88105V11.1092ZM19.9208 11.1092H17.9327V14.4928H19.9208V13.92H18.6333V13.0066H19.8734V12.4336H18.6333V11.6826H19.9208V11.1092ZM21.8778 13.0674C22.4058 12.9662 22.6963 12.6262 22.6963 12.1082C22.6963 11.4747 22.233 11.1092 21.4245 11.1092H20.3852V14.4928H21.0853V13.1335H21.1768L22.1471 14.4928H23.0091L21.8778 13.0674ZM21.2902 12.6668H21.0853V11.6421H21.3012C21.7378 11.6421 21.9751 11.8145 21.9751 12.1437C21.9751 12.4839 21.7378 12.6668 21.2902 12.6668ZM0.600098 11.1091H1.62903C2.76591 11.1091 3.55844 11.8047 3.5584 12.8032C3.5584 13.3012 3.31599 13.7826 2.90597 14.1021C2.561 14.3718 2.16788 14.4927 1.62367 14.4927H0.600098V11.1091ZM1.48873 13.9198C1.94164 13.9198 2.22774 13.8381 2.44801 13.6509C2.69042 13.4477 2.83628 13.1231 2.83625 12.7984C2.83625 12.4742 2.69042 12.1593 2.44797 11.956C2.21641 11.7588 1.94161 11.6824 1.48869 11.6824H1.30055V13.9198H1.48873Z" fill="black"/>
</svg>
