<svg width="24" height="24" viewBox="0 0 24 24" fill="none" xmlns="http://www.w3.org/2000/svg">
<path fill-rule="evenodd" clip-rule="evenodd" d="M8.40806 18.6391C10.2599 20.4917 13.2872 20.4917 15.1393 18.6391L18.5597 15.2201C20.4118 13.368 20.4118 10.3385 18.5597 8.48663L15.1393 5.06766C13.2872 3.21553 10.2599 3.21553 8.40806 5.06766L4.98853 8.48663C3.13696 10.3385 3.13696 13.368 4.98853 15.2201L8.40806 18.6391ZM11.5856 7.54112C11.3081 7.54112 11.0852 7.6286 10.9064 7.80746C10.5177 8.19193 10.3143 8.98789 10.3327 10.0468C10.355 11.3524 10.6648 13.9149 11.692 15.2335C11.8595 15.4464 12.0369 15.6172 12.2228 15.7409C12.4033 15.8618 12.6092 15.9768 12.9251 15.9768C13.0109 15.9768 13.1028 15.969 13.1987 15.952C13.7879 15.8088 14.5268 15.1541 15.0737 14.2821C15.1567 14.1495 15.3024 14.0684 15.4595 14.0684C15.5442 14.0684 15.6284 14.0941 15.7002 14.1386C15.8025 14.2033 15.873 14.3038 15.9005 14.4225C15.9279 14.5404 15.9064 14.663 15.8426 14.7646C15.1492 15.8682 14.2329 16.6421 13.3926 16.838L13.3886 16.8387C13.3843 16.8394 13.3782 16.8404 13.3709 16.8424C13.2174 16.87 13.065 16.8839 12.9209 16.8839C12.379 16.8839 11.9971 16.6786 11.7249 16.4984C11.456 16.3192 11.2034 16.0824 10.9763 15.7907C9.52953 13.9347 9.43286 10.4525 9.42478 10.0622C9.41029 9.13694 9.5429 7.88185 10.2664 7.16251C10.6189 6.81314 11.0621 6.63567 11.5811 6.63567H11.6658C12.1857 6.63567 12.629 6.81314 12.9819 7.16251C13.7041 7.88185 13.8384 9.13694 13.8222 10.0622C13.8077 11.0264 13.63 12.8964 12.629 14.5727C12.5479 14.7092 12.3991 14.7939 12.2392 14.7939C12.1587 14.7939 12.077 14.7713 12.008 14.7312C11.7937 14.6022 11.7218 14.3214 11.8505 14.1074C12.5504 12.9354 12.89 11.6457 12.9159 10.0468C12.9332 8.98649 12.729 8.19193 12.3437 7.80746C12.1642 7.6286 11.9408 7.54112 11.6644 7.54112H11.5856ZM9.74552 16.8765C9.4725 16.8765 9.25045 16.6645 9.23959 16.3923C9.2343 16.2577 9.2811 16.1287 9.37332 16.029C9.46442 15.9304 9.59062 15.8727 9.72491 15.8657C10.0024 15.8526 10.24 16.0713 10.2506 16.3499C10.2623 16.6302 10.0447 16.8656 9.7667 16.8765H9.74552Z" fill="#E60013"/>
</svg>
