<svg width="24" height="24" viewBox="0 0 24 24" fill="none" xmlns="http://www.w3.org/2000/svg">
<path fill-rule="evenodd" clip-rule="evenodd" d="M14.8207 9.74117C14.8207 9.33316 15.1742 9 15.598 9C16.0395 9 16.3926 9.33316 16.3926 9.74117C16.3926 10.149 16.0395 10.482 15.598 10.482C15.1742 10.482 14.8207 10.149 14.8207 9.74117ZM18.4215 10.0113H17.3308V10.495C17.3308 10.8425 17.1304 11.1072 16.7133 11.1072H16.513V12.1125H17.2188V13.7228C17.2188 14.4709 17.7239 14.932 18.5495 14.932C18.9344 14.932 19.135 14.8488 19.1833 14.8264V13.8739C19.1111 13.8889 18.9905 13.9118 18.8627 13.9118C18.5977 13.9118 18.4215 13.8284 18.4215 13.5187V12.1125H19.1995V11.1072H18.4215V10.0113ZM5.72309 10.9938C5.18595 10.9938 4.80094 11.1602 4.48815 11.5835C4.28788 11.2132 3.87896 10.9938 3.30956 10.9938C2.87657 10.9938 2.36333 11.2053 2.16272 11.538V11.1069H1V14.864H2.21889V12.7021C2.21889 12.362 2.45143 12.0522 2.87657 12.0522C3.31758 12.0522 3.51768 12.3318 3.51768 12.687V14.864H4.7207V12.6945C4.7207 12.362 4.95341 12.0522 5.38623 12.0522C5.81922 12.0522 6.01983 12.3318 6.01983 12.687V14.864H7.19843V12.4298C7.19843 11.4095 6.47707 10.9938 5.72309 10.9938ZM13.2242 11.6139V11.107H12.0449V14.8641H13.264V13.2238C13.264 12.4756 13.7053 12.2034 14.195 12.2034C14.3154 12.2034 14.4436 12.211 14.58 12.2412V11.107C14.4998 11.0845 14.3794 11.0695 14.2592 11.0695C13.9381 11.0695 13.4328 11.1906 13.2242 11.6139ZM16.2159 14.8641H14.9973V11.107H16.2159V14.8641ZM8.82019 12.5311C8.84461 12.2482 9.10413 11.8889 9.62334 11.8889C10.2071 11.8889 10.4179 12.2405 10.434 12.5311H8.82019ZM9.60715 10.9715C8.56088 10.9715 7.59605 11.7513 7.59605 12.9744C7.59605 14.251 8.58529 15.0001 9.69628 15.0001C10.6101 15.0001 11.2179 14.5597 11.4755 13.9967L10.4673 13.6359C10.3357 13.8668 10.0963 14.0138 9.7125 14.0138C9.23409 14.0138 8.8204 13.7081 8.79598 13.2802H11.602C11.6102 13.2573 11.6266 13.0814 11.6266 12.9208C11.6266 11.6977 10.8559 10.9715 9.60715 10.9715ZM22.9682 12.0521L21.1472 13.8586H23.0001V13.8739V14.8641H19.6565V13.8512L21.39 12.1125H19.7045V12.0899V11.107H22.9682V12.0521Z" fill="#EE3B24"/>
</svg>
