<svg width="24" height="24" viewBox="0 0 24 24" fill="none" xmlns="http://www.w3.org/2000/svg">
<path fill-rule="evenodd" clip-rule="evenodd" d="M23.663 9C23.2756 10.6004 21.8882 11.473 21.0727 11.9389L21.0374 11.8915C21.3716 11.6193 22.5198 10.7722 22.8867 9.36814L23.663 9Z" fill="#EF8200"/>
<path fill-rule="evenodd" clip-rule="evenodd" d="M14.8002 13.1422C14.742 13.0975 14.674 13.0559 14.5954 13.0208C14.5929 13.0191 14.4205 12.9337 14.4205 12.9337L14.4191 12.9328L14.4159 12.9311C14.3595 12.8989 14.2278 12.8221 14.2278 12.6935C14.2278 12.6304 14.2525 12.5765 14.2971 12.5386C14.3515 12.4936 14.436 12.4768 14.5262 12.4929C14.6399 12.5106 14.7706 12.5845 14.914 12.7075L14.9681 12.6032L14.9683 12.6028L14.9687 12.6021C15.0372 12.4701 15.1229 12.3049 15.1594 12.2357C14.9949 12.1003 14.8351 12.0279 14.5972 11.9859C14.3031 11.942 14.0195 12.0047 13.8203 12.1555C13.6529 12.2841 13.5485 12.4721 13.5203 12.6993C13.5159 12.7386 13.5146 12.7753 13.5146 12.8115C13.5146 12.9185 13.5333 13.0118 13.5706 13.0933C13.5849 13.0944 13.5989 13.0957 13.6131 13.0975C13.9133 13.1195 14.3259 13.1381 14.8002 13.1422ZM1.54744 13.4525C1.54744 13.4525 2.10215 12.1851 2.14497 12.0747H2.97959C2.97984 12.1589 2.95231 12.7157 2.92473 13.2737L2.92473 13.2737L2.92473 13.2737L2.92473 13.2737C2.89705 13.8337 2.86931 14.3947 2.86957 14.4799H2.26952L2.36903 12.7958C2.36903 12.7958 1.69302 14.3731 1.64819 14.4799H1.17404L0.961336 12.7958C0.958734 12.8079 0.950873 12.8465 0.938997 12.9049C0.876175 13.2136 0.701031 14.0742 0.598038 14.4799H0C0.0349742 14.3592 0.194461 13.6545 0.334007 13.0379L0.334009 13.0379C0.442936 12.5566 0.539712 12.1289 0.555631 12.0747H1.35878L1.54744 13.4525ZM3.35456 13.1232C3.4276 12.6136 3.49526 12.1416 3.505 12.0747H4.16773C4.14925 12.2022 4.01293 13.153 3.91695 13.8224L3.91687 13.8229L3.82263 14.48H3.15981C3.17498 14.3758 3.26851 13.7234 3.35456 13.1232ZM8.79525 13.0073L8.929 12.0747H10.4571C10.4432 12.1764 10.4166 12.3609 10.3979 12.4904L10.3978 12.4908L10.383 12.5932H9.46652L9.40374 13.0317H10.2578L10.2203 13.2931L10.1884 13.5163H9.33445L9.27059 13.9611H10.2118C10.2022 14.0273 10.1878 14.1285 10.1738 14.2268C10.1594 14.3281 10.1454 14.4264 10.1375 14.48H8.58398C8.60004 14.3691 8.70505 13.6366 8.79525 13.0073ZM7.57605 12.604L7.19614 13.497H7.6996L7.57605 12.604ZM7.82146 14.4799C7.80602 14.3857 7.76344 13.9934 7.76344 13.9934L7.01473 13.9943C7.01473 13.9943 6.85169 14.3996 6.81763 14.4799H6.17168C6.23286 14.3471 6.54956 13.6354 6.82351 13.0198L6.82353 13.0197L6.82354 13.0197L6.82391 13.0189L6.82401 13.0186L6.82403 13.0186C7.0373 12.5393 7.22454 12.1185 7.24496 12.0749H8.04894C8.06134 12.1435 8.15111 12.6754 8.24355 13.2231L8.24375 13.2243L8.24426 13.2273L8.24429 13.2275C8.34014 13.7955 8.43865 14.3792 8.45656 14.4799H7.82146ZM5.09187 12.5264H5.23971C5.3408 12.5264 5.45333 12.5368 5.52362 12.6176C5.57354 12.6751 5.5914 12.7559 5.57612 12.8593C5.57612 12.8593 5.55651 13.0426 5.43521 13.1007C5.43521 13.1007 5.3519 13.1551 5.21383 13.1587H5.00194L5.09187 12.5264ZM4.98013 13.3119L4.91464 13.1587H5.00194L4.98013 13.3119ZM4.98013 13.3119C4.90743 13.8223 4.82403 14.4063 4.81255 14.48H4.20967C4.23705 14.2874 4.53365 12.2204 4.5546 12.0749H5.46326C5.66628 12.0749 5.94001 12.113 6.09945 12.297C6.18785 12.3989 6.23185 12.5349 6.23185 12.7042C6.23185 12.7559 6.2275 12.8102 6.21966 12.8675C6.16131 13.3245 5.93107 13.4119 5.63656 13.4667L6.12299 14.48H5.47962L4.98013 13.3119ZM19.0909 12.5416C19.1151 12.3774 19.1478 12.1554 19.1602 12.0747H20.6323C20.1086 12.3287 19.5438 12.5162 19.0753 12.647L19.0909 12.5416ZM18.8498 12.5935H17.9337L17.8864 12.9175C17.6826 12.9543 17.4726 12.9848 17.2614 13.0115L17.3308 12.5284L17.3314 12.5242L17.332 12.5201C17.3658 12.2847 17.3904 12.1133 17.3957 12.075H18.9243L18.8946 12.2818L18.8498 12.5935ZM19.4061 12.6729C19.3524 12.6913 19.2971 12.7083 19.2406 12.7257L19.1959 12.7395C19.1869 12.7428 19.1779 12.7457 19.1681 12.7488L19.1681 12.7488L19.1613 12.751C19.1317 12.7597 19.1017 12.7686 19.0707 12.7783C19.0635 12.7799 19.0564 12.7821 19.0495 12.7841C19.0441 12.7857 19.0388 12.7873 19.0335 12.7887L19.0301 12.7897L19.03 12.7897C18.9317 12.8185 18.8321 12.8477 18.7272 12.8762C18.7113 12.8801 18.6961 12.8844 18.6806 12.8888L18.6806 12.8888L18.6765 12.8899C18.6603 12.8939 18.6438 12.8982 18.6272 12.9025L18.6272 12.9025L18.5847 12.9134L18.5638 12.919C18.5515 12.9224 18.5392 12.9258 18.5262 12.9287L18.4864 12.9393L18.4358 12.9527C18.4138 12.9574 18.391 12.9629 18.3691 12.9689L18.3058 12.984L18.3057 12.984C18.2763 12.9911 18.2464 12.9983 18.216 13.0054C18.2004 13.0091 18.1847 13.0127 18.1687 13.0164L18.1687 13.0164L18.1377 13.0235L18.1224 13.027C18.1157 13.0287 18.109 13.0303 18.1019 13.0317H18.1009C17.8291 13.0929 17.5399 13.1515 17.2334 13.2038C17.2278 13.2049 17.2218 13.2057 17.2153 13.2062C17.1681 13.2149 17.12 13.2229 17.0716 13.2309L17.0716 13.2309L17.0422 13.2358L17.0323 13.2369C17.0231 13.238 17.0144 13.239 17.0049 13.2407C16.9448 13.2512 16.884 13.2601 16.8225 13.2691C16.8183 13.2697 16.8145 13.2703 16.8111 13.2703C16.4816 13.3185 16.1348 13.3599 15.7712 13.3911H15.7659C15.7121 13.3963 15.6579 13.4009 15.603 13.4055L15.5982 13.4059C15.5945 13.4059 15.5901 13.4064 15.5855 13.4068L15.5817 13.4072L15.5637 13.4085C15.5124 13.4122 15.4607 13.4159 15.4087 13.4187C15.4053 13.4194 15.4005 13.4203 15.3969 13.4203L15.3539 13.423C15.3083 13.426 15.263 13.4289 15.2172 13.4314C15.2137 13.432 15.211 13.432 15.2084 13.432C15.1697 13.434 15.131 13.4361 15.0919 13.4382L15.0919 13.4382L15.0233 13.442H15.0189C14.7135 13.4568 14.3972 13.465 14.0707 13.465H14.0478C13.974 13.4642 13.8996 13.4637 13.8233 13.4637C13.811 13.4637 13.7971 13.4637 13.7835 13.4627C13.519 13.4587 13.2489 13.4496 12.9714 13.4346H12.9672C12.5488 13.4129 12.1173 13.3779 11.6718 13.3269L12.1851 12.8448C12.1851 12.8448 12.4829 12.9344 12.8958 13.0084C12.8596 12.7963 12.8257 12.5959 12.7985 12.4351L12.7983 12.4339C12.7659 12.2426 12.743 12.1074 12.7371 12.075H11.9327C11.9125 12.1189 11.7236 12.5433 11.5091 13.0253L11.5087 13.0264C11.2354 13.6406 10.9207 14.3477 10.8604 14.4801H11.5056C11.5396 14.3995 11.7566 13.8826 11.7566 13.8826L12.4297 13.882C12.4297 13.882 12.4947 14.385 12.5094 14.4801H13.1446L13.0985 14.2087L12.9985 13.6181C13.4521 13.6436 13.9056 13.648 14.3293 13.6426C14.3511 13.678 14.3622 13.7163 14.3622 13.7575C14.3622 13.7725 14.3612 13.787 14.3583 13.8022C14.3485 13.8561 14.3208 13.9003 14.2777 13.931C14.1892 13.9929 14.064 13.9793 13.9768 13.9639C13.7718 13.9286 13.609 13.7729 13.4772 13.6436C13.3942 13.7783 13.2212 14.0605 13.1659 14.1519C13.4082 14.3727 13.6697 14.5076 13.947 14.5462C14.2274 14.5883 14.5053 14.525 14.7113 14.3732C14.8914 14.2399 15.0043 14.0461 15.0389 13.8127C15.0502 13.7452 15.0548 13.6819 15.0515 13.6214C15.5058 13.6022 15.8826 13.5739 16.1247 13.5531C16.2033 13.6107 16.2442 13.679 16.2442 13.7575C16.2442 13.7725 16.2429 13.787 16.2408 13.8022C16.231 13.8561 16.2025 13.9003 16.1585 13.931C16.0712 13.9929 15.9458 13.9793 15.8596 13.9639C15.6538 13.9286 15.49 13.7729 15.3586 13.6436L15.2712 13.7866C15.1875 13.9234 15.0878 14.0865 15.0475 14.1519C15.2902 14.3727 15.5521 14.5076 15.8292 14.5462C16.1095 14.5883 16.387 14.525 16.5923 14.3732C16.7726 14.2399 16.8864 14.0461 16.9218 13.8127C16.9442 13.6825 16.9383 13.5654 16.9071 13.4602C17.0104 13.4466 17.1084 13.4314 17.2023 13.4156C17.1305 13.9205 17.063 14.3927 17.0504 14.4801H18.6047C18.6194 14.3742 18.6591 14.0959 18.6784 13.9607H17.7372L17.8009 13.5162H18.6546C18.6619 13.4676 18.6737 13.386 18.6862 13.2995L18.6863 13.2993L18.6864 13.2986C18.6975 13.2215 18.7092 13.1407 18.7187 13.0761C18.8346 13.0395 18.8935 13.0172 18.8935 13.0172C18.8935 13.0172 19.1816 12.9302 19.5563 12.793C19.5021 13.1695 19.337 14.3214 19.3144 14.4801H19.9865C20.0071 14.3389 20.2471 12.6729 20.2471 12.6729H20.7337C20.7473 12.5693 20.7943 12.2391 20.8161 12.0896C20.5632 12.2299 20.0868 12.45 19.4061 12.6729ZM16.3028 12.9332C16.3028 12.9332 16.4742 13.0193 16.4779 13.0208C16.5187 13.0388 16.5553 13.0595 16.5905 13.0798C16.2106 13.1108 15.8329 13.1287 15.4749 13.1367C15.4225 13.0455 15.3957 12.9374 15.3957 12.8116C15.3957 12.7757 15.3981 12.7383 15.4025 12.6995C15.4302 12.4723 15.5346 12.2836 15.7027 12.1556C15.9014 12.0047 16.1846 11.943 16.4791 11.9857C16.7166 12.0281 16.8761 12.0999 17.0413 12.2357C17.0097 12.2953 16.9421 12.4255 16.8801 12.5447C16.8487 12.6053 16.8186 12.6631 16.7956 12.7073C16.6519 12.5848 16.5214 12.51 16.4068 12.4923C16.3177 12.4765 16.2337 12.4932 16.1788 12.5383C16.1341 12.576 16.1096 12.6306 16.109 12.6934C16.109 12.8222 16.2412 12.8989 16.2985 12.9309L16.3004 12.9324L16.3028 12.9332Z" fill="#003F7E"/>
</svg>
