<svg width="24" height="24" viewBox="0 0 24 24" fill="none" xmlns="http://www.w3.org/2000/svg">
<path fill-rule="evenodd" clip-rule="evenodd" d="M22.9998 12.5L11.9998 5L0.999756 12.5L11.9998 20L22.9998 12.5ZM2.8179 12.5L11.9997 6.23953L21.1814 12.5L11.9997 18.7603L2.8179 12.5ZM11.9482 7.56624L13.6365 8.71741L10.6039 10.785L11.8373 11.626L13.0366 10.8083L12.4055 10.378L14.3534 9.04983L17.4156 11.1377L17.4309 11.1273L19.3552 12.4393L11.9166 17.5111L9.99241 16.1993L15.4679 12.466L14.7248 11.9593L9.30115 15.6571L4.69143 12.5141L11.9482 7.56624ZM9.17541 11.7589L8.06455 12.5161L9.298 13.3571L10.4089 12.5999L9.17541 11.7589ZM12.9247 10.3779L14.3533 9.40391L17.416 11.4923L17.4311 11.4817L18.8355 12.4393L11.9165 17.1568L10.5117 16.1992L15.9873 12.4661L12.9247 10.3779Z" fill="#22419B"/>
</svg>
