<svg width="24" height="24" viewBox="0 0 24 24" fill="none" xmlns="http://www.w3.org/2000/svg">
<path fill-rule="evenodd" clip-rule="evenodd" d="M14.857 12.4127L14.8801 12.39L15.3426 12.1741L15.3557 12.1635L15.3722 12.1672L15.3949 12.1425L15.4107 12.1377L15.4086 12.1249L15.6631 11.971L15.6933 11.9565V11.9476L15.7096 11.9509L15.7167 11.9388L15.74 11.9372L15.7389 11.9289L15.7722 11.9263L16.6007 11.4614L16.6164 11.4652L16.6398 11.4393L16.6555 11.4423L16.6708 11.4236L16.6863 11.4278L16.7004 11.4077L16.7175 11.4114L16.7236 11.3976L16.7465 11.3956V11.3887L16.7641 11.3914L16.7711 11.3787L16.8019 11.3766L16.8089 11.3648L16.8404 11.3641V11.3546L16.8542 11.3592V11.3515L16.9009 11.3458V11.3388L16.9249 11.3426V11.3346H16.9565V11.3289L16.9792 11.3307V11.3237L16.9931 11.3275V11.3199L17.0391 11.3212V11.3136L17.0555 11.3183V11.31L17.087 11.3163V11.308L17.1185 11.315V11.3074L17.1414 11.311V11.3047L17.178 11.311V11.3047L17.2196 11.311V11.3047L17.5595 11.3546V11.3609L17.6846 11.3907V11.3976L17.7212 11.405V11.4133L17.7603 11.4197V11.4272L17.7919 11.4324V11.4393L17.8152 11.4429V11.4505L17.8694 11.4682V11.4763L17.8859 11.4777V11.4853L17.9092 11.4884V11.496L17.9243 11.5004V11.5066L17.9483 11.5106V11.518L17.9633 11.522V11.5276L18.0033 11.5437V11.5496L18.05 11.5723V11.5798L18.063 11.5817V11.5906L18.1104 11.6126V11.619L18.1352 11.6315L18.1426 11.646L18.173 11.6595L18.1899 11.6841L18.2038 11.6865L18.2145 11.7027L18.229 11.7068L18.2429 11.7308L18.3526 11.8353L18.3694 11.8387V11.8524L18.3856 11.8557L18.3918 11.879L18.4462 11.9327V11.9453L18.4788 11.9728V11.9872L18.5104 12.0147V12.0283L18.5269 12.0386L18.5349 12.0605L18.5418 12.0638V12.0771L18.5578 12.0871L18.5648 12.1181L18.5811 12.1276V12.1413L18.5964 12.1598V12.1729L18.6121 12.185V12.1971L18.6222 12.2089L18.5944 12.1957V12.1824L18.4385 12.0954V12.0795L18.3273 12.0316V12.0241L18.2954 12.0191V12.0108L18.2707 12.0058V12.0002L18.2473 11.9958V11.9872L18.2159 11.9806L18.208 11.9659L18.1766 11.9597V11.9528L18.1293 11.944V11.9372L18.089 11.9289V11.9212L18.0341 11.9126V11.9036L17.9735 11.8929V11.884L17.9554 11.8828V11.8752L17.9318 11.8715L17.9175 11.8468L17.8941 11.8431L17.8915 11.8347L17.8599 11.8228V11.8072L17.7824 11.7704V11.7566L17.6871 11.7175V11.7027L17.6472 11.6953V11.6815L17.4726 11.6273V11.6132L17.2626 11.5647L17.2448 11.5709L17.1198 11.5471L17.1117 11.5597L17.0391 11.5471L17.0322 11.5597L16.9477 11.5508L16.9381 11.5634L16.9086 11.5578V11.5647L16.8933 11.5634V11.5709L16.8681 11.5647L16.7981 11.5742V11.59L16.7193 11.5962V11.6096L16.6493 11.619L16.6102 11.6398V11.6543L16.5875 11.6581L16.5786 11.67L16.5641 11.6684L16.5476 11.6865L16.5319 11.6847V11.6986L16.5154 11.6953L16.5186 11.7098L16.4958 11.7281L16.4695 11.7225V11.737L16.455 11.7344L16.4165 11.7843L16.4012 11.7819V11.7976L16.3855 11.7944L16.3621 11.8417L16.3464 11.8381L16.2839 11.9345L16.2682 11.9327V11.9528L16.2524 11.9503L16.2315 12.0272L16.215 12.0235L16.2075 12.0733L16.1918 12.0763V12.1055L16.1767 12.1093V12.1472L16.1684 12.1453V12.1729H16.1613L16.1548 12.243L16.1395 12.2391V12.3219L16.1232 12.3238L16.1262 12.5508L16.1431 12.5597V12.638L16.159 12.6499L16.1613 12.7005L16.1684 12.7011V12.7163L16.1767 12.7175L16.1842 12.7913L16.1999 12.7924V12.8305L16.2172 12.8405V12.8627L16.2258 12.8639V12.8935L16.2335 12.8949L16.2404 12.9249L16.2568 12.9276L16.2669 12.9798L16.2814 12.9906V13.0121L16.2903 13.0139L16.2998 13.1881L16.3072 13.1895L16.3086 13.2475L16.3155 13.2487L16.3167 13.286L16.3237 13.2871L16.325 13.3312L16.3332 13.3318V13.3604L16.3408 13.3622V13.3767L16.3483 13.3785L16.3584 13.4242L16.3646 13.4255L16.366 13.4544L16.3736 13.4557V13.477L16.3823 13.4782V13.5006L16.3899 13.5015V13.5231L16.3976 13.5245L16.4057 13.5692L16.4127 13.5718V13.5849L16.429 13.597L16.4958 13.7458L16.5104 13.749L16.5679 13.8669L16.5804 13.8708L16.5987 13.8879V13.9016L16.6164 13.9117V13.927L16.6289 13.9377V13.9515L16.6771 13.9964V14.0112L16.6863 14.0133L16.7262 14.0707L16.7407 14.0727L16.7666 14.1142L16.7799 14.1163L16.7981 14.1416L16.8359 14.1855L16.8524 14.1887L16.8757 14.2217L16.8933 14.2247L16.9009 14.2405L16.9249 14.2511V14.267L17.0266 14.3357L17.0594 14.3856L17.0669 14.387L17.0751 14.4247L17.0985 14.4438L17.1059 14.4732L17.1162 14.4753L17.1363 14.5068L17.1073 14.5334L17.0845 14.5433V14.5589L17.063 14.5678V14.5826L16.9174 14.6765V14.691L16.8883 14.6997V14.7053L16.872 14.7037L16.8649 14.7162L16.8562 14.7135L16.848 14.7283L16.8323 14.7244L16.8176 14.7434L16.8019 14.7408L16.7956 14.7523L16.7711 14.7553V14.7635L16.7572 14.7599L16.7489 14.7736L16.7262 14.7756V14.7825H16.694L16.6884 14.809L16.6555 14.8097L16.5951 14.8493V14.8625L16.5716 14.8619V14.8753L16.5419 14.891V14.9049L16.5029 14.9276V14.9403L16.4707 14.9509V14.9642L16.4638 14.9622L16.434 14.9933L16.4183 14.9897V15.0033L16.4032 15.0077V15.0158L16.3899 15.0122L16.3584 15.0424L16.3427 15.0411L16.3116 15.0708L16.2876 15.0726L16.2802 15.0867L16.2637 15.0828L16.2568 15.0955L16.2404 15.0936L16.2354 15.1062L16.2172 15.1017L16.2114 15.1257L16.1957 15.1245L16.188 15.137L16.159 15.1527L16.1357 15.1869L16.1123 15.1962V15.2107L16.0984 15.2147V15.2298L16.0807 15.2348L16.0821 15.2494L16.0658 15.2524V15.26L16.0493 15.2639V15.2777L16.0126 15.2991V15.3138L15.9603 15.3458L15.9515 15.3667L15.9286 15.3762V15.3844L15.9128 15.3804L15.86 15.4274L15.8443 15.4261L15.814 15.4563L15.7982 15.4527L15.7743 15.4759L15.7578 15.4746L15.7507 15.4867L15.7273 15.4891V15.4954L15.7117 15.4942L15.706 15.5061L15.6877 15.5031L15.6827 15.5161L15.6649 15.5131L15.6587 15.5268L15.6472 15.5244V15.5117L15.704 15.4942L15.7021 15.472L15.725 15.4563L15.7566 15.44V15.4323L15.7722 15.4342L15.7704 15.4134L15.7799 15.414L15.7962 15.4108L15.856 15.3049L15.8737 15.3081L15.911 15.1926L15.9275 15.1956L15.9345 15.1388L15.9476 15.1358V15.0917L15.9558 15.0936V15.0418L15.9641 15.0432L15.9614 14.9276L15.9697 14.9289L15.9432 14.6722L15.9286 14.6683L15.9186 14.5944L15.9041 14.5906L15.8928 14.5384L15.8782 14.5364L15.8625 14.4753L15.8462 14.4732L15.8303 14.4116L15.814 14.4021L15.8057 14.3345L15.7894 14.3244V14.2803L15.7818 14.2797V14.2658L15.7743 14.2632L15.7654 14.1887L15.7489 14.1863L15.74 14.1491L15.7332 14.1485V14.1175L15.7167 14.1086L15.7096 14.0624L15.6922 14.0532V14.0316L15.6764 14.0214V14.0057L15.6605 13.9964L15.6516 13.9578L15.6448 13.9565L15.6354 13.9346L15.6196 13.9308V13.9099L15.6043 13.9056L15.581 13.8518L15.5659 13.8506V13.8336L15.5496 13.8317L15.5236 13.7756L15.5085 13.7736V13.7573L15.4934 13.7552L15.4694 13.7155L15.4537 13.7131L15.4523 13.6972L15.4366 13.6942L15.4126 13.6538L15.3962 13.6513V13.6367L15.3426 13.6052V13.5899L15.3267 13.5869V13.5724L15.2782 13.5351L15.2618 13.5314L15.2467 13.4921L15.2308 13.4903L15.2139 13.4506L15.2075 13.4488L15.1892 13.4027L15.1747 13.3995V13.3785L15.159 13.3767V13.3604L15.1432 13.3584L15.0871 13.2676L15.0714 13.2638V13.2511L15.0561 13.2475V13.2335L15.0398 13.2292L15.0001 13.1881L14.9987 13.1718L14.983 13.1699V13.1547L14.9673 13.1514V13.1377L14.928 13.1156V13.1011L14.8978 13.089V13.0745L14.8484 13.052L14.8171 13.016L14.7849 12.9509L14.7678 12.9483L14.7287 12.8613L14.7142 12.8587V12.8456L14.6979 12.8405L14.6802 12.8021L14.6643 12.7995L14.6259 12.7351L14.6101 12.7314L14.6089 12.7175L14.5936 12.7137V12.7005L14.5779 12.6966V12.6821L14.561 12.6789V12.665L14.4984 12.6165V12.6026L14.4656 12.5824V12.5659V12.5653L14.5022 12.5541L14.5111 12.542L14.5255 12.5434L14.5338 12.5318L14.5489 12.5345L14.557 12.5212L14.5729 12.525L14.5811 12.5118L14.5962 12.515L14.6019 12.5023L14.6335 12.5003L14.6417 12.4884L14.6877 12.4827L14.6864 12.4746L14.7035 12.4777V12.4694L14.7488 12.4645V12.4576L14.7716 12.462V12.4538L14.7881 12.4576V12.45L14.8032 12.453L14.8121 12.4405L14.8266 12.4431L14.8423 12.431L14.841 12.4183L14.857 12.4127ZM17.9934 15.3093L17.9758 15.3055L17.9467 15.2645L17.931 15.2632L17.8582 15.178L17.8136 15.1332V15.1205L17.7827 15.0935L17.7814 15.0784L17.7725 15.0758L17.757 15.0525L17.7417 15.0486L17.7334 15.0335L17.6944 15.019V15.012L17.664 15.0007V14.9932L17.6319 14.9787L17.6243 14.9641L17.5796 14.9403V14.9338L17.5543 14.9244L17.5462 14.9067L17.517 14.894L17.5071 14.8789L17.493 14.8753L17.4842 14.8599L17.461 14.848L17.4465 14.8247L17.428 14.8203L17.4232 14.8044L17.4048 14.8022L17.3738 14.7603L17.36 14.7583L17.2963 14.682L17.2825 14.6802V14.6727L17.2591 14.6538V14.6399L17.1967 14.5773L17.1947 14.564L17.1783 14.5521L17.153 14.5187H17.1556L17.153 14.5042L17.1947 14.4613L17.2097 14.4645L17.2256 14.446L17.2413 14.4487L17.2502 14.4348L17.2728 14.4329V14.4247L17.2881 14.4285L17.2963 14.4152L17.3096 14.4166L17.3197 14.4051L17.3328 14.4076L17.3411 14.3944L17.367 14.3919L17.3877 14.3667L17.4035 14.3705L17.4123 14.3564L17.428 14.3611L17.4731 14.3187L17.4989 14.3149L17.4969 14.301L17.5442 14.2658L17.5749 14.2498L17.5832 14.2292L17.606 14.2203V14.2044L17.6302 14.1943V14.1798L17.6465 14.1756V14.1609L17.6616 14.1565V14.1426L17.6767 14.1376L17.6849 14.1174L17.6912 14.1187L17.7002 14.0916L17.7145 14.087L17.724 14.0595L17.7473 14.0582L17.7688 14.0329L17.7846 14.0367L17.8005 14.0157L17.8154 14.0196L17.8238 14.0057L17.8383 14.0095L17.8698 13.9779L17.8881 13.9817L17.941 13.9344L17.9557 13.937L17.9637 13.9238L17.9878 13.9137V13.8997L17.9954 13.901L18.027 13.8706L18.0419 13.874V13.8586L18.0578 13.8398L18.0867 13.8241V13.8101L18.1107 13.7981V13.7854L18.1355 13.7756V13.7603L18.1518 13.7566L18.15 13.7337L18.1669 13.7383L18.1658 13.7155L18.235 13.6707V13.6562L18.2976 13.639V13.6247L18.3449 13.6109V13.597L18.4155 13.5666V13.5527L18.4307 13.5541L18.4875 13.4859L18.5011 13.489V13.474L18.5171 13.4757L18.5152 13.4624L18.5323 13.4651L18.5632 13.4278V13.4057L18.5873 13.395L18.601 13.3545L18.6187 13.3584L18.6324 13.3099L18.6483 13.3129V13.2847L18.663 13.2865V13.2587L18.6793 13.2599L18.6862 13.2253L18.6932 13.2279L18.7025 13.178L18.7101 13.1798V13.1655L18.7164 13.1661V13.1377L18.724 13.1383V13.1251L18.7316 13.1262V13.0898L18.7473 13.0851V13.0334L18.7625 13.0302L18.7613 12.9653L18.7764 12.9616V12.8367L18.7846 12.8385V12.8081L18.7921 12.8128L18.7745 12.7135L18.7725 12.5892L18.7575 12.5824V12.5162L18.7417 12.5061L18.7397 12.4538L18.724 12.4441V12.4077L18.7164 12.4063V12.3924H18.7081V12.3615L18.7007 12.3603V12.3382L18.6905 12.3358V12.3237L18.6849 12.3219V12.2915L18.6755 12.2908L18.6679 12.2537L18.6521 12.2498V12.245L18.6534 12.2462L18.6679 12.2498L18.6773 12.2655L18.6905 12.2682L18.7081 12.2935L18.724 12.2954L18.7296 12.3118L18.7455 12.313L18.7764 12.3553L18.7921 12.3592L18.8565 12.4352L18.9038 12.4713L18.9272 12.5117L18.9429 12.515L18.9505 12.5369L18.9892 12.5736V12.5881L19.0289 12.6241V12.6368L19.0446 12.648V12.6631L19.0679 12.6795V12.6945L19.083 12.7042L19.0857 12.7191L19.1001 12.728L19.107 12.7508L19.1146 12.754L19.5934 13.2847L19.6091 13.2927V13.3084L19.625 13.3187L19.6327 13.3401L19.6401 13.3421L19.7492 13.4687L19.7651 13.4734L19.7802 13.4959L19.7967 13.4997L19.8219 13.5313L19.8358 13.5351L19.8609 13.5678L19.8736 13.571L19.9234 13.6298L20.0233 13.7337L20.0541 13.7756L20.1891 13.9143L20.1972 13.9294L20.228 13.942L20.2357 13.9578L20.2654 13.9717L20.275 13.9868L20.5795 14.2865L20.5954 14.2884L20.6186 14.3295L20.6262 14.3307V14.3439L20.6421 14.3552V14.3611L20.6579 14.3717V14.3856L20.6723 14.3969L20.6754 14.4102L20.6975 14.4285L20.8237 14.5597L20.8376 14.5622L20.8457 14.5773L20.8611 14.5813L20.8761 14.6045L20.892 14.6082L20.9071 14.6316L20.9235 14.6354L20.9468 14.6683L20.9625 14.6695L21.0249 14.7463L21.0414 14.749V14.7553L21.0642 14.7756V14.7893L21.1348 14.8599L21.2383 14.9566V14.9641L21.2532 14.966V14.9741L21.2667 14.9824L21.2983 14.9971L21.3386 15.0246L21.3456 15.0411L21.3708 15.0601L21.3859 15.0637L21.4104 15.0796L21.4154 15.0973L21.4389 15.1142L21.4554 15.1174L21.4705 15.1358L21.4787 15.1523L21.6036 15.274L21.7847 15.4569L21.8004 15.4746L21.8137 15.4759L21.8244 15.4909L22.2218 15.8596V15.8658L22.2458 15.8834L22.4806 16.1408L22.4957 16.1439L22.5273 16.1864L22.5423 16.188L22.55 16.2051L22.5979 16.2488L22.6289 16.284L22.6684 16.3326L22.7008 16.3748L22.7228 16.4077L22.7379 16.4316L22.7638 16.4783L22.7929 16.5194L22.8085 16.5516L22.8174 16.5673L22.8414 16.6148V16.6303V16.6367L22.8496 16.6373L22.8572 16.6664L22.8647 16.6682V16.6852V16.6898L22.8729 16.6915V16.7068L22.8806 16.708V16.7294L22.8883 16.73L22.8913 16.7529L22.8964 16.7535L22.8989 16.7755L22.904 16.7767L22.9549 16.9914V17.0777L22.9632 17.0791L22.9563 17.2633L22.9507 17.2619V17.3112L22.9437 17.31V17.3453H22.9362V17.3805L22.9274 17.3793L22.9291 17.4077L22.9221 17.4059V17.4342L22.9138 17.4336V17.4558L22.9058 17.453L22.8989 17.5017L22.8913 17.5005V17.515L22.8824 17.5136V17.5339H22.8742L22.8768 17.5472L22.8693 17.5464V17.5679L22.8611 17.5661L22.8472 17.6058L22.8378 17.6044V17.6191L22.8301 17.6159V17.6316L22.8226 17.6297V17.6455L22.8136 17.643L22.801 17.6829L22.7929 17.6821L22.7846 17.7016L22.7688 17.7054L22.7614 17.7333L22.7455 17.737V17.7501L22.7228 17.7604V17.7761L22.7008 17.7856V17.8007L22.6718 17.8158V17.8309L22.6018 17.8726L22.5405 17.9276L22.5258 17.9251L22.5021 17.9483L22.4856 17.9458L22.4725 17.9654L22.454 17.9623L22.4397 17.9786L22.4255 17.9768L22.4173 17.9893L22.3948 17.9926V18L22.3632 18.0012L22.3549 18.0133L22.3084 18.0195L22.3008 18.0318L22.2327 18.0405V18.0475L22.2011 18.0488V18.057L22.1771 18.0525V18.06L22.1644 18.057V18.0633L22.1387 18.06V18.0665L22.1151 18.0633V18.0689L22.0932 18.0651V18.0713L22.0704 18.0676V18.0751L22.0388 18.0689V18.0763L22.0072 18.0701V18.0783L21.9701 18.0701V18.0783C21.9701 18.0783 21.738 18.0481 21.6458 18.0256C21.5526 18.0012 21.3166 17.913 21.3166 17.913L21.283 17.9024L21.2717 17.8985V17.8903L21.2321 17.8764V17.8695L21.2029 17.8581V17.8498L21.1777 17.8462V17.8385L21.146 17.8266V17.8178L21.1145 17.8053L21.1068 17.7894L21.0597 17.7667V17.7604L20.8352 17.6185V17.6106L20.8043 17.6058V17.5981L20.7808 17.5933V17.5851L20.7575 17.5825V17.5748L20.7335 17.5641L20.3758 17.318L20.3593 17.3169L20.3278 17.2732L20.3114 17.2713L20.0931 17.1043V17.096L20.0647 17.0827V17.0764L20.0389 17.0727V17.0638L19.994 17.0405V17.0348L19.9777 17.0322V17.0242L19.9462 17.0115L19.9366 16.9951L19.8918 16.9724L19.8817 16.9571L19.8684 16.9553V16.9458L19.8452 16.9369L19.8368 16.9192L19.8219 16.9182L19.8041 16.8928L19.7909 16.8898L19.7821 16.8758L19.7676 16.8721L19.7335 16.8295L19.7184 16.828L19.4621 16.6166V16.609L19.4148 16.5854V16.5779L19.3999 16.5756V16.5687L19.384 16.5641V16.5579L19.3375 16.5363L19.3305 16.5194L19.2983 16.5081L19.29 16.4902L19.2596 16.4783L19.2451 16.4519L19.2281 16.4507L19.2205 16.4363L19.2042 16.4322L19.1877 16.4077C19.1877 16.4077 18.9235 16.1982 18.8212 16.1043C18.7686 16.0541 18.651 15.9473 18.5479 15.8537L18.5479 15.8536C18.4603 15.7741 18.3833 15.7042 18.3656 15.6866L18.3373 15.6594V15.6436L18.2976 15.6083L18.2899 15.5862L18.2748 15.5616L17.9934 15.3093ZM12.3756 13.6197V13.633L12.4387 13.6753V13.6884L12.5031 13.7289V13.7436L12.5258 13.749V13.7552L12.5341 13.7718L12.5572 13.7971L12.5732 13.8002V13.8223L12.5902 13.8247L12.6066 13.8646L12.6148 13.8658V13.8803L12.63 13.8911V13.9113L12.645 13.9151V13.929L12.6609 13.9319L12.6785 13.9719L12.6935 13.9749V13.9882L12.7101 13.9926L12.7479 14.0582L12.7648 14.0595V14.074L12.8274 14.1219L12.8292 14.137L12.8449 14.1402V14.1547L12.8854 14.1762V14.1901L12.9013 14.1939V14.2084L12.9555 14.2405L12.9638 14.2564L12.9871 14.2622L12.9952 14.2765L13.0104 14.2797V14.2866L13.0362 14.2992V14.3132L13.0646 14.3194V14.3339L13.1062 14.356L13.2174 14.4917V14.5062L13.2338 14.5095L13.3187 14.6047V14.6191L13.3364 14.621V14.6363L13.3618 14.6401V14.6558L13.3756 14.6588V14.6728L13.4786 14.7434L13.5106 14.7705V14.7776L13.5271 14.7807L13.5283 14.7869L13.5434 14.7907L13.5498 14.8046L13.5756 14.8097L13.5826 14.8267L13.606 14.8304V14.8386L13.637 14.8517V14.8652L13.6766 14.8885V14.9024L13.6944 14.9049V14.9188L13.7074 14.922L13.734 14.9486V14.9623L13.7485 14.9655V14.9808L13.7642 14.9826L13.8059 15.0261V15.0411L13.821 15.0432L13.9461 15.1553V15.1692L13.9713 15.173V15.1888L14.0103 15.2091V15.2153L14.0337 15.2222V15.2292L14.0652 15.2411V15.2564L14.0993 15.262V15.2765L14.1537 15.2942L14.1605 15.3094L14.192 15.3162V15.3291L14.2311 15.3371L14.2394 15.3541L14.2809 15.3599V15.3673L14.3038 15.3726V15.38L14.3346 15.3857V15.3919L14.3896 15.4042L14.3979 15.4185L14.4855 15.4362L14.4931 15.4527L14.5705 15.4652V15.4722L14.5939 15.4759V15.4841L14.6338 15.491V15.4987L14.6514 15.5025L14.6588 15.5182L14.722 15.5358V15.5504L15.0047 15.6331L15.107 15.6512V15.6438L15.1215 15.6476V15.64L15.2729 15.6526V15.6387L15.413 15.6285V15.6148L15.4349 15.6154L15.4287 15.619V15.6334L15.3896 15.6559L15.3447 15.6891V15.7024L15.3207 15.7062L15.2691 15.7543L15.2527 15.7509L15.2292 15.775L15.2141 15.7706L15.1895 15.7958L15.175 15.7926L15.1593 15.8103L15.1434 15.809L15.136 15.8209L15.1146 15.8248V15.8318L15.0982 15.8286L15.0907 15.8411L15.067 15.8451V15.8514L15.0224 15.8564L15.0129 15.8703H14.9813V15.8773L14.9675 15.8747V15.8834L14.9523 15.8791V15.8872L14.9056 15.893V15.8999L14.8843 15.8948V15.9011L14.8804 15.9212L14.864 15.9176L14.8269 15.9542L14.79 15.9492V15.9637L14.7454 15.9907L14.6771 16.0494L14.6588 16.0469L14.5978 16.0853L14.5062 16.1284L14.4836 16.1308V16.1384L14.4679 16.1347L14.4595 16.1483L14.4287 16.1497L14.4231 16.1618L14.4048 16.1604L14.3908 16.1711L14.3755 16.1674V16.1749L14.3598 16.1719V16.1799L14.3447 16.1763V16.1838L14.3296 16.1805V16.1882L14.3139 16.1852V16.192L14.2974 16.1902V16.1952L14.2507 16.2021V16.2091L14.2275 16.2051V16.2115L14.2142 16.2091V16.2166L14.1909 16.2115V16.2178L14.1687 16.2261V16.2337L14.1454 16.2298V16.2355L14.1227 16.2323V16.2387L14.0149 16.283L13.9839 16.3118L13.968 16.3106L13.937 16.3416L13.9209 16.337L13.907 16.3549L13.8925 16.3529L13.8754 16.3706L13.8603 16.3686L13.8526 16.3801L13.821 16.3824L13.8128 16.3958L13.79 16.399V16.4059L13.7586 16.4064L13.753 16.4205L13.7051 16.4247V16.4322L13.6906 16.4294V16.4369L13.6747 16.4336V16.4412L13.6589 16.4392V16.4463L13.6123 16.4507V16.4588L13.5909 16.4519V16.4602L13.5756 16.4588V16.4652L13.5498 16.4602L13.5511 16.4685L13.5357 16.4652V16.4733L13.5125 16.4685L13.5144 16.4747L13.4912 16.4703V16.4779L13.3422 16.5365L13.3277 16.5347L13.298 16.5635L13.2823 16.5599L13.2665 16.58L13.2508 16.5762L13.2347 16.5944L13.2192 16.5913L13.2134 16.6052L13.1983 16.6019L13.1812 16.621L13.151 16.6216L13.1435 16.6355L13.1131 16.6368L13.1062 16.6489L13.0595 16.6545L13.0521 16.6666L13.0286 16.6634L13.0193 16.6764L12.7662 16.7213L12.7354 16.7162V16.7226L12.7032 16.7175V16.7251L12.6722 16.7195V16.7251L12.6418 16.7195V16.7269L12.6041 16.7195V16.7269L12.5655 16.7195V16.7269L12.5031 16.7162V16.7226L12.2154 16.6764V16.6702L12.1239 16.6518V16.645L12.0609 16.6323L12.0589 16.6273L12.0146 16.6185V16.6102L11.9832 16.6052V16.5983L11.9442 16.5907V16.5832L11.8576 16.5533V16.5465L11.8344 16.5422V16.5347L11.7801 16.5184V16.5114L11.7636 16.5081V16.5005L11.741 16.4962V16.4884L11.7257 16.4868V16.4792L11.7038 16.4747V16.4685L11.6728 16.4551V16.4475L11.6494 16.4437V16.4369L11.6015 16.4141V16.4059L11.587 16.4022V16.3958L11.5554 16.3837L11.5479 16.3679L11.5006 16.3446L11.4924 16.3283L11.4613 16.3171V16.3082L11.438 16.2975L11.4305 16.2822L11.4148 16.2792L11.4066 16.2619L11.3913 16.2601L11.3756 16.2355L11.3605 16.2337L11.3446 16.2091L11.3289 16.2065L11.3132 16.1813L11.2896 16.1701L11.2203 16.0853L11.2034 16.0835L11.1466 16.009L11.1334 16.0052L11.0943 15.9554V15.9409L11.0784 15.9315V15.9245L11.0631 15.9138V15.8999L11.0399 15.8816V15.8671L11.0174 15.8494V15.833L11.0001 15.8248L10.9927 15.8014L10.9832 15.7996V15.7857L10.9681 15.775L10.9612 15.7543L10.9522 15.7515L10.9429 15.7207L10.9284 15.71V15.6968L10.9119 15.6792V15.6665L10.9051 15.6647V15.6495L10.8968 15.6482V15.6343L10.8892 15.6331L10.8735 15.5864H10.8658L10.8583 15.5485L10.8505 15.5465V15.5314H10.8418V15.5101L10.8332 15.5083L10.8261 15.4779H10.8173L10.8014 15.4042L10.7939 15.4028V15.38H10.7857V15.3585L10.7774 15.3554L10.7685 15.3043L10.7617 15.3031L10.7605 15.2747L10.7529 15.2723L10.7446 15.1855L10.7605 14.5831H10.7685V14.5636L10.7756 14.5642V14.5434L10.7839 14.5446L10.8052 14.455L10.8155 14.4569V14.4424L10.8211 14.4456V14.4235L10.8286 14.4247L10.8368 14.3971L10.8418 14.3989V14.3782L10.8519 14.3794L10.8602 14.351L10.8678 14.3534V14.3314L10.8821 14.3264V14.3138L10.8968 14.303V14.288L10.9051 14.2886V14.2745L10.9107 14.2759V14.2622L10.927 14.2576L10.934 14.2304L10.9503 14.2266V14.2115L10.9648 14.2066L10.9731 14.1813L10.9871 14.1762V14.1611L11.0097 14.1528V14.137L11.0331 14.1268V14.1124L11.0709 14.0917V14.0783L11.1012 14.0619V14.0468L11.1183 14.0369L11.141 14.0335V14.0196L11.1573 14.0147L11.1706 13.9964L11.209 13.9817V13.9687L11.2254 13.9562L11.2399 13.9598L11.2634 13.9346L11.2804 13.9377L11.3082 13.9075L11.3252 13.9105L11.3403 13.8917L11.3567 13.8954L11.3712 13.8772L11.3876 13.8791L11.3947 13.867L11.4249 13.8658L11.4324 13.8518L11.4557 13.8506V13.8426L11.4873 13.8413L11.4954 13.8279L11.5083 13.8317L11.5238 13.8196L11.5421 13.8223V13.8148L11.5554 13.8184V13.812L11.5727 13.814L11.5788 13.8013L11.6015 13.8058V13.7977L11.6329 13.7957V13.7895L11.657 13.7933V13.7874L11.6861 13.7856V13.778L11.7102 13.7832V13.7756L11.7257 13.778V13.7718L11.8266 13.7691V13.7613L11.8501 13.7655V13.7573L11.8735 13.7629V13.7552L11.9655 13.7573L11.9744 13.7459L11.9889 13.749L12.0028 13.7295L12.0193 13.7339L12.0337 13.7131L12.0495 13.717L12.0651 13.6973L12.0803 13.7019L12.0887 13.6884L12.1195 13.6878L12.1278 13.6753L12.1415 13.6773L12.1512 13.6634L12.1642 13.667L12.1725 13.654L12.1882 13.6576L12.2047 13.6463L12.2192 13.6487V13.6433L12.2355 13.6443V13.6381L12.2506 13.6405L12.3624 13.6115L12.3756 13.6197Z" fill="#ADCB53"/>
<path fill-rule="evenodd" clip-rule="evenodd" d="M5.20336 11.5647L5.21968 11.5325L5.22663 11.5331L5.23418 11.5065L5.2431 11.5079L5.24128 11.4928L5.24884 11.4953V11.4727L5.25639 11.4743L5.2715 11.4347L5.27966 11.4366V11.4216L5.28797 11.4234V11.4095L5.29538 11.4113L5.29356 11.397L5.30233 11.3976V11.3837L5.312 11.3861V11.371L5.32454 11.3597V11.3451L5.3401 11.3414L5.3466 11.3136L5.36413 11.3098L5.36941 11.2821L5.3877 11.2782L5.38498 11.2651L5.39268 11.2657V11.2512L5.409 11.2472V11.2329L5.4229 11.229V11.2146L5.44058 11.2101L5.43756 11.1951L5.45388 11.1904V11.1762L5.47775 11.1672V11.1526L5.50057 11.1425V11.127L5.54016 11.1067V11.0928L5.55481 11.089V11.0815L5.56856 11.0769V11.0626L5.76061 10.8272L5.76862 10.8278L5.78811 10.8039L5.79521 10.8059V10.7835L5.80352 10.7843L5.80216 10.7723L5.80972 10.7735V10.7507L5.81924 10.7527L5.83299 10.7122H5.84069V10.7004L5.84825 10.7015V10.6877L5.85626 10.6889V10.6744H5.862V10.6613L5.87152 10.6625V10.648L5.87847 10.6505V10.6353L5.88542 10.6371V10.6221L5.90174 10.6113V10.5961L5.91639 10.5924L5.92455 10.5653L5.9383 10.5615L5.94858 10.5345L5.96112 10.5292V10.5162L5.96988 10.5167V10.5037L5.9927 10.4928L5.99844 10.4638L6.02413 10.4562L6.02231 10.441L6.04558 10.4322L6.08547 10.3887V10.3736L6.10043 10.3774L6.11433 10.3527H6.12189V10.3396L6.12944 10.3402L6.15362 10.3168L6.16873 10.313V10.2971L6.17507 10.2985L6.19895 10.2745L6.21345 10.2781L6.41653 10.0569L6.41472 10.0442L6.42484 10.046L6.43104 10.0176L6.43859 10.0196V10.0058L6.4469 10.007V9.99175L6.45385 9.99311V9.97982L6.46216 9.98118V9.96607L6.47032 9.96894V9.95534H6.47727V9.93947L6.48362 9.9428V9.92874L6.49299 9.92935L6.49102 9.91545L6.50689 9.90276V9.88961L6.522 9.88598L6.53016 9.85803L6.55282 9.84866L6.55932 9.82146L6.57503 9.81769V9.80258L6.58259 9.80394V9.78989L6.5983 9.78565L6.60586 9.76465L6.62988 9.75528V9.74199L6.6533 9.73126L6.6595 9.70467L6.69863 9.6826V9.6681L6.73535 9.64679V9.63289L6.85003 9.5028L6.85623 9.50537V9.49146L6.86454 9.49343L6.87345 9.44417L6.88146 9.44674L6.87965 9.43087L6.88917 9.43223L6.89536 9.39174L6.90292 9.3931V9.37859L6.91123 9.38116V9.35956L6.91833 9.36016L6.92528 9.33372H6.93268V9.31302L6.94024 9.31543L6.95671 9.27524L6.96351 9.27615V9.26179L6.97121 9.26361V9.24925L6.97937 9.25001V9.23475L6.98632 9.23792V9.22342L6.99327 9.22462V9.21087L7.00143 9.21133V9.19743L7.00823 9.19939V9.18489L7.02485 9.17355V9.15905L7.03936 9.15527L7.05583 9.11417L7.06973 9.11054V9.09589L7.093 9.08712L7.10055 9.05932L7.11627 9.05494V9.04104L7.13954 9.03137V9.01701L7.14483 9.01777L7.15223 8.99692L7.16946 8.99299V8.97864L7.20088 8.96413V8.94947L7.23745 8.92877V8.91427L7.28369 8.88692V8.87256L7.37374 8.7325L7.38386 8.7331L7.3813 8.7192L7.39021 8.72192L7.40457 8.65921L7.41272 8.66118V8.64728L7.42043 8.64803V8.62718L7.42783 8.62899L7.43494 8.60195L7.4443 8.60255V8.58049L7.44929 8.5817L7.4641 8.54271L7.47271 8.54377V8.53063L7.48087 8.53259V8.51733H7.48979L7.48737 8.50343L7.4981 8.506L7.49477 8.49164L7.50505 8.49346L7.50308 8.47699L7.51245 8.4794L7.50988 8.4655L7.51804 8.46686V8.45115L7.53406 8.44103V8.42712L7.55022 8.42199L7.55793 8.39554L7.57108 8.39041L7.57863 8.36396L7.59495 8.36019V8.34568L7.61036 8.3413V8.3274L7.62593 8.32317V8.30912L7.63922 8.30473V8.28826L7.65751 8.28585L7.65176 8.26364L7.67201 8.2517V8.23916L7.70419 8.22344L7.71175 8.20244L7.7805 8.10846V8.0737L7.78805 8.07506V8.05376L7.79636 8.05542L7.79319 8.03412L7.80316 8.03532V8.00692L7.80936 8.00888V7.98607L7.82915 7.98984V7.96899L7.83807 7.97096L7.83656 7.94935H7.84472V7.9356L7.85242 7.93756L7.85983 7.89662L7.86814 7.89767L7.86602 7.88271L7.87509 7.88453V7.86307L7.88325 7.86504L7.88944 7.83723L7.89896 7.8398L7.897 7.82394L7.9047 7.8259V7.80565L7.91347 7.80762L7.92812 7.76788H7.93613V7.75337L7.94384 7.75443L7.94187 7.74129L7.95139 7.74189L7.96514 7.7017L7.98176 7.69641V7.6751L7.99612 7.67072L8.00428 7.64549L8.01803 7.64096V7.62524L8.03329 7.62267V7.60711L8.04961 7.60303V7.58868L8.06441 7.58475V7.5716L8.08119 7.56601V7.55256L8.08889 7.55332L8.09448 7.53307L8.11216 7.53005V7.51539L8.13347 7.50542V7.49016L8.172 7.46991V7.45616L8.28562 7.29086V7.27061H8.29318V7.24976L8.29952 7.25173V7.22151L8.30904 7.22271L8.30708 7.21002L8.31539 7.21168V7.18993L8.3234 7.19129V7.17723L8.3302 7.17784V7.15517L8.3379 7.15835V7.14309L8.34682 7.14565V7.12359L8.35241 7.12495L8.36011 7.09776L8.36797 7.10032V7.08582H8.37568V7.06436L8.39139 7.06059V7.04034L8.39849 7.04155V7.02719L8.40605 7.0278L8.40484 7.01374L8.42267 7.00951L8.42055 6.99501L8.43627 6.98428V6.96902L8.44382 6.97038V6.95633L8.45153 6.95905V6.94379L8.46724 6.94001L8.47465 6.91296L8.49051 6.90964V6.89468L8.50457 6.88969V6.87624L8.52194 6.87126L8.51952 6.8569L8.53539 6.85282V6.83847L8.5511 6.83394V6.81958L8.57498 6.80885V6.79677L8.59583 6.78468V6.77078L8.69555 6.63146L8.70356 6.63464V6.61318L8.71187 6.61439V6.59233L8.71746 6.59429V6.57299L8.72517 6.57344V6.547L8.73272 6.5476V6.53249L8.74103 6.53295L8.75675 6.47326L8.7637 6.47387V6.45982L8.77171 6.46118L8.7705 6.43972L8.77805 6.44168L8.78546 6.41509L8.79316 6.41585L8.80132 6.38291L8.80888 6.38366L8.82293 6.34317L8.83049 6.34377V6.32927L8.8397 6.33184L8.8388 6.31854L8.84801 6.31929L8.8468 6.30524L8.85375 6.30585V6.29195L8.87022 6.28001V6.2655L8.88473 6.26173L8.89153 6.23407L8.90679 6.2309L8.91495 6.20385L8.92946 6.19751L8.93837 6.17107L8.96088 6.16215L8.95983 6.14749L8.97494 6.14311V6.12861L8.99065 6.12498L8.9976 6.10398L9.02102 6.09521V6.0801L9.03794 6.07648L9.03598 6.06862L9.05124 6.0656V6.05049L9.08222 6.03462V6.02133L9.28711 5.74497V5.73061L9.29481 5.73303V5.71868L9.31128 5.71339V5.70024L9.32639 5.68815V5.6738L9.33259 5.67501V5.66171L9.34845 5.65733L9.35586 5.62953L9.36356 5.63119L9.37172 5.612L9.38623 5.60611L9.39439 5.57921L9.4166 5.56969V5.55594L9.43171 5.55141V5.53494L9.45513 5.52678V5.51228L9.48474 5.49792V5.4813L9.51617 5.46619V5.45365L9.58628 5.40892L9.58432 5.39427L9.602 5.39049L9.61529 5.371L9.63176 5.37478L9.69417 5.32174L9.70928 5.32416L9.73149 5.30028L9.74645 5.30346L9.77727 5.27309L9.79117 5.27565L9.80764 5.25798L9.82351 5.25979L9.83303 5.2471L9.85373 5.24483V5.23652L9.86899 5.2409L9.87715 5.22836L9.89347 5.23138L9.90117 5.21763L9.92505 5.21401V5.2069L9.97113 5.20192L9.97687 5.18983L9.99319 5.1924L10.0077 5.17971L10.0242 5.18288V5.17668L10.0393 5.1785V5.17291L10.0564 5.17472L10.0633 5.16142L10.0842 5.16581V5.15885L10.1157 5.15644V5.1507L10.139 5.15462V5.14752L10.1706 5.14571V5.13951L10.1939 5.14254V5.13619L10.2096 5.13951V5.13256L10.233 5.13619V5.12999L10.2463 5.13256V5.12365L10.3792 5.10038L10.3927 5.1034L10.4009 5.08905L10.4323 5.08829L10.4398 5.07515L10.4714 5.07379V5.06623L10.4867 5.0694V5.0626L10.5316 5.05611V5.05052L10.5548 5.05218V5.04659L10.587 5.04478V5.03843L10.6095 5.04281V5.03465L10.6261 5.03843V5.03027L10.6703 5.03284L10.6719 5.02589L10.6943 5.02951V5.02135L10.7176 5.02649V5.02015L10.7408 5.02392V5.01637L10.7718 5.02135V5.01501L10.8028 5.02015V5.0144L10.8416 5.02015V5.0144L11.4537 5.15644V5.16414L11.4777 5.16837V5.17472L11.5006 5.1785V5.18605L11.5238 5.19104V5.19799L11.5478 5.20192V5.20932L11.5637 5.21265V5.21884L11.587 5.22247V5.23138L11.6178 5.24347V5.25042L11.6411 5.2542V5.26326L11.6879 5.28578V5.29197L11.7189 5.30451L11.7271 5.32038L11.7586 5.33383L11.7662 5.34879L11.7819 5.35211L11.7901 5.36782L11.8052 5.371L11.8135 5.38656L11.828 5.38989L11.836 5.40499L11.8519 5.40756L11.8608 5.42388L11.8757 5.42645L11.8987 5.45924L11.915 5.46241L11.9452 5.50351L11.9619 5.50668V5.51228L11.9774 5.52406V5.53811L12.1024 5.68196L12.1252 5.7016V5.71475L12.151 5.73379V5.74754L12.164 5.75645L12.1725 5.78184H12.1814V5.79679L12.1958 5.80631L12.2059 5.82898L12.2115 5.83155V5.8453L12.2292 5.86313V5.87627L12.2375 5.87688V5.89199L12.245 5.89471V5.90831H12.2524V5.92296L12.2601 5.92614V5.93989L12.2653 5.94079L12.2834 5.98673L12.291 5.98929V6.00879L12.2999 6.01135V6.02526L12.3074 6.02722V6.04853L12.3145 6.04989V6.0656H12.3245V6.0869L12.3302 6.08902V6.10957L12.3396 6.11093L12.3484 6.16276L12.3555 6.16336L12.4362 6.40557L12.4417 6.4089L12.4526 6.43776L12.4594 6.43972L12.4677 6.48399L12.476 6.48505V6.49971L12.4836 6.50031L12.5088 6.59807L12.5138 6.59928V6.62195L12.5246 6.62255V6.64476L12.5321 6.64537V6.67241L12.5397 6.67574L12.5554 6.78468V7.37668L12.541 7.47384L12.5341 7.47188V7.49394L12.5258 7.49288V7.51418L12.4594 7.88574L12.4537 7.88453L12.4564 7.97096H12.4455L12.4481 8.03336L12.4399 8.03215V8.07431L12.4324 8.0737V8.11541L12.4233 8.1148V8.15016L12.4165 8.14895V8.176H12.4115L12.3283 8.43967L12.3213 8.4374L12.3132 8.4655L12.3056 8.46369V8.48515L12.2975 8.48318L12.2897 8.51023L12.2822 8.50842V8.52307L12.274 8.52096L12.2766 8.54271L12.2601 8.54755V8.56145L12.245 8.57218L12.1604 8.75712L12.1548 8.77541L12.1471 8.75712L12.1238 8.73869L12.1157 8.70726L12.0924 8.69064V8.67568L12.0765 8.66556V8.64984L12.0533 8.63156L12.0356 8.60708L12.028 8.60512V8.59122L11.9969 8.56417L11.9572 8.506L11.9422 8.50343L11.9339 8.4794H11.9256V8.45749L11.9168 8.45478V8.43271L11.9093 8.43226V8.41005L11.8999 8.40884V8.38678L11.8928 8.38557V8.36457L11.8854 8.36396V8.3413L11.8771 8.34054L11.862 8.2928H11.8519V8.27814L11.8463 8.27618V8.26258L11.836 8.26061V8.24671L11.828 8.24475V8.22964L11.821 8.22903V8.21453L11.8052 8.19745V8.18234L11.7901 8.17282L11.7743 8.12689L11.749 8.10785V8.09214L11.7175 8.0663L11.7101 8.04288L11.6935 8.03215V8.01765L11.6696 7.99921V7.98486L11.647 7.96657V7.95207L11.5906 7.89767L11.5824 7.87561L11.5673 7.87199V7.85809L11.5358 7.83723L11.4966 7.78662L11.4789 7.78375V7.7774L11.4394 7.74688V7.73373L11.4185 7.72059V7.71484L11.3933 7.70412L11.3857 7.68704L11.3383 7.66483L11.3303 7.6473L11.3068 7.63733V7.62962L11.2923 7.62766L11.2739 7.60938L11.2594 7.60711V7.59925L11.2449 7.59623L11.2349 7.58052L11.2203 7.57916V7.5716L11.2033 7.56843L11.1875 7.55075L11.1718 7.54758L11.1642 7.53201L11.0941 7.49651V7.48956L11.0784 7.48699V7.47943L11.0317 7.46432L10.8505 7.37971L10.7649 7.35583V7.35009L10.5139 7.29524L10.0449 7.3028L10.0196 7.29796V7.30476L9.97491 7.31232V7.3173L9.94408 7.32048L9.93577 7.33181L9.92082 7.32939V7.33634L9.90495 7.33377V7.34193L9.88908 7.33861L9.87322 7.35009L9.85826 7.34646L9.84995 7.36021L9.80386 7.36656L9.78755 7.38424L9.75536 7.38681L9.75038 7.39875L9.72454 7.40252V7.40811L9.70172 7.41204L9.70354 7.42579L9.66198 7.44105V7.44725L9.64869 7.44468L9.6097 7.4814L9.57873 7.48956V7.50542L9.55546 7.50663V7.52038L9.53944 7.52506V7.53307L9.52373 7.53005L9.48474 7.56465V7.58052L9.479 7.57916L9.46389 7.60575L9.44757 7.60182L9.43987 7.62146L9.43171 7.62071L9.4243 7.64096L9.40708 7.64549L9.40073 7.67238L9.37928 7.68266L9.36175 7.72059L9.34513 7.72693L9.34845 7.74189L9.33259 7.75337V7.76788H9.32503V7.78163L9.31702 7.78042V7.79372L9.30932 7.79115V7.80762L9.30176 7.80565V7.81956L9.29285 7.81774L9.27713 7.85809H9.26958L9.19388 8.08065L9.18179 8.22208L9.17257 8.22012L9.16864 8.38557H9.17424L9.18315 8.53259L9.19191 8.5344L9.20143 8.62204L9.20763 8.6234L9.20959 8.65181L9.21715 8.65287V8.68142L9.2241 8.68399L9.22667 8.71164L9.23301 8.71361L9.23558 8.73491L9.24238 8.73763V8.75894L9.24994 8.7609V8.78236H9.25689V8.80487L9.26641 8.80623V8.82844L9.27336 8.82905V8.85126L9.28152 8.85368V8.87438L9.28907 8.87574L9.30735 8.92243L9.3143 8.92318V8.93754H9.32065L9.32186 8.95265L9.33062 8.95521V8.96972L9.33833 8.97032V8.98619L9.34513 8.9874V9.00054L9.36175 9.01883V9.03273L9.37928 9.04331L9.39439 9.08879L9.4166 9.10722L9.42597 9.13804L9.44244 9.14892L9.44939 9.17159L9.45694 9.1728L9.4657 9.19622L9.48036 9.19939V9.21193L9.50363 9.23157V9.24532L9.52131 9.2562V9.27131L9.54458 9.2902V9.29776L9.55908 9.29912L9.57676 9.31725L9.58432 9.33946L9.61529 9.36711V9.38947L9.62345 9.39174V9.41199L9.63176 9.41456L9.63358 9.43465L9.64113 9.43737V9.45868L9.64869 9.45989V9.47439L9.65639 9.47575L9.6644 9.52048L9.67271 9.52229L9.69039 9.56853L9.69794 9.56973V9.58439L9.70565 9.58605V9.6001L9.71049 9.60071V9.61597L9.72061 9.61824V9.63093L9.73708 9.64997V9.66372L9.75158 9.67263L9.7679 9.71993L9.79117 9.73957L9.80069 9.76843L9.81641 9.7787L9.82351 9.80258L9.85569 9.82902V9.84488L9.89558 9.8807V9.89399L9.95164 9.94839L9.95919 9.9703L9.97491 9.97423L9.99878 10.0291L10.014 10.0966L10.0242 10.0978V10.1125L10.031 10.1143V10.1358L10.0393 10.1364L10.0564 10.1817L10.0633 10.1843V10.1982L10.0709 10.2001V10.2151L10.079 10.217V10.2309L10.0858 10.2323V10.2536L10.1023 10.2643L10.1118 10.294L10.1283 10.3041L10.1426 10.3502L10.1585 10.3601V10.3754L10.1744 10.3854L10.1837 10.4157L10.1978 10.4253V10.4404L10.2292 10.4662V10.4821L10.2626 10.5085V10.5242L10.286 10.5433L10.2955 10.5578L10.3113 10.5609V10.5685L10.3246 10.5792V10.5937L10.3498 10.6039L10.3585 10.6277L10.3731 10.6303L10.3814 10.6468L10.3888 10.6474V10.6625L10.4046 10.6734L10.4122 10.7163L10.4216 10.7191V10.7336L10.4305 10.735V10.7559L10.4374 10.7571L10.4537 10.8039L10.4607 10.8059V10.8202L10.469 10.8216V10.8367L10.477 10.8373V10.8511L10.4853 10.8518V10.8675L10.4929 10.8683V10.884L10.508 10.9009L10.5092 10.9154L10.5264 10.9261L10.5396 10.9722L10.5648 10.9899L10.5725 11.0133H10.5807V11.0277L10.6039 11.0479V11.0626L10.6369 11.0896V11.1041L10.6677 11.1307V11.1465L10.7238 11.2013L10.7307 11.2234L10.7466 11.2246V11.2398L10.7698 11.2512V11.2581L10.8108 11.2959V11.3098L10.826 11.3192V11.3332L10.8342 11.3346V11.3503L10.8416 11.3515V11.3728L10.8505 11.3748L10.8733 11.4329H10.8696L10.864 11.4734L10.8564 11.4727V11.487L10.8481 11.4852V11.5065L10.8399 11.5049V11.5275L10.8332 11.5262V11.5401L10.826 11.5376V11.5597L10.8171 11.5577L10.8108 11.5849L10.8028 11.5824V11.605L10.7958 11.6038L10.7792 11.6436L10.7718 11.6418V11.6575L10.7661 11.6543V11.6758L10.7511 11.6813V11.6946L10.7428 11.6936V11.7155L10.7271 11.7191V11.7336L10.72 11.7318V11.7451L10.7055 11.7584V11.7717L10.6898 11.7759L10.6746 11.8157L10.6586 11.8216V11.8347L10.6369 11.8448L10.6299 11.8714L10.6065 11.8826V11.8965L10.5906 11.9004L10.5825 11.9211L10.5743 11.9187V11.9337L10.551 11.944V11.9583L10.5139 11.9932L10.4265 12.1103L10.414 12.1327L10.4066 12.1313V12.1514L10.3995 12.149V12.178L10.3912 12.1774V12.1993L10.3851 12.197L10.3731 12.217L10.3655 12.2146V12.2372L10.3585 12.2353V12.2561L10.3498 12.2549V12.2688L10.3422 12.2675V12.2897L10.3345 12.2871V12.3024L10.327 12.2996L10.3067 12.3388L10.3011 12.3382L10.2916 12.366L10.286 12.3628V12.3773L10.2779 12.3761V12.3989L10.2702 12.3976L10.2546 12.4025L10.2588 12.4039L10.2608 12.4183L10.2499 12.4166L10.2374 12.4568L10.2217 12.4606L10.2058 12.5009L10.1895 12.506L10.1762 12.5434L10.1611 12.5508V12.5622L10.144 12.5666V12.5823L10.1296 12.5863V12.6006H10.1207L10.113 12.6203L10.0981 12.624V12.6367L10.076 12.6479V12.6632L10.0612 12.6664V12.6809L10.0449 12.686L10.0595 12.6946L10.0412 12.6978V12.7136L10.0121 12.7629V12.7773L9.95919 12.8081V12.8246L9.92837 12.8386L9.7679 13.0449L9.76035 13.0436L9.75158 13.0707L9.74645 13.0693V13.0847L9.73708 13.0829V13.1035L9.73149 13.1023L9.71502 13.1425L9.70686 13.142V13.1546L9.69991 13.1533V13.1685L9.6916 13.1662L9.69417 13.1805L9.68586 13.1798V13.1937L9.67014 13.204V13.2189L9.65443 13.2239V13.2442L9.64672 13.2423L9.63856 13.2638L9.62345 13.2664L9.61529 13.2948L9.602 13.2996V13.3135L9.59323 13.3118V13.327L9.57873 13.3312V13.3452L9.55546 13.3546L9.547 13.3824L9.52373 13.3919V13.4063L9.50227 13.4173V13.4311L9.48731 13.4348V13.4487L9.45513 13.4651V13.4782L9.4166 13.5006V13.5149L9.30176 13.6562L9.29285 13.6556V13.684L9.28544 13.6814V13.6972L9.27713 13.6958L9.24994 13.7552L9.24238 13.7526L9.23558 13.7881L9.22667 13.7868V13.8002L9.22108 13.7975V13.8195L9.21352 13.8183L9.19705 13.8587L9.1901 13.8569V13.8708L9.18179 13.8694V13.8839L9.17424 13.8833V13.9042L9.15852 13.9099V13.9294L9.14507 13.9345V13.9489L9.13706 13.9465V13.961L9.12875 13.9598V13.9747L9.12195 13.9729V13.9868L9.10624 13.9987V14.0133L9.09143 14.0176L9.08403 14.0442L9.06892 14.048L9.06061 14.0764L9.03794 14.0861L9.02903 14.1122L9.00908 14.1219L9.00093 14.1427L8.98506 14.1485L8.9763 14.1748L8.95272 14.1837V14.199L8.91616 14.2203V14.2342L8.87702 14.2544V14.2701L8.74844 14.4165L8.74103 14.4366L8.73272 14.4348V14.4644L8.72517 14.4619L8.71746 14.4891L8.71187 14.4871L8.70356 14.5296L8.69555 14.528L8.68845 14.5636L8.68029 14.561L8.67289 14.5868L8.66458 14.5855V14.6007L8.65582 14.5989V14.621L8.64871 14.619L8.63511 14.66L8.62741 14.6587V14.6726L8.6197 14.672L8.60338 14.7098L8.58752 14.7134V14.7299L8.57498 14.7408V14.7541L8.56697 14.7523V14.7678L8.55926 14.7672V14.7805L8.54551 14.7855L8.5372 14.812L8.52194 14.8165V14.8302L8.50457 14.8349V14.8493L8.49051 14.8525V14.8665L8.47465 14.8721V14.8857L8.45954 14.8904V14.9047L8.43627 14.9141L8.43763 14.9289L8.42267 14.9331V14.9486L8.39139 14.9641V14.978L8.35241 14.9993V15.012L8.3234 15.0292V15.0372L8.30708 15.041L8.17381 15.2077L8.16641 15.2202L8.15054 15.2606L8.14374 15.26L8.13755 15.2872L8.12984 15.286V15.3054L8.12153 15.3048V15.3201L8.11428 15.3181V15.3396L8.10536 15.339L8.07877 15.3762L8.07106 15.3736V15.3893L8.06441 15.3875V15.4082L8.04961 15.4133V15.4272L8.03329 15.438V15.4531L8.02634 15.4525V15.465L8.01803 15.4638V15.4777L8.00307 15.4902V15.5041L7.98871 15.5082L7.9798 15.5351L7.96514 15.5403V15.554L7.95018 15.5585V15.5718L7.93432 15.5761L7.92676 15.6045L7.90213 15.6147L7.897 15.641L7.87373 15.6512L7.83414 15.6941V15.7086L7.82145 15.7048L7.80528 15.7312L7.79757 15.73V15.7426L7.78216 15.7477V15.7551L7.76569 15.759V15.7748L7.68349 15.8302V15.8431L7.66702 15.8474L7.6297 15.8834L7.61399 15.8814L7.60386 15.8929L7.35969 16.12L7.35228 16.1175L7.3547 16.1314L7.34669 16.1308V16.144L7.33143 16.1566V16.1709L7.31511 16.1749L7.30696 16.2019L7.29245 16.2065L7.28369 16.2335L7.26087 16.243L7.25513 16.2702L7.23186 16.2809L7.22415 16.3081L7.20224 16.3169V16.3314L7.17882 16.3426V16.356L7.14709 16.3711L7.1415 16.3918L7.13274 16.3905V16.4045L7.11763 16.4008L6.96351 16.5452L6.94794 16.5416L6.94024 16.5532L6.87965 16.5856V16.6001L6.87209 16.5983L6.84066 16.614V16.6215L6.82737 16.6183V16.6316L6.79458 16.6412V16.6487L6.78022 16.6449L6.77252 16.6576L6.76421 16.6569L6.75605 16.6702L6.60208 16.8196L6.58878 16.8241L6.58002 16.8512L6.56551 16.8539V16.8702L6.54904 16.874V16.8884L6.53408 16.8923V16.9062L6.52003 16.9118V16.9245L6.50417 16.9295V16.944L6.4809 16.9527V16.9686L6.46579 16.9724V16.9863L6.45204 16.9893V16.997L6.43617 17.0026V17.0159L6.40535 17.0324V17.0469L6.35231 17.079V17.0928L6.29807 17.1263L6.28976 17.146L6.27661 17.144L6.26891 17.1635L6.24503 17.1673L6.17507 17.2102L5.97547 17.4077L5.94661 17.4462V17.4601L5.93029 17.4643L5.92334 17.4917L5.90748 17.4961L5.90884 17.5106L5.89297 17.515L5.87847 17.5339V17.5472L5.862 17.5515L5.85066 17.5529L5.83495 17.5559V17.5698L5.81924 17.5748V17.5887L5.79521 17.6L5.75789 17.6425V17.6562L5.74338 17.6525L5.73462 17.6733L5.71196 17.6828V17.6979L5.67282 17.7193L5.52761 17.8279V17.841L5.51447 17.8525L5.49664 17.85L5.48289 17.8684L5.40462 17.9042L5.40719 17.9175L5.38377 17.9211L5.33647 17.9408L5.32061 17.959L5.30565 17.9566L5.28268 17.9668L5.27483 17.9799L5.27014 17.99L5.26455 18.0032L5.21031 18.0153V18.0298L5.18069 18.0311V18.0381L5.16483 18.0347L5.15727 18.0474L5.1402 18.0443V18.0526L5.12569 18.048L5.10998 18.053L4.64112 18.3586L4.62797 18.3552L4.60213 18.3805L4.58899 18.3774V18.3832L4.56557 18.3951L4.55741 18.4071L4.54094 18.4039L4.5358 18.4184L4.51812 18.4134L4.50226 18.4323L4.4873 18.4299L4.47279 18.4482L4.43985 18.4494L4.42671 18.4684L4.41099 18.4663L4.4045 18.4778L4.37171 18.4797L4.3634 18.4923L4.33454 18.4941L4.32698 18.506L4.31066 18.5036L4.2954 18.5169L4.28044 18.5124V18.5193L4.26458 18.5169L4.25687 18.5302L4.22469 18.5313L4.22726 18.5384L4.21154 18.5358V18.5414L4.16485 18.5483V18.5571L4.14158 18.5501V18.5585L4.12572 18.5571V18.5624L4.08024 18.568V18.5755L4.0343 18.573V18.5805L4.01723 18.5775V18.5857L3.94772 18.587V18.5926L3.93261 18.5906V18.5976L3.90315 18.5926V18.5982L3.87973 18.5944V18.6027L3.85631 18.5976V18.6059L3.83244 18.602V18.6077L3.80327 18.6027L3.67272 18.6133L3.59506 18.6065V18.6133L3.13013 18.5483V18.5402L2.96543 18.5036L2.65432 18.3894V18.3812L2.55354 18.3421V18.3353L2.53963 18.332V18.3238L2.51621 18.3206V18.3131L2.46816 18.2974V18.2904L2.45185 18.2877V18.2815L2.42858 18.2751V18.269L2.39881 18.2555V18.2493L2.38385 18.2461V18.2386L2.35983 18.235V18.2286L2.3284 18.214V18.207L2.31374 18.2046V18.1988L2.28911 18.1931L2.28216 18.1775L2.26388 18.1756V18.1674L2.25058 18.1648V18.1571L2.23426 18.1553V18.1472L2.21915 18.144L2.20344 18.1281L2.18818 18.1243L2.18062 18.1092L2.13333 18.0852L2.12502 18.0703L2.09419 18.0583L2.07893 18.0337L2.06322 18.0304L2.0531 18.0148L2.03935 18.0115L2.03738 18.0038L2.01593 17.9933L2.00837 17.9769L1.99266 17.9743L1.97739 17.9503L1.96153 17.9471L1.95397 17.932L1.9372 17.9282L1.92179 17.9048L1.90683 17.9024L1.87525 17.8601L1.86014 17.8581L1.82025 17.8076L1.80469 17.8046L1.7036 17.6866L1.6412 17.6242V17.6097L1.58514 17.5559V17.5426L1.55522 17.515V17.5017L1.5244 17.4731L1.52198 17.4601L1.50597 17.4492V17.4355L1.48345 17.4171V17.4033L1.46638 17.393L1.45882 17.3705L1.45187 17.3686V17.354L1.4354 17.3439V17.3308L1.42029 17.3179V17.3054L1.40654 17.2947L1.38947 17.2487L1.373 17.24L1.35789 17.1945L1.34142 17.1838L1.33266 17.1547L1.3251 17.1528V17.1384L1.31755 17.1365V17.1224L1.30878 17.1212V17.1067L1.30304 17.1055L1.30047 17.0902L1.29352 17.0886V17.0683L1.2772 17.058V17.0381L1.26965 17.0348L1.26194 17.0059L1.25424 17.0052V16.9825H1.24623L1.23867 16.9515L1.23097 16.9497L1.22145 16.9062L1.21268 16.9035V16.8897L1.20513 16.8884V16.8595L1.19757 16.8575V16.8442L1.19123 16.843V16.8152L1.18186 16.8128V16.7906L1.1743 16.7892V16.7673L1.1666 16.7667L1.15663 16.7155L1.15164 16.7143L1.14212 16.6487L1.13321 16.6475V16.6183L1.12746 16.6171V16.5869H1.1181V16.5452L1.10994 16.5426L1.10163 16.441L1.09347 16.4391L1.07397 16.1654L1.08229 16.1673L1.09347 15.9055L1.10163 15.9074V15.8638L1.10994 15.8657V15.8228L1.1181 15.8246L1.12323 15.761L1.13139 15.763L1.12958 15.7276L1.13834 15.729L1.13713 15.701H1.1459L1.15345 15.6525L1.1604 15.6557V15.6333L1.16796 15.6342V15.612L1.17627 15.6147V15.5862H1.18367L1.18186 15.5723L1.19123 15.5736L1.20513 15.5117L1.21268 15.5131L1.22145 15.4866L1.22855 15.489L1.23489 15.4455L1.24441 15.4494L1.26013 15.4082L1.26829 15.4108V15.3957L1.27327 15.3975L1.28083 15.3636L1.29669 15.3583L1.3041 15.3257L1.32132 15.3201L1.31891 15.3054L1.33462 15.2953V15.279L1.34142 15.2816V15.2675L1.34973 15.2689V15.2544L1.36363 15.2517L1.38191 15.2089L1.3869 15.2107L1.39446 15.1914L1.41017 15.188V15.1729L1.42664 15.169V15.1553L1.44991 15.1445L1.45746 15.1161L1.48088 15.1093V15.0935L1.50234 15.0833V15.0688L1.53951 15.0481V15.0335L1.57819 15.0116V14.9983L1.60766 14.9824V14.9667L1.65691 14.9486V14.9337L1.70935 14.9016L1.7175 14.8884L1.73261 14.8904L1.74908 14.8795L1.74712 14.8651L1.82403 14.8278V14.8153L1.88538 14.7907L1.89233 14.778L1.90864 14.7805L1.92451 14.7621L1.93947 14.7666L1.95533 14.7464L1.97105 14.749L1.97739 14.737L2.00021 14.7332V14.727L2.01593 14.7299L2.02424 14.716L2.03935 14.7207L2.0475 14.7074L2.06322 14.7098L2.26131 14.5749L2.3763 14.4549H2.38566L2.43794 14.402L2.4455 14.4026V14.3886L2.47572 14.3659L2.49869 14.3633L2.55354 14.3168L2.77625 14.1571V14.1438L2.78895 14.1257L2.80587 14.1142V14.0991L2.81343 14.0997V14.0861L2.82854 14.082V14.0689L2.8444 14.0556L2.84244 14.0423L2.85755 14.0385V14.0234L2.87386 14.0196V14.0051L2.88928 13.9868L2.90499 13.9817L2.94337 13.9401L2.9881 13.891V13.8771L3.00441 13.8789L3.04551 13.8587L3.05125 13.8594V13.8461L3.08087 13.8291V13.8221L3.09613 13.8183V13.805L3.14327 13.7762L3.23288 13.6808L3.24814 13.6814L3.29619 13.6403L3.3113 13.6443L3.32444 13.6032L3.34016 13.6069L3.37174 13.5761L3.38745 13.5793L3.395 13.5666L3.41087 13.5678L3.42538 13.5495L3.49035 13.5048L3.505 13.4941L3.51437 13.4889L3.57678 13.4228L3.58237 13.395L3.58992 13.3962L3.59823 13.3767L3.61349 13.3729V13.3584L3.628 13.3546V13.3401L3.66139 13.323L3.66698 13.296L3.68164 13.2922L3.68965 13.2732L3.72939 13.2511V13.2372L3.76671 13.2158V13.2012L3.84241 13.1514L3.84996 13.1319L4.14325 12.8297L4.15926 12.8259L4.17437 12.7862L4.19084 12.7816L4.20535 12.7401L4.21154 12.7421L4.2197 12.7218L4.23557 12.7182L4.24252 12.6908L4.26579 12.6809L4.27334 12.6543L4.2954 12.6437V12.6292L4.31882 12.6203V12.6046L4.33454 12.6006V12.5863L4.37367 12.5653L4.37171 12.5514L4.41099 12.5295V12.5162L4.74281 12.0455L4.75233 12.0304L4.76804 12.0272L4.77635 11.9974L4.79191 11.9958L4.79962 11.9666L4.81533 11.9634V11.9483L4.83105 11.944L4.82908 11.9293L4.84435 11.9263V11.9112L4.86006 11.9074V11.8941L4.88227 11.8826V11.8701L4.90614 11.858L4.90494 11.8448L4.94468 11.8246V11.8081L4.98245 11.7886V11.7743L5.01463 11.7584L5.01282 11.7433L5.03005 11.7318L5.0444 11.7357" fill="#00B0A9"/>
<path fill-rule="evenodd" clip-rule="evenodd" d="M10.8821 11.4013L10.9049 11.3193L10.9188 11.3226L10.9427 11.2274L10.9572 11.2205L10.9647 11.2022L10.973 11.2028L10.9812 11.1832L10.9963 11.1842L11.028 11.1337L11.0438 11.1371L11.0728 11.0771L11.0885 11.0803L11.1193 11.0135L11.1352 11.0166L11.1667 10.9641V10.9422L11.1825 10.9396L11.1807 10.9183L11.195 10.9131L11.2033 10.8778L11.2116 10.881V10.8657L11.2272 10.8615L11.2349 10.819L11.2505 10.8222L11.2582 10.7737L11.2721 10.7687L11.2804 10.7123L11.2955 10.7081L11.303 10.6513L11.3195 10.6475V10.6114L11.3251 10.6134V10.5851L11.3428 10.5794L11.3484 10.4941L11.3641 10.4898L11.3618 10.4323L11.3694 10.4336V10.4121L11.3781 10.4141L11.3857 10.3799L11.3932 10.3813L11.409 10.3761L11.4165 10.3421L11.4393 10.3397L11.438 10.3187L11.4537 10.3201L11.4632 10.2852L11.4872 10.2829L11.4845 10.2601L11.5005 10.2645L11.5162 10.2172L11.5315 10.2199L11.5409 10.178L11.5554 10.1812L11.609 10.0608L11.6234 10.0637L11.6317 10.0223L11.6469 10.0247L11.6551 9.97603L11.6696 9.97996L11.6772 9.91559L11.6915 9.91922L11.7149 9.82161L11.7231 9.82281L11.7307 9.7515L11.7452 9.74893L11.751 9.64935L11.768 9.64497V9.61611H11.7763L11.7977 9.57063L11.8135 9.57365L11.836 9.55658L11.8757 9.47725L11.8892 9.48012L11.9207 9.41213L11.9364 9.41575L12.1484 8.81529L12.1567 8.81604L12.1629 8.80078H12.1703V8.81604L12.1787 8.81665V8.83236L12.1862 8.83297V8.84687L12.1932 8.84823V8.86258L12.2019 8.86454V8.87905L12.2095 8.88026V8.89537L12.2172 8.89673V8.91048L12.2249 8.91123L12.2412 8.95656L12.2495 8.95913L12.3913 9.20512V9.22159L12.4221 9.24803V9.26194L12.4455 9.27961V9.29412L12.4691 9.31316V9.32887L12.4846 9.33779V9.35214L12.5013 9.36226L12.5088 9.38569H12.5162V9.40079L12.534 9.41651V9.43101L12.541 9.43237V9.44869L12.5572 9.45761L12.5655 9.48783L12.5712 9.48979L12.5881 9.53588L12.5971 9.53678V9.5593H12.604L12.6114 9.58876L12.6197 9.59073L12.7548 9.77884V9.7932L12.7927 9.82916V9.84306L12.8246 9.87071V9.88476L12.8482 9.9029V9.91695L12.8645 9.92753V9.94294L12.8873 9.96107V9.97603L12.903 9.98494L12.9106 10.0159L12.9269 10.0254L12.9422 10.0708L12.9585 10.0823L12.9656 10.1105L12.9731 10.1126L12.9831 10.1427L12.9907 10.1434V10.1654H12.9988L13.007 10.1969L13.0141 10.1983L13.0216 10.2355L13.0306 10.2362L13.1629 10.4254V10.4401L13.2021 10.4759L13.2033 10.489L13.2267 10.5087V10.5226L13.2481 10.5416V10.5559L13.2646 10.5649L13.2747 10.5881L13.2823 10.5901V10.6032L13.298 10.6134L13.3056 10.6442L13.3187 10.6531L13.3364 10.7005L13.3441 10.701V10.7144L13.3522 10.7164V10.7314H13.3618V10.7472L13.3686 10.7486L13.3832 10.7938L13.3918 10.7951V10.8166L13.3995 10.8186V10.8323L13.4065 10.8335L13.4091 10.855L13.4165 10.8557V10.8713L13.4248 10.8734V10.893L13.4323 10.8955V10.9156L13.4406 10.9183V10.9396L13.4476 10.9408L13.4949 11.0135L13.534 11.0707L13.5416 11.0727L13.5497 11.0955L13.5732 11.1146V11.1271L13.5908 11.139V11.1523L13.6121 11.1712V11.1842L13.628 11.1952L13.6368 11.2185H13.6436L13.6532 11.2493L13.6689 11.2614V11.274L13.6847 11.2916V11.3062L13.693 11.3068V11.3213L13.6981 11.3226L13.6998 11.3377L13.7156 11.3466V11.3681L13.7233 11.3692V11.3838L13.7314 11.3862L13.7391 11.4154L13.7466 11.4171V11.4387L13.7549 11.4394V11.4539L13.7623 11.455L13.7718 11.4929H13.78V11.515L13.7882 11.5169L13.8809 11.6842L13.9119 11.7099V11.7262L13.937 11.744V11.7585L13.9521 11.7681V11.782L14.0067 11.8716L14.0222 11.8809V11.896L14.0399 11.9137V11.9264L14.0476 11.929V11.9427L14.0558 11.9441V11.9598H14.0633V11.973L14.0703 11.9743L14.0866 12.0204L14.0949 12.0236L14.2274 12.2115L14.2431 12.2368L14.2507 12.2374V12.2513L14.2847 12.2773V12.2936L14.3055 12.3119V12.3258L14.3308 12.3448V12.358L14.346 12.3699V12.3832L14.3623 12.3927L14.3705 12.416L14.3782 12.4173L14.3856 12.4482L14.4015 12.4577L14.4084 12.4879L14.4482 12.5654H14.4595L14.4575 12.573L14.4343 12.5825V12.5893L14.4211 12.5882V12.5958L14.4027 12.5914L14.3895 12.611L14.38 12.6083V12.6242L14.3744 12.623L14.3635 12.6343L14.3503 12.6323L14.3421 12.6526L14.3187 12.6703L14.3093 12.6685V12.6765L14.2954 12.6727V12.6796L14.2721 12.691V12.7043L14.2576 12.7094V12.7239L14.2254 12.7396L14.1863 12.7686V12.7827L14.1782 12.7818V12.7958L14.1553 12.8072V12.8129L14.139 12.8109L14.1315 12.8247L14.1005 12.8261L14.0222 12.8475L13.9983 12.864V12.8714L13.9837 12.8684V12.8753L13.968 12.8721L13.9521 12.8909L13.937 12.8892L13.9282 12.9012L13.9119 12.8998L13.8658 12.9397L13.8513 12.9385L13.8273 12.9631L13.8034 12.9655L13.7951 12.9856L13.7718 12.9888V13.0028L13.7484 13.021L13.7428 13.0186V13.0261L13.7176 13.0297L13.712 13.0406L13.6866 13.0373L13.6804 13.0521L13.6646 13.048V13.0563L13.6476 13.0532V13.0589L13.6161 13.0539V13.0603L13.5685 13.0666V13.0746L13.5452 13.0695L13.5466 13.0784L13.5321 13.0746L13.5227 13.0872L13.4911 13.0891L13.4091 13.1426L13.3018 13.1938L13.1245 13.2815L13.1005 13.2973L13.007 13.3826L12.9851 13.399L12.9144 13.4078L12.8994 13.4267L12.8273 13.435L12.821 13.4489H12.7888L12.7743 13.469L12.7586 13.4666L12.751 13.4784L12.7169 13.4811L12.7031 13.4994L12.6721 13.5151L12.6564 13.5119V13.5262L12.6418 13.5232L12.6253 13.5435L12.6076 13.5397L12.6103 13.5466L12.5939 13.5435V13.5504L12.5768 13.5568L12.5788 13.5693L12.5629 13.5749V13.5814L12.5321 13.5837L12.5245 13.5945L12.3636 13.6089L12.2728 13.4942L12.2495 13.4758L12.2412 13.4545L12.2084 13.4261V13.4129L12.1862 13.3921V13.3807L12.1604 13.3605V13.3458L12.1451 13.336V13.3208L12.1288 13.312L12.1212 13.2828L12.1061 13.2709L12.098 13.2419L12.091 13.2411L12.0827 13.2111L12.0752 13.2077V13.1944L12.0664 13.1925L12.0532 13.1762L12.0475 13.1755L11.9754 13.0784L11.918 13.0098V13.0003L11.8854 12.9743V12.9617L11.8091 12.8817V12.8676L11.79 12.8418V12.8274L11.7743 12.8177V12.804L11.7559 12.7925V12.7807L11.7409 12.7686V12.7553L11.7257 12.7458V12.7315L11.71 12.7206V12.7056L11.7018 12.7049L11.6935 12.6747L11.6785 12.6651L11.6696 12.6343H11.6627L11.6329 12.5864L11.6247 12.5844V12.5624L11.6197 12.5618L11.6102 12.5308L11.6015 12.5296L11.4537 12.3238V12.3094L11.4146 12.2753V12.2602L11.3913 12.2413V12.2266L11.3674 12.209V12.1945L11.3521 12.1855V12.1692L11.3364 12.1603L11.3263 12.137L11.3207 12.1351L11.303 12.0885L11.2885 12.0796L11.1314 11.8021L11.1219 11.7774L11.0595 11.7176V11.7028L11.028 11.6759V11.662L10.9963 11.6349V11.6191L10.9812 11.6091L10.973 11.5857H10.9647V11.5718L10.9502 11.5612V11.5472L10.9339 11.537V11.5221L10.9188 11.5113V11.4991L10.8789 11.4418V11.4367L10.8834 11.4381L10.8821 11.4013Z" fill="#B9C125"/>
<path fill-rule="evenodd" clip-rule="evenodd" d="M10.8417 11.373V11.3515L10.8341 11.3505V11.3346L10.826 11.3332V11.3193L10.8108 11.31V11.2959L10.7697 11.2581V11.2512L10.7465 11.2398V11.2247L10.7308 11.2235L10.7238 11.2013L10.6678 11.1466V11.1308L10.6369 11.1043V11.0898L10.604 11.0626V11.0481L10.5806 11.0279V11.0133H10.5726L10.5649 10.9901L10.5396 10.9724L10.5263 10.9263L10.5093 10.9156L10.508 10.9011L10.4928 10.8842V10.8683L10.4854 10.8675V10.852L10.4771 10.8512V10.8373L10.4689 10.8367V10.8218L10.4607 10.8204V10.8059L10.4538 10.8039L10.4373 10.7572L10.4304 10.756V10.735L10.4216 10.7338V10.7193L10.4121 10.7163L10.3245 10.5939V10.5792L10.3112 10.5687V10.5611L10.2956 10.5578L10.2859 10.5434L10.2627 10.5244V10.5085L10.2291 10.4821V10.4664L10.1977 10.4404V10.4254L10.1838 10.4158L10.1744 10.3855L10.1586 10.3754V10.3603L10.1427 10.3502L10.1282 10.3042L10.1119 10.294L10.1022 10.2644L10.0859 10.2538V10.2323L10.0789 10.231V10.2172L10.0708 10.2152V10.2001L10.0634 10.1983V10.1844L10.0564 10.1817L10.0392 10.1364L10.031 10.1358V10.1145L10.0242 10.1125V10.098L10.0139 10.0968L9.89549 9.89416V9.88086L9.85575 9.84505V9.82904L9.82356 9.80259L9.81646 9.77872L9.8006 9.7686L9.79123 9.73959L9.76796 9.72009L9.75149 9.67265L9.73698 9.66373V9.65014L9.72067 9.6311V9.6184L9.71054 9.61599V9.60073L9.70556 9.60027V9.58622L9.698 9.58441V9.56975L9.69045 9.56869L9.67277 9.52246L9.66446 9.52049L9.6563 9.47577L9.64859 9.47456L9.64119 9.45869L9.63363 9.43482L9.58437 9.33963L9.55914 9.29913L9.54464 9.29792V9.29037L9.52137 9.27148V9.25622L9.50369 9.24549V9.23159L9.48027 9.21195V9.19941L9.46576 9.19639L9.457 9.17281L9.44929 9.17176L9.44234 9.14894L9.42602 9.13821L9.4165 9.10739L9.39444 9.08895L9.37918 9.04347L9.36165 9.0329V9.019L9.34518 9.00071V8.98757L9.33839 8.98621V8.97049L9.33068 8.96989V8.95538L9.32176 8.95266L9.32071 8.9377H9.31436V8.9232L9.30741 8.92244L9.28913 8.8759L9.28157 8.87454V8.85369L9.27326 8.85143V8.82906L9.26631 8.82846V8.8064L9.25694 8.80504V8.78237H9.24999V8.76107L9.24244 8.75895V8.7378L9.23549 8.73508L9.23307 8.71362L9.22672 8.71181L9.22415 8.68401L9.2172 8.68159V8.65303L9.2095 8.65182L9.20768 8.62357L9.20149 8.62221L9.19197 8.53457L9.18306 8.53261L9.17429 8.38559H9.1687L9.17248 8.22029L9.18185 8.2221L9.19393 8.08082L9.26964 7.8581H9.27719L9.2929 7.81791L9.30182 7.81957V7.80582L9.30922 7.80764V7.79132L9.31693 7.79389V7.78059L9.32509 7.78165V7.76805H9.33264V7.75354L9.34836 7.74206L9.34518 7.72695L9.36165 7.7206L9.37918 7.68268L9.40079 7.67255L9.40714 7.64551L9.42421 7.64112L9.43176 7.62088L9.43992 7.62163L9.44748 7.60199L9.46395 7.60577L9.47891 7.57932L9.4848 7.58053V7.56482L9.52363 7.53007L9.5395 7.53324V7.52508L9.55536 7.52055V7.50665L9.57878 7.50544V7.48972L9.60976 7.48141L9.64859 7.44485L9.66189 7.44742V7.44122L9.70359 7.42596L9.70178 7.41206L9.72444 7.40828V7.40269L9.75028 7.39876L9.75542 7.38682L9.78745 7.38441L9.80392 7.36658L9.85001 7.36023L9.85817 7.34663L9.87328 7.35026L9.88899 7.33878L9.90501 7.34195V7.33394L9.92072 7.33636V7.32941L9.93583 7.33198L9.94414 7.32064L9.97496 7.31732V7.31248L10.0197 7.30478V7.29798L10.0449 7.30281L10.5138 7.29541L10.7648 7.35026V7.35585L10.8506 7.37972L11.0318 7.46449L11.0783 7.47945V7.487L11.0942 7.48972V7.49667L11.1643 7.53203L11.1718 7.54775L11.1875 7.55077L11.2034 7.56845L11.2203 7.57177V7.57932L11.235 7.58053L11.245 7.5964L11.2595 7.59927V7.60713L11.2738 7.60954L11.2922 7.62783L11.3068 7.62979V7.63735L11.3302 7.64747L11.3382 7.665L11.3858 7.68706L11.3932 7.70428L11.4184 7.71486V7.7206L11.4393 7.7339V7.74704L11.479 7.77742V7.78376L11.4967 7.78678L11.5358 7.8374L11.5674 7.8581V7.872L11.5824 7.87563L11.5907 7.89784L11.6469 7.95209V7.96659L11.6695 7.98487V7.99938L11.6936 8.01781V8.03232L11.71 8.04305L11.7176 8.06632L11.749 8.09215V8.10802L11.7744 8.12706L11.79 8.17284L11.8052 8.18251V8.19747L11.8209 8.2147V8.22905L11.8279 8.22965V8.24492L11.8361 8.24688V8.26063L11.8462 8.26259V8.27634L11.8519 8.27831V8.29281H11.862L11.8853 8.34147L12.0281 8.59139V8.60529L12.0355 8.6071L12.0533 8.63158L12.0766 8.65001V8.66558L12.0923 8.6757V8.69081L12.1157 8.70728L12.1237 8.73871L12.1472 8.75714L12.1547 8.77558V8.77799L12.1629 8.78812V8.80081L12.1567 8.81592L12.1484 8.81516L11.9364 9.41578L11.9208 9.412L11.8892 9.48015L11.8758 9.47713L11.8361 9.55661L11.7451 9.74895L11.7307 9.75152L11.7232 9.82269L11.7149 9.82148L11.6916 9.91924L11.6771 9.91547L11.6695 9.97983L11.6552 9.97606L11.6469 10.0246L11.6318 10.0223L11.6235 10.0637L11.6089 10.0607L11.5555 10.1811L11.541 10.1781L11.5314 10.2198L11.5163 10.2172L11.5005 10.2644L11.4872 10.2828L11.4538 10.32L11.4393 10.3396L11.3642 10.4896L11.3427 10.5792L11.325 10.585V10.6134L11.3194 10.6114V10.6474L11.3031 10.6513L11.2956 10.7081L11.2803 10.7124L11.2721 10.7686L11.2582 10.7736L11.2505 10.8221L11.235 10.819L11.2273 10.8613L11.2116 10.8657V10.8808L11.2034 10.8778L11.1951 10.913L11.1806 10.9182L11.1825 10.9396L11.1667 10.942V10.9641L11.1351 11.0167L11.1194 11.0133L11.0886 11.0803L11.0727 11.0771L11.0438 11.1369L10.9189 11.3225L10.8822 11.4012L10.8834 11.4381L10.879 11.4367V11.4342L10.8734 11.433L10.8506 11.3749L10.8417 11.373Z" fill="#008D93"/>
<path fill-rule="evenodd" clip-rule="evenodd" d="M17.1062 14.4733L17.0986 14.4438L17.0754 14.4248L17.0671 14.387L17.0595 14.3857L17.0269 14.3358L16.9252 14.2671V14.2512L16.9011 14.2406L16.8936 14.2246L16.8759 14.2217L16.8525 14.1888L16.8362 14.1856L16.7984 14.1416L16.7801 14.1164L16.7668 14.1143L16.741 14.0727L16.7263 14.0708L16.6866 14.0134L16.6772 14.0111V13.9964L16.6292 13.9516V13.9378L16.6166 13.9271V13.9118L16.599 13.9017V13.8879L16.568 13.874L16.5107 13.7491L16.4961 13.7459L16.4293 13.5971L16.4128 13.585V13.5718L16.4058 13.5693L16.3978 13.5246L16.3901 13.5232V13.5016L16.3826 13.5007V13.4783L16.3737 13.4771V13.4558L16.3663 13.4544L16.3649 13.4254L16.3587 13.4242L16.3484 13.3786L16.341 13.3768V13.3621L16.3335 13.3605V13.3319L16.3252 13.3313L16.3238 13.2872L16.3168 13.2861L16.3158 13.2488L16.3088 13.2476L16.3075 13.1896L16.2999 13.1882L16.1843 12.7914L16.1769 12.7175L16.1686 12.7163V12.7011L16.1615 12.7006L16.1591 12.65L16.1434 12.6381V12.5598L16.1265 12.5509L16.1233 12.3238L16.1398 12.322V12.2392L16.1549 12.2431L16.1615 12.173H16.1686V12.1453L16.1769 12.1471V12.1092L16.1919 12.1056V12.0764L16.2078 12.0734L16.2153 12.0235L16.2318 12.0273L16.2526 11.9504L16.2683 11.9528V11.9327L16.2842 11.9345L16.3466 11.8381L16.3622 11.8418L16.3856 11.7945L16.4015 11.7976V11.7819L16.4167 11.7843L16.4551 11.7345L16.4696 11.7371V11.7225L16.4961 11.7281L16.5187 11.7099L16.5157 11.6953L16.532 11.6987V11.6848L16.5479 11.6866L16.5642 11.6685L16.5789 11.6701L16.5876 11.6582L16.6104 11.6544V11.6399L16.6496 11.619L16.7194 11.6097V11.5962L16.7984 11.59V11.5742L16.8684 11.5648L16.8936 11.571V11.5634L16.9087 11.5648V11.5578L16.9383 11.5634L16.9478 11.5509L17.0325 11.5598L17.0394 11.5471L17.1118 11.5598L17.1201 11.5471L17.245 11.571L17.2627 11.5648L17.4729 11.6133V11.6274L17.6474 11.6814V11.6953L17.6873 11.7028V11.7176L17.8153 11.7567L18.1246 11.9231L18.1769 11.9528V11.9598L18.2083 11.966L18.2162 11.9806L18.2476 11.9873V11.9959L18.271 12.0003V12.0059L18.2955 12.0108V12.0192L18.3275 12.0241V12.0317L18.4386 12.0796V12.0955L18.5947 12.1825V12.1958L18.6223 12.2089L18.6519 12.245V12.2499L18.6678 12.254L18.6754 12.291L18.6847 12.2917V12.322L18.6903 12.3238V12.3359L18.7006 12.3383V12.3605L18.7081 12.3615V12.3925H18.7163V12.4064L18.7239 12.4078V12.4442L18.7397 12.4539L18.7415 12.5061L18.7574 12.5163V12.5824L18.7724 12.5892L18.7743 12.7136L18.792 12.8129L18.7844 12.8082V12.8387L18.7763 12.8367V12.9617L18.7612 12.9655L18.7624 13.0303L18.7471 13.0336V13.0852L18.7314 13.0898V13.1263L18.7239 13.1252V13.1383L18.7163 13.1377V13.1663L18.71 13.1655V13.1799L18.7024 13.1781L18.693 13.2279L18.6861 13.2254L18.6791 13.2601L18.6628 13.2588V13.2866L18.6482 13.2848V13.313L18.6324 13.31L18.6185 13.3585L18.6009 13.3547L18.5871 13.3951L18.5631 13.4059V13.4278L18.5323 13.4652L18.515 13.4626L18.517 13.4757L18.501 13.4741V13.489L18.4874 13.486L18.4306 13.5542L18.4153 13.5528V13.5667L18.3447 13.5971V13.611L18.2975 13.6247V13.6391L18.1669 13.7384L18.1498 13.7338L18.1516 13.7566L18.1355 13.7604V13.7757L18.1105 13.7855V13.7982L18.0865 13.8101V13.8242L18.0577 13.84L18.0418 13.8588V13.874L18.0268 13.8709L17.9953 13.9011L17.9877 13.8997V13.9138L17.9635 13.9239L17.9555 13.9371L17.9409 13.9346L17.6911 14.1188L17.6847 14.1176L17.6766 14.1377L17.6615 14.1427V14.1566L17.6464 14.1611V14.1756L17.63 14.18V14.1944L17.6059 14.2046V14.2204L17.5831 14.2293L17.5749 14.2498L17.5441 14.2658L17.4968 14.301L17.4987 14.3149L17.4729 14.3189L17.4279 14.3612L17.4122 14.3567L17.4034 14.3706L17.3875 14.3668L17.3668 14.392L17.341 14.3946L17.3327 14.4077L17.3195 14.4052L17.3094 14.4166L17.2961 14.4153L17.288 14.4286L17.2729 14.4248V14.433L17.25 14.4349L17.2413 14.4488L17.2254 14.4461L17.2097 14.4645L17.1946 14.4614L17.1529 14.5043L17.1554 14.5188H17.1529L17.1479 14.5118V14.5055L17.1364 14.5068L17.1163 14.4754L17.1062 14.4733Z" fill="#5FAD4D"/>
<path fill-rule="evenodd" clip-rule="evenodd" d="M12.5322 13.5837L12.5631 13.5813V13.5748L12.5789 13.5692L12.577 13.5566L12.594 13.5503V13.5433L12.6105 13.5467L12.6078 13.5397L12.6255 13.5433L12.6419 13.5232L12.6566 13.5263V13.5118L12.6723 13.5151L12.7033 13.4992L12.717 13.4809L12.7512 13.4784L12.7587 13.4666L12.7746 13.4688L12.7889 13.4488H12.8211L12.8275 13.435L12.8996 13.4267L12.9145 13.4078L12.9852 13.3989L13.0073 13.3826L13.1007 13.2972L13.1247 13.2815L13.2648 13.1984L13.29 13.2028V13.1896L13.3973 13.137L13.4913 13.0891L13.5228 13.0872L13.5322 13.0746L13.5467 13.0783L13.5454 13.0695L13.5686 13.0746V13.0665L13.6162 13.0601V13.0538L13.6478 13.0588V13.053L13.6647 13.0563V13.048L13.6806 13.052L13.6868 13.0373L13.7122 13.0405L13.7178 13.0298L13.743 13.0261V13.0186L13.7486 13.0208L13.772 13.0027V12.9887L13.7953 12.9856L13.8036 12.9654L13.8275 12.9631L13.8515 12.9383L13.866 12.9396L13.9121 12.8998L13.9284 12.901L13.9372 12.8891L13.9523 12.8909L13.9681 12.8722L13.9838 12.8753V12.8684L13.9985 12.8714V12.8638L14.0224 12.8475L14.1006 12.8259L14.2256 12.7396L14.2578 12.7239V12.7094L14.2723 12.7043V12.691L14.2956 12.6797V12.6727L14.3095 12.6765V12.6683L14.3188 12.6703L14.3422 12.6526L14.3504 12.6324L14.3637 12.6343L14.3746 12.623L14.3802 12.6241V12.6083L14.3897 12.6111L14.4028 12.5914L14.4213 12.5958V12.5882L14.4344 12.5893V12.5825L14.4577 12.573L14.4597 12.5654H14.466V12.566V12.5825L14.4988 12.6028V12.6167L14.5613 12.6652V12.6791L14.5783 12.6821V12.6967L14.594 12.7005V12.7137L14.6092 12.7176L14.6104 12.7313L14.6263 12.7353L14.6647 12.7996L14.6806 12.8021L14.6982 12.8406L14.7146 12.8456V12.8587L14.7291 12.8614L14.7853 12.951L14.8981 13.0746V13.0891L14.9284 13.1012V13.1156L14.9676 13.1378V13.1515L14.9834 13.1547V13.17L14.9991 13.1718L15.0004 13.1883L15.0402 13.2292L15.0565 13.2336V13.2475L15.0718 13.2513V13.264L15.0875 13.2676L15.1435 13.3585L15.1594 13.3604V13.3768L15.1751 13.3786V13.3995L15.1896 13.4028L15.3966 13.6369V13.6512L15.4129 13.6539L15.437 13.6941L15.4527 13.6973L15.454 13.713L15.4697 13.7156L15.4938 13.7553L15.5089 13.7573V13.7738L15.524 13.7757L15.55 13.8318L15.5663 13.8336V13.8507L15.5814 13.8517L15.6047 13.9057L15.6199 13.9099V13.9309L15.6358 13.9345L15.6452 13.9566L15.652 13.958L15.6609 13.9963L15.6768 14.0059V14.0214L15.6926 14.0317V14.0531L15.71 14.0625L15.7171 14.1088L15.7336 14.1175V14.1485L15.7404 14.1491L15.7493 14.1863L15.7657 14.1888L15.7747 14.2633L15.7822 14.2659V14.2796L15.7898 14.2803V14.3244L15.8061 14.3346L15.8466 14.4734L15.8629 14.4753L15.8786 14.5365L15.8931 14.5383L15.9045 14.5908L15.919 14.5944L15.9289 14.6684L15.9436 14.6722L15.97 14.9289L15.9617 14.9277L15.9644 15.0431L15.9561 15.0418V15.0936L15.948 15.0917V15.1358L15.9348 15.1389L15.9279 15.1958L15.9114 15.1926L15.8741 15.308L15.8564 15.305L15.7966 15.4109L15.7803 15.4139L15.7707 15.4133L15.7725 15.4343L15.757 15.4322V15.4399L15.7254 15.4564L15.7024 15.4721L15.7044 15.4943L15.6476 15.5119V15.5246L15.644 15.5232L15.6414 15.5268H15.64L15.6257 15.5339H15.6199L15.6074 15.544L15.5909 15.5428V15.5484L15.5752 15.5465V15.5542L15.5593 15.5505L15.5518 15.5649L15.5053 15.5699L15.4969 15.5826L15.4829 15.5794L15.4761 15.5925L15.435 15.6154L15.4129 15.6148V15.6285L15.273 15.6388V15.6525L15.1216 15.64V15.6475L15.1071 15.6438V15.6513L15.0048 15.633L14.7221 15.5505V15.5357L14.659 15.5184L14.6514 15.5025L14.6339 15.4987V15.491L14.594 15.4841V15.4759L14.5706 15.4721V15.4652L14.4932 15.4526L14.4856 15.4363L14.398 15.4186L14.3897 15.4041L14.3347 15.392V15.3857L14.3039 15.3801V15.3725L14.2811 15.3674V15.3599L14.2395 15.3543L14.2312 15.337L14.1921 15.329V15.3162L14.1606 15.3094L14.1537 15.2941L14.0994 15.2764V15.2619L14.0653 15.2563V15.2412L14.0339 15.2293V15.2224L14.0104 15.2153V15.2091L13.9713 15.1888V15.1731L13.9461 15.1692V15.1553L13.8211 15.0431L13.806 15.0412V15.0261L13.7643 14.9826L13.7486 14.9807V14.9656L13.7341 14.9623V14.9486L13.5827 14.8268L13.5499 14.8046L13.5435 14.7907L13.5284 14.7869L13.5272 14.7807L13.5107 14.7775V14.7704L13.4787 14.7435L13.3757 14.6728V14.6588L13.3619 14.6559V14.64L13.3365 14.6362V14.621L13.3189 14.6192V14.6047L13.2339 14.5095L13.2175 14.5061V14.4918L13.0646 14.3339V14.3194L13.0363 14.3132V14.2991L13.0105 14.2866V14.2796L12.9952 14.2765L12.9872 14.2621L12.9638 14.2564L12.9556 14.2407L12.9012 14.2083V14.1938L12.8855 14.1902V14.1761L12.845 14.1547V14.1403L12.8293 14.137L12.8275 14.1221L12.7649 14.074V14.0595L12.748 14.0583L12.7102 13.9926L12.6936 13.9883V13.9749L12.6786 13.9719L12.661 13.932L12.6451 13.9289V13.915L12.63 13.9113V13.891L12.6149 13.8803V13.8658L12.6067 13.8646L12.5903 13.8248L12.5732 13.8223V13.8004L12.5573 13.797L12.5342 13.7718L12.5259 13.7553V13.7491L12.5032 13.7437V13.7289L12.4389 13.6884V13.6753L12.3757 13.6329V13.6196L12.3625 13.6116H12.3668L12.3638 13.6089L12.5247 13.5944L12.5322 13.5837Z" fill="#669D25"/>
</svg>
