<svg width="24" height="26" viewBox="0 0 24 26" fill="none" xmlns="http://www.w3.org/2000/svg">
<path fill-rule="evenodd" clip-rule="evenodd" d="M12.1719 2.13086L18.9297 13.4373C19.42 14.2593 19.8183 15.9601 19.4282 16.7842L22.6695 11.372C23.0006 10.8147 23.0178 9.90293 22.6726 9.32505L18.9872 3.15632C18.653 2.60092 17.8895 2.13086 17.1091 2.13086H12.1719Z" fill="url(#paint0_radial_8045_3805)"/>
<path fill-rule="evenodd" clip-rule="evenodd" d="M12.2524 18.4809H17.1133C17.9757 18.4809 18.6557 18.0796 19.023 17.4602L19.4279 16.7842C19.818 15.9601 19.4197 14.2593 18.9293 13.4373L16.6469 9.6189C16.9185 10.1953 16.7542 10.909 16.5742 11.2105L12.2524 18.4809Z" fill="url(#paint1_radial_8045_3805)"/>
<path fill-rule="evenodd" clip-rule="evenodd" d="M11.7866 22.4275L5.0288 11.121C4.53846 10.2991 4.14016 8.59827 4.53027 7.77414L1.28903 13.1863C0.95785 13.7436 0.940734 14.6554 1.28589 15.2333L4.97128 21.402C5.30549 21.9574 6.06898 22.4275 6.84936 22.4275H11.7866Z" fill="url(#paint2_radial_8045_3805)"/>
<path fill-rule="evenodd" clip-rule="evenodd" d="M11.7056 6.07746H6.84469C5.98231 6.07746 5.30233 6.47876 4.93501 7.09814L4.53014 7.77414C4.14004 8.59827 4.53834 10.2991 5.02868 11.121L7.31112 14.9395C7.03955 14.363 7.20376 13.6494 7.38386 13.3479L11.7056 6.07746Z" fill="url(#paint3_radial_8045_3805)"/>
<defs>
<radialGradient id="paint0_radial_8045_3805" cx="0" cy="0" r="1" gradientUnits="userSpaceOnUse" gradientTransform="translate(21.9594 12.9085) rotate(-121.552) scale(12.6474 11.4588)">
<stop stop-color="#D1EBFF"/>
<stop offset="0.448453" stop-color="#72A5D1"/>
<stop offset="0.722973" stop-color="#4060AB"/>
<stop offset="1" stop-color="#1A3B97"/>
</radialGradient>
<radialGradient id="paint1_radial_8045_3805" cx="0" cy="0" r="1" gradientUnits="userSpaceOnUse" gradientTransform="translate(17.8763 11.9656) rotate(130.8) scale(8.34574 8.63718)">
<stop stop-color="#1A3B97"/>
<stop offset="0.104594" stop-color="#1A3B97"/>
<stop offset="0.640335" stop-color="#7EB4DB"/>
<stop offset="1" stop-color="#D3ECFF"/>
</radialGradient>
<radialGradient id="paint2_radial_8045_3805" cx="0" cy="0" r="1" gradientUnits="userSpaceOnUse" gradientTransform="translate(1.99908 11.6498) rotate(58.448) scale(12.6474 11.4588)">
<stop stop-color="#D1EBFF"/>
<stop offset="0.448453" stop-color="#72A5D1"/>
<stop offset="0.722973" stop-color="#4060AB"/>
<stop offset="1" stop-color="#1A3B97"/>
</radialGradient>
<radialGradient id="paint3_radial_8045_3805" cx="0" cy="0" r="1" gradientUnits="userSpaceOnUse" gradientTransform="translate(6.08174 12.5927) rotate(-49.2) scale(8.34574 8.63718)">
<stop stop-color="#1A3B97"/>
<stop offset="0.104594" stop-color="#1A3B97"/>
<stop offset="0.640335" stop-color="#7EB4DB"/>
<stop offset="1" stop-color="#D3ECFF"/>
</radialGradient>
</defs>
</svg>
