<svg width="24" height="24" viewBox="0 0 24 24" fill="none" xmlns="http://www.w3.org/2000/svg">
<path fill-rule="evenodd" clip-rule="evenodd" d="M17.3893 13.5607H16.6272L16.1156 11.7882H16.1073L16.135 13.5607H15.6035V11.3454H16.3979L16.8711 13.0487H16.8815L16.8547 11.3454H17.3893V13.5607ZM15.0278 12.9475C15.0286 12.989 15.0248 13.0725 15.0228 13.0951C14.9898 13.4626 14.7393 13.6506 14.2799 13.6506C13.8198 13.6506 13.569 13.4626 13.5367 13.0951C13.5357 13.0725 13.5319 12.989 13.5319 12.9475V11.3446H14.0791V12.9983C14.0791 13.0344 14.0804 13.0624 14.0854 13.0812C14.092 13.1171 14.1265 13.2371 14.2799 13.2371C14.4353 13.2371 14.4693 13.1171 14.4777 13.0812C14.4809 13.0624 14.482 13.0336 14.482 12.9983V11.3446H15.0278V12.9475ZM13.0442 13.1499C12.9852 13.5839 12.5826 13.6592 12.298 13.6592C11.825 13.6592 11.5324 13.4464 11.5324 13.0121L11.5337 12.835H12.1058V13.0565C12.1058 13.1759 12.1868 13.2483 12.3096 13.2483C12.4196 13.2483 12.4842 13.2015 12.5074 13.1063C12.5167 13.0624 12.522 12.9972 12.5036 12.9475C12.3972 12.6693 11.6533 12.5332 11.5627 12.0816C11.5418 11.9781 11.5415 11.893 11.5579 11.7816C11.6205 11.3728 11.9943 11.2872 12.2937 11.2872C12.5617 11.2872 12.7577 11.3486 12.8747 11.4723C12.9612 11.5649 13.0056 11.6912 13.0056 11.8489V12.0108H12.4711V11.8678C12.4711 11.746 12.3984 11.6752 12.2832 11.6752C12.1807 11.6752 12.1179 11.7231 12.098 11.8183C12.0952 11.8369 12.0897 11.8835 12.1013 11.9295C12.1588 12.1784 12.9542 12.3305 13.0427 12.7858C13.0523 12.8443 13.0679 12.9693 13.0442 13.1499ZM10.4902 13.5838L10.4769 11.6398H10.4678L10.125 13.5838H9.57704L9.23573 11.6398H9.22589L9.21353 13.5838H8.67041L8.71758 11.3454H9.59066L9.84444 13.0086H9.8573L10.1113 11.3454H10.9842L11.0293 13.5838H10.4902ZM7.68384 13.5838L7.40837 11.6017H7.39803L7.11474 13.5838H6.53101L6.92302 11.3454H7.87506L8.2643 13.5838H7.68384ZM21.9874 10.6662C21.7147 9.02107 17.0239 8.50647 11.5069 9.51891C9.19016 9.94442 7.09966 10.572 5.46929 11.2779C5.72004 11.2837 5.90621 11.3438 6.01948 11.4616C6.10701 11.5547 6.15091 11.6832 6.15091 11.8422V12.0039H5.61006V11.8613C5.61006 11.7417 5.54295 11.6664 5.42136 11.6664C5.3192 11.6664 5.25638 11.7143 5.2362 11.8105C5.23116 11.8369 5.22914 11.8826 5.23923 11.9241C5.29649 12.1741 6.09995 12.3281 6.18799 12.7898C6.19959 12.8475 6.21347 12.9751 6.19001 13.1562C6.13955 13.5277 5.83053 13.6714 5.43599 13.6714C4.88632 13.6714 4.66332 13.3969 4.66332 13.0171V12.8389H5.24352L5.24402 13.0623C5.24402 13.1876 5.3308 13.257 5.4476 13.257C5.5596 13.257 5.62494 13.2094 5.64815 13.1115C5.65723 13.0677 5.66328 13.0014 5.64361 12.9517C5.5364 12.6679 4.78541 12.5358 4.69359 12.0757C4.6724 11.973 4.67164 11.885 4.68854 11.7749C4.69788 11.7143 4.71553 11.6632 4.73672 11.6161C2.92977 12.5063 1.87254 13.4865 2.01204 14.3325C2.28524 15.98 6.97681 16.4927 12.4923 15.4816C14.9163 15.0351 17.0961 14.3689 18.7552 13.6235C18.7317 13.6245 18.708 13.6264 18.6843 13.6264C18.3059 13.6264 17.9684 13.4777 17.9346 13.0711C17.9273 12.9972 17.9273 12.9663 17.9268 12.9243L17.9273 11.9879C17.9273 11.9486 17.9313 11.8773 17.9353 11.8403C17.9807 11.447 18.2754 11.2853 18.6843 11.2853C18.9999 11.2853 19.3873 11.3813 19.4307 11.8409C19.4355 11.898 19.435 11.9605 19.435 11.9802V11.9815V12.0688H18.8891V11.9377C18.8891 11.9342 18.8876 11.885 18.8826 11.8544C18.873 11.8076 18.8354 11.6986 18.6787 11.6986C18.5251 11.6986 18.4858 11.8076 18.4754 11.8544C18.4714 11.8802 18.4676 11.9183 18.4676 11.9584V12.9751C18.4676 13.01 18.4694 13.0379 18.4732 13.0594C18.4744 13.0738 18.5027 13.2139 18.6818 13.2139C18.8596 13.2139 18.8869 13.0738 18.8891 13.0594C18.8942 13.0312 18.8954 12.9983 18.8942 12.9751V12.66H18.6782V12.3204H19.4391V12.9243C19.4391 12.965 19.4391 12.9948 19.432 13.0711C19.4219 13.1767 19.3904 13.2687 19.3404 13.345C21.1017 12.4645 22.1251 11.4997 21.9874 10.6662Z" fill="#044DA1"/>
</svg>
