<svg width="24" height="24" viewBox="0 0 24 24" fill="none" xmlns="http://www.w3.org/2000/svg">
<path fill-rule="evenodd" clip-rule="evenodd" d="M1.10742 14.4138C1.10742 17.9854 4.00305 20.8824 7.57605 20.8824C8.71959 20.8824 9.79382 20.5824 10.7275 20.0641V15.8872C10.1802 16.6031 9.31865 17.0669 8.34743 17.0669C6.69502 17.0669 5.35639 15.7268 5.35639 14.0744C5.35639 13.294 5.65782 12.5796 6.15008 12.0456C5.63504 11.0976 5.34215 10.0148 5.34215 8.85943C5.34215 8.68522 5.35022 8.50531 5.36304 8.33252C2.88135 9.23538 1.10742 11.6169 1.10742 14.4138Z" fill="url(#paint0_linear_8045_4035)"/>
<path fill-rule="evenodd" clip-rule="evenodd" d="M5.34229 8.8594C5.34229 10.0148 5.63517 11.0976 6.15021 12.0455C6.69658 11.4526 7.47793 11.0833 8.34756 11.0833C8.68412 11.0833 9.00976 11.1398 9.31261 11.2438C8.97653 10.734 8.78048 10.1221 8.78048 9.46843C8.78048 7.68738 10.2245 6.24337 12.0055 6.24337C13.3052 6.24337 14.425 7.01189 14.9358 8.11935C15.4167 8.004 15.9189 7.94419 16.4339 7.94419C17.2115 7.94419 17.9572 8.07995 18.647 8.33249C18.3759 4.90094 15.5069 2.19946 12.0041 2.19946C8.32383 2.19946 5.34229 5.1829 5.34229 8.8594Z" fill="url(#paint1_linear_8045_4035)"/>
<path fill-rule="evenodd" clip-rule="evenodd" d="M14.9356 8.1195C15.1236 8.52963 15.2309 8.98629 15.2309 9.46857C15.2309 10.1222 15.0339 10.7341 14.6978 11.2425C15.0011 11.14 15.3244 11.0835 15.6628 11.0835C17.3138 11.0835 18.6539 12.4231 18.6539 14.0745C18.6539 15.7269 17.3138 17.067 15.6628 17.067C14.693 17.067 13.8305 16.6056 13.2832 15.8888V20.0642C14.2155 20.5825 15.2897 20.8825 16.4337 20.8825C20.0063 20.8825 22.9033 17.9855 22.9033 14.4139C22.9033 10.8404 20.0063 7.94434 16.4337 7.94434C15.9187 7.94434 15.4165 8.00415 14.9356 8.1195Z" fill="url(#paint2_linear_8045_4035)"/>
<defs>
<linearGradient id="paint0_linear_8045_4035" x1="0.546634" y1="10.8335" x2="6.2404" y2="19.3487" gradientUnits="userSpaceOnUse">
<stop stop-color="#0070BC"/>
<stop offset="1" stop-color="#53C3F2"/>
</linearGradient>
<linearGradient id="paint1_linear_8045_4035" x1="19.3859" y1="4.41857" x2="13.2226" y2="-0.0658628" gradientUnits="userSpaceOnUse">
<stop stop-color="#0070BC"/>
<stop offset="1" stop-color="#53C3F2"/>
</linearGradient>
<linearGradient id="paint2_linear_8045_4035" x1="19.9515" y1="11.0667" x2="12.8642" y2="14.8199" gradientUnits="userSpaceOnUse">
<stop stop-color="#53C3F2"/>
<stop offset="1" stop-color="#0070BC"/>
</linearGradient>
</defs>
</svg>
