<svg width="24" height="24" viewBox="0 0 24 24" fill="none" xmlns="http://www.w3.org/2000/svg">
<g clip-path="url(#clip0_8045_3924)">
<path d="M8.36854 16.0917L8.3343 16.1265C7.79664 16.7016 7.17445 17.0055 6.53353 17.0055C5.19499 17.0055 4.22399 15.9513 4.22399 14.4971C4.22399 13.0453 5.19499 11.9894 6.53353 11.9894C7.17445 11.9894 7.79664 12.2949 8.3343 12.8723L8.36854 12.9065L9.22933 11.8136L9.20633 11.7844C8.49051 10.8964 7.63132 10.4645 6.57526 10.4645C5.51652 10.4645 4.54713 10.8391 3.8495 11.5136C3.08982 12.2449 2.69019 13.2761 2.69019 14.4971C2.69019 15.7182 3.08982 16.7516 3.8495 17.4829C4.54713 18.1614 5.51652 18.5332 6.57526 18.5332C7.63132 18.5332 8.49051 18.1007 9.20633 17.2122L9.22933 17.1852L8.36854 16.0917Z" fill="#004685"/>
<path d="M10.0979 18.3833H11.6183V10.5898H10.0979V18.3833Z" fill="#004685"/>
<path d="M17.5736 16.6899C17.1675 16.9494 16.7904 17.0803 16.4512 17.0803C15.9595 17.0803 15.737 16.8073 15.737 16.2007V12.0652H17.2868V10.5982H15.737V8.17297L14.247 9.01096V10.5982H12.9609V12.0652H14.247V16.4641C14.247 17.6621 14.9233 18.4822 15.9333 18.5035C16.6186 18.5175 17.0317 18.303 17.282 18.1457L17.2981 18.135L17.6635 16.6321L17.5736 16.6899Z" fill="#004685"/>
<path d="M18.8335 18.3833H20.3561V10.5898H18.8335V18.3833Z" fill="#004685"/>
<path d="M21.2441 9.22319C19.8547 7.15743 17.5478 5.92515 15.2008 5.92515C12.8544 5.92515 10.547 7.15743 9.16031 9.22319L9.08862 9.32935H10.838L10.8573 9.30744C12.0476 8.01676 13.6023 7.33491 15.2008 7.33491C16.7994 7.33491 18.353 8.01676 19.546 9.30744L19.5653 9.32935H21.3136L21.2441 9.22319Z" fill="#EE1C25"/>
</g>
<defs>
<clipPath id="clip0_8045_3924">
<rect width="18.875" height="12.871" fill="white" transform="translate(2.5625 5.79297)"/>
</clipPath>
</defs>
</svg>
