<svg width="24" height="24" viewBox="0 0 24 24" fill="none" xmlns="http://www.w3.org/2000/svg">
<path fill-rule="evenodd" clip-rule="evenodd" d="M19.0977 13.2948L18.0985 12.6414C17.4461 13.1018 16.5516 13.1462 15.843 12.6822C15.843 12.6822 12.8004 10.6946 12.5196 10.5082C12.1847 10.2842 11.7671 10.2703 11.41 10.5026C11.0538 10.7343 8.07423 12.6822 8.07423 12.6822C7.36506 13.1462 6.47216 13.1018 5.81823 12.6414L4.82055 13.2948C3.98339 13.8424 3.74803 14.964 4.29513 15.8006C4.84223 16.6383 5.96429 16.8737 6.80145 16.3255L11.4471 13.2891C11.8131 13.0636 12.1109 13.0636 12.4722 13.2881L17.1158 16.3255C17.9535 16.8737 19.075 16.6383 19.6226 15.8006C20.1687 14.964 19.9344 13.8424 19.0977 13.2948Z" fill="#7CB142"/>
<path fill-rule="evenodd" clip-rule="evenodd" d="M11.6205 7.67133C11.7226 7.60837 11.8434 7.57275 11.9725 7.57275C12.0989 7.57275 12.2171 7.60733 12.3193 7.66824C12.5097 7.7823 14.533 9.12269 14.533 9.12269C15.2039 9.56088 16.0664 9.47211 16.6362 8.96011L17.7846 9.71262C18.4963 10.1766 18.6961 11.1309 18.231 11.8427C17.7655 12.5539 16.8122 12.7542 16.1005 12.2886C16.1005 12.2886 12.8014 10.1374 12.4808 9.95366C12.1603 9.76888 11.7815 9.76114 11.4522 9.95727C11.1848 10.1157 7.8171 12.2886 7.8171 12.2886C7.11207 12.7144 6.15155 12.5539 5.68652 11.8427C5.22149 11.1309 5.42123 10.1766 6.13245 9.71262L7.28187 8.96011C7.85116 9.47211 8.7131 9.56088 9.3851 9.12269C9.3851 9.12269 11.4207 7.79262 11.6205 7.67133Z" fill="#528A3D"/>
<path fill-rule="evenodd" clip-rule="evenodd" d="M12.3571 7.12555L14.7907 8.72761C15.3734 9.108 16.1543 8.94387 16.5352 8.36168C16.9156 7.78 16.752 6.99858 16.1698 6.61716L12.3396 4.11136C12.0965 3.96323 11.8214 3.96323 11.585 4.10929L7.74811 6.61716C7.16489 6.99858 7.00128 7.78 7.38166 8.36168C7.7636 8.94387 8.54347 9.108 9.12618 8.72761L11.5948 7.12452C11.7104 7.04813 11.8312 6.99445 11.9752 6.99445C12.1192 6.99445 12.2426 7.04813 12.3571 7.12555Z" fill="#004711"/>
<path fill-rule="evenodd" clip-rule="evenodd" d="M14.5717 18.353L12.581 15.0967C12.4231 14.8278 12.1929 14.6911 11.9586 14.6838C11.7242 14.6911 11.4935 14.8278 11.3356 15.0967L9.34488 18.353C9.08681 18.7525 9.14772 19.3899 9.85998 19.3899H14.0566C14.7684 19.3899 14.8298 18.7525 14.5717 18.353Z" fill="#004711"/>
</svg>
