<svg width="24" height="24" viewBox="0 0 24 24" fill="none" xmlns="http://www.w3.org/2000/svg">
<path fill-rule="evenodd" clip-rule="evenodd" d="M12.0056 12.0862L15.6239 14.2022V14.2083L15.5918 14.1898C14.2979 15.212 13.063 15.5502 11.9948 15.5504C10.9267 15.5502 9.69183 15.212 8.39789 14.1898L8.36572 14.2083V14.2022L12.0056 12.0862ZM10.167 4.66968H10.187L10.167 9.01178L6.53765 11.0442L6.53251 11.0381C5.79274 5.85974 10.167 4.66968 10.167 4.66968ZM17.4569 11.038L17.4518 11.0442L13.8224 9.01173L13.8025 4.66963H13.8224C13.8224 4.66963 18.1967 5.85969 17.4569 11.038ZM20.894 13.3743C19.9221 15.7904 18.2933 16.4736 18.2933 16.4736C23.0857 11.617 20.1588 6.02047 20.1588 6.02047C19.4512 4.76608 20.3518 4.2193 20.3518 4.2193C18.2933 4.73392 18.9366 6.4386 18.9366 6.4386C19.9709 8.90221 19.7627 10.9036 19.4114 12.1414L18.733 11.7615L18.7436 11.7456C18.7436 11.7456 20.3507 5.41296 13.7959 3.19199L13.7904 2H12.4073V9.84795L18.8401 13.5146C18.7229 13.7526 18.5987 13.9767 18.4692 14.1886L12.0082 10.4458L5.51997 14.1886C5.39054 13.9767 5.26633 13.7526 5.14912 13.5146L11.5819 9.84795V2H10.1988L10.1934 3.19199C3.63846 5.41296 5.24561 11.7456 5.24561 11.7456L5.25623 11.7615L4.57789 12.1414C4.2266 10.9036 4.01825 8.90221 5.05263 6.4386C5.05263 6.4386 5.69591 4.73392 3.63743 4.2193C3.63743 4.2193 4.53801 4.76608 3.83041 6.02047C3.83041 6.02047 0.903509 11.617 5.69591 16.4736C5.69591 16.4736 4.06713 15.7904 3.09521 13.3743C3.09521 13.3743 2.54386 12.1959 1 12.4532C1 12.4532 1.58261 12.7172 1.92484 13.7849C1.92484 13.7849 3.31579 18.2105 8.68713 18.8859V21.3303H11.3246V17.728C11.3246 17.728 8.52664 17.7057 6.39058 15.3553L7.05347 14.9684C7.17698 15.0852 9.20793 16.9646 11.9785 17.0139V17.015C11.9839 17.0149 11.9892 17.0145 11.9946 17.0144C12 17.0145 12.0053 17.0149 12.0107 17.015V17.0139C14.7813 16.9646 16.8123 15.0852 16.9358 14.9684L17.5986 15.3553C15.4626 17.7057 12.6646 17.728 12.6646 17.728V21.3303H15.3021V18.8859C20.6734 18.2105 22.0644 13.7849 22.0644 13.7849C22.4066 12.7172 22.9892 12.4532 22.9892 12.4532C21.4453 12.1959 20.894 13.3743 20.894 13.3743Z" fill="#AB924B"/>
</svg>
