<svg width="24" height="24" viewBox="0 0 24 24" fill="none" xmlns="http://www.w3.org/2000/svg">
<path fill-rule="evenodd" clip-rule="evenodd" d="M11.4086 1.16239C5.47769 1.43101 0.887872 6.45518 1.15674 12.3863C1.42411 18.3155 6.44953 22.9053 12.38 22.6365C18.3086 22.3678 22.8987 17.3432 22.6296 11.414C22.37 5.64932 17.6152 1.15137 11.9035 1.15112C11.7393 1.15112 11.5743 1.15488 11.4086 1.16239Z" fill="white"/>
<path fill-rule="evenodd" clip-rule="evenodd" d="M11.4016 1.01127C5.56779 1.27413 1.01452 6.07925 1 11.8575V11.9105C1.00025 12.0685 1.00401 12.2267 1.01127 12.3859C1.28339 18.3952 6.3754 23.0459 12.3862 22.775C18.3955 22.5039 23.0484 17.4109 22.7752 11.4003C22.5114 5.55928 17.6917 1 11.9033 1C11.7368 1 11.5696 1.00376 11.4016 1.01127ZM12.6984 21.4747C12.6879 21.2289 13.0487 21.1665 13.0487 21.1665C16.2706 20.5327 15.3288 18.4187 14.1877 17.341C13.7086 16.8866 9.22466 13.0183 9.22466 13.0183C4.94752 9.33549 5.29074 6.46153 5.29074 6.46153C5.49603 2.92266 8.59404 2.0452 10.9378 2.24848C11.2109 2.27251 11.3629 2.43949 11.3148 2.66705C11.263 2.91715 10.9 2.93592 10.9 2.93592C10.1549 2.97898 9.48777 3.05609 8.98108 3.39681C7.09147 4.66681 7.65049 6.82829 10.1672 9.2336C10.4829 9.53576 10.8204 9.8542 11.1653 10.1769C11.1653 10.1769 11.6723 10.624 12.6772 11.5806C14.6148 13.3658 15.6758 14.3284 15.6758 14.3284C19.088 17.1705 17.9241 19.7684 16.6173 20.6716C15.6237 21.3603 14.5217 21.6845 13.0762 21.7611C13.064 21.7629 13.0504 21.7639 13.0364 21.7639C12.9037 21.7639 12.7087 21.6827 12.6984 21.4747ZM13.4961 10.9825C12.3901 10.7502 12.1648 9.74502 12.1648 9.74502C12.0749 9.39304 12.0526 8.94793 12.1268 8.38014C12.2782 7.19101 12.5976 6.63148 12.9627 5.71022C13.4551 4.47226 12.2582 3.74801 12.4572 3.29289C12.7253 2.67629 13.579 3.45987 14.5323 3.51644C15.3542 3.56226 15.8461 3.5207 16.4838 3.60682C17.3337 3.71947 18.3471 4.00612 18.7984 4.5371C19.2128 5.02001 18.5801 5.61408 17.8178 5.24257C17.2633 4.97195 16.5634 5.13743 16.9744 5.71698C17.4671 6.26848 17.7059 6.28501 18.2089 6.41619C19.5955 6.78194 19.6253 8.11052 18.6853 8.79797C17.6173 9.5803 16.5353 9.25685 16.1007 7.72174C15.8852 6.95718 15.3432 6.5669 14.7902 6.78645C14.2392 7.002 14.5646 8.00963 14.9834 8.94267C15.7109 10.7997 14.2374 10.9905 13.6769 10.9905C13.592 10.9905 13.5282 10.986 13.4961 10.9825ZM9.43667 21.1281C8.23451 21.0099 6.79628 20.6309 5.54556 19.5471C4.39447 18.551 3.68049 17.1831 3.33551 15.983C2.98002 14.7523 2.83257 13.3123 3.41688 13.4267C3.59712 13.4623 3.9078 14.2521 4.24677 14.8294C4.596 15.4232 4.87914 15.7512 5.14801 15.9517C5.26868 16.0438 5.67949 15.1293 6.27581 14.6098C6.62279 14.3242 7.00282 14.2253 7.06365 15.0802C7.13975 16.1297 6.94999 17.3792 7.25617 17.3792C7.54331 17.3792 8.18695 17.1616 9.60665 17.0422C10.1409 16.9961 10.4438 17.097 9.9346 17.8148C9.681 18.1718 9.34154 18.6772 8.53793 19.2532C9.74259 20.3813 11.1893 20.2479 11.2151 20.7265C11.2311 21.0029 10.6904 21.1554 9.97942 21.1554C9.80668 21.1554 9.62393 21.1466 9.43667 21.1281Z" fill="#0046FF"/>
</svg>
