<svg width="24" height="25" viewBox="0 0 24 25" fill="none" xmlns="http://www.w3.org/2000/svg">
<path d="M17.4498 9.53952L17.0237 10.5676H17.8781L17.4498 9.53952ZM12.5334 10.1766C12.6137 10.1349 12.661 10.0441 12.661 9.93142C12.661 9.82098 12.6113 9.741 12.531 9.70341C12.4579 9.66175 12.3453 9.65694 12.2374 9.65694H11.4752V10.2297H12.2272C12.3477 10.2298 12.4483 10.228 12.5334 10.1766ZM2.76638 9.53952L2.34514 10.5676H3.19014L2.76638 9.53952ZM22.3781 16.1256H21.1827V15.5725H22.3733C22.4913 15.5725 22.5739 15.5571 22.6237 15.5086C22.6669 15.4688 22.6969 15.4107 22.6969 15.3404C22.6969 15.2652 22.6669 15.2055 22.6213 15.1698C22.5764 15.1305 22.5109 15.1125 22.4032 15.1125C21.8219 15.0929 21.0968 15.1304 21.0968 14.3142C21.0968 13.9401 21.3354 13.5463 21.985 13.5463H23.218V13.033H22.0724C21.7267 13.033 21.4755 13.1155 21.2976 13.2437V13.033H19.6032C19.3323 13.033 19.0142 13.0999 18.8638 13.2437V13.033H15.8378V13.2437C15.597 13.0707 15.1907 13.033 15.0032 13.033H13.0072V13.2437C12.8168 13.06 12.393 13.033 12.1348 13.033H9.90104L9.38994 13.5839L8.91116 13.033H5.57438V16.6324H8.84834L9.375 16.0727L9.87115 16.6324L11.8892 16.6341V15.7874H12.0876C12.3554 15.7916 12.6712 15.7808 12.9498 15.6609V16.6322H14.6143V15.6941H14.6946C14.7971 15.6941 14.8072 15.6983 14.8072 15.8003V16.632H19.8638C20.1849 16.632 20.5205 16.5503 20.7063 16.4016V16.632H22.3102C22.644 16.632 22.9699 16.5855 23.218 16.4662V15.7957C23.0677 16.0146 22.7746 16.1256 22.3781 16.1256ZM12.1139 15.2757H11.3416V16.1409H10.1384L9.37623 15.2871L8.58414 16.1409H6.1322V13.5615H8.62187L9.38339 14.407L10.1707 13.5615H12.1487C12.6399 13.5615 13.1919 13.697 13.1919 14.4113C13.1919 15.1278 12.655 15.2757 12.1139 15.2757ZM15.8281 15.1587C15.9155 15.2846 15.9281 15.4022 15.9307 15.6296V16.1409H15.3092V15.8182C15.3092 15.6631 15.3242 15.4333 15.2091 15.3133C15.1188 15.2209 14.9808 15.1989 14.7549 15.1989H14.0935V16.1409H13.4715V13.5615H14.9006C15.2141 13.5615 15.4422 13.5753 15.6454 13.6832C15.8407 13.8007 15.9637 13.9618 15.9637 14.256C15.9636 14.6677 15.6879 14.8777 15.525 14.9422C15.6626 14.9929 15.7753 15.0836 15.8281 15.1587ZM18.3851 14.0949H16.9356V14.5638H18.3497V15.0902H16.9356V15.6034L18.3851 15.6057V16.1409H16.3191V13.5615H18.3851V14.0949ZM19.9757 16.1409H18.7701V15.5877H19.9709C20.0883 15.5877 20.1716 15.5723 20.2238 15.5238C20.2663 15.484 20.2969 15.426 20.2969 15.3557C20.2969 15.2805 20.2638 15.2208 20.2214 15.185C20.174 15.1457 20.1087 15.1279 20.0009 15.1279C19.422 15.1081 18.6971 15.1456 18.6971 14.3294C18.6971 13.9553 18.9332 13.5615 19.5821 13.5615H20.8231V14.1104H19.6875C19.575 14.1104 19.5018 14.1147 19.4396 14.1571C19.3717 14.1989 19.3466 14.2608 19.3466 14.3426C19.3466 14.4399 19.4042 14.5062 19.482 14.5348C19.5473 14.5574 19.6174 14.564 19.7229 14.564L20.0562 14.573C20.3921 14.5811 20.6228 14.639 20.763 14.7804C20.8835 14.9046 20.9482 15.0615 20.9482 15.3269C20.9481 15.8818 20.6 16.1409 19.9757 16.1409ZM15.1749 14.1365C15.1001 14.0923 14.9898 14.0899 14.8796 14.0899H14.1174V14.6692H14.8694C14.9898 14.6692 15.0922 14.665 15.1749 14.6161C15.2551 14.5678 15.3032 14.4788 15.3032 14.3685C15.3032 14.2582 15.2551 14.1783 15.1749 14.1365ZM22.0911 14.0899C21.9785 14.0899 21.9036 14.0941 21.8406 14.1365C21.7753 14.1783 21.7502 14.2402 21.7502 14.3221C21.7502 14.4193 21.8053 14.4856 21.8855 14.5142C21.9509 14.5369 22.0209 14.5435 22.124 14.5435L22.4596 14.5523C22.7981 14.5607 23.0242 14.6187 23.1619 14.7601C23.187 14.7797 23.2021 14.8017 23.2194 14.8239V14.0899H22.0911L22.0911 14.0899ZM12.1355 14.0899H11.3284V14.7468H12.1284C12.3662 14.7468 12.5141 14.6293 12.5142 14.4062C12.5141 14.1806 12.359 14.0899 12.1355 14.0899ZM6.74873 14.0899V14.5589H8.10762V15.0852H6.74873V15.5983H8.27061L8.97771 14.8416L8.30065 14.0899H6.74873ZM10.7228 15.8937V13.8257L9.77247 14.843L10.7228 15.8937ZM6.80087 11.7523V12.1967H11.9725L11.9701 11.2565H12.0701C12.1403 11.2589 12.1606 11.2653 12.1606 11.3806V12.1968H14.8354V11.9778C15.0511 12.093 15.3867 12.1968 15.8282 12.1968H16.9535L17.1943 11.624H17.7283L17.9637 12.1968H20.1322V11.6527L20.4604 12.1967H22.1982V8.6001H20.4785V9.02486L20.2377 8.6001H18.4731V9.02486L18.252 8.6001H15.8684C15.4694 8.6001 15.1187 8.65555 14.8354 8.81012V8.6001H13.1905V8.81012C13.0102 8.6508 12.7645 8.6001 12.4914 8.6001H6.48208L6.07889 9.52907L5.66478 8.6001H3.77201V9.02486L3.56405 8.6001H1.94984L1.20022 10.3102V11.678L2.30867 9.09921H3.22837L4.2811 11.5408V9.09921H5.29143L6.10151 10.8486L6.84573 9.09921H7.87633V11.678H7.24185L7.23953 9.65835L6.34193 11.678H5.79843L4.89853 9.65656V11.678H3.63945L3.40162 11.1028H2.11276L1.87247 11.678H1.20022L1.2002 12.1968H2.25788L2.49636 11.624H3.03029L3.26812 12.1968H5.34908V11.7589L5.5348 12.1987H6.61508L6.80087 11.7523ZM14.9502 9.39989C15.1502 9.19406 15.4636 9.09915 15.8902 9.09915H16.4895V9.65171H15.9028C15.677 9.65171 15.5493 9.68516 15.4265 9.80452C15.3209 9.91308 15.2485 10.1183 15.2485 10.3886C15.2485 10.6649 15.3037 10.8641 15.4187 10.9942C15.514 11.0963 15.6872 11.1272 15.8502 11.1272H16.1282L17.0006 9.09924H17.9281L18.9761 11.5384V9.09926H19.9186L21.0067 10.8953V9.09926H21.6408V11.678H20.7636L19.5903 9.74249V11.678H18.3296L18.0887 11.1028H16.8028L16.5691 11.678H15.8448C15.5439 11.678 15.163 11.6118 14.9472 11.3928C14.7297 11.1738 14.6165 10.8772 14.6165 10.4083C14.6164 10.0258 14.684 9.67618 14.9502 9.39989ZM13.677 9.09918H14.3085V11.678H13.677V9.09918ZM10.8293 9.09918H12.2531C12.5693 9.09918 12.8025 9.10754 13.0026 9.2227C13.1984 9.33789 13.3159 9.50607 13.3159 9.79366C13.3159 10.2049 13.0403 10.4173 12.8798 10.4811C13.0151 10.5324 13.1309 10.6231 13.186 10.6982C13.2734 10.8265 13.2885 10.9411 13.2885 11.1714V11.678H12.6641L12.6618 11.3528C12.6618 11.1976 12.6767 10.9744 12.5641 10.8504C12.4737 10.7598 12.3358 10.74 12.1129 10.74H11.4484V11.678H10.8294L10.8293 9.09918ZM8.33398 9.09918H10.4019V9.63619H8.95306V10.101H10.3671V10.6297H8.95306V11.1447H10.4019V11.678H8.33398V9.09918Z" fill="#2557D6"/>
</svg>
