<svg width="24" height="24" viewBox="0 0 24 24" fill="none" xmlns="http://www.w3.org/2000/svg">
<path fill-rule="evenodd" clip-rule="evenodd" d="M22.9202 11.548C22.9202 17.3704 18.0104 22.0866 11.9624 22.0866C5.90864 22.0866 1 17.3704 1 11.548C1 5.72777 5.90864 1.0083 11.9624 1.0083C18.0104 1.0083 22.9202 5.72777 22.9202 11.548Z" fill="#FEFEFE"/>
<path fill-rule="evenodd" clip-rule="evenodd" d="M11.9625 21.5554C17.7305 21.5554 22.404 17.0616 22.404 11.5152C22.404 5.96552 17.7305 1.46948 11.9625 1.46948C6.19214 1.46948 1.51758 5.96552 1.51758 11.5152C1.51758 17.0638 6.19214 21.5554 11.9625 21.5554Z" fill="#0083C9"/>
<mask id="mask0_8045_3953" style="mask-type:luminance" maskUnits="userSpaceOnUse" x="1" y="1" width="22" height="21">
<path fill-rule="evenodd" clip-rule="evenodd" d="M11.9601 1.46729C17.7327 1.46729 22.4004 5.96223 22.4004 11.5119C22.4004 17.0616 17.7327 21.5565 11.9601 21.5565C6.18745 21.5565 1.51978 17.0616 1.51978 11.5119" fill="white"/>
</mask>
<g mask="url(#mask0_8045_3953)">
<path fill-rule="evenodd" clip-rule="evenodd" d="M12.0058 16.3586C16.5966 16.3586 20.5323 17.594 22.2132 19.3409C22.7812 18.0902 23.0899 16.7156 23.0899 15.2666C23.0899 9.50662 18.1239 4.84082 12.0058 4.84082C5.89128 4.84082 0.917236 9.5121 0.917236 15.2721C0.917236 16.7156 1.22819 18.0902 1.7996 19.3409C3.47712 17.594 7.41504 16.3586 12.0058 16.3586Z" fill="#0083C9"/>
<path fill-rule="evenodd" clip-rule="evenodd" d="M12.0025 16.3737C16.5795 16.3737 20.5048 17.5938 22.1857 19.3221C22.7514 18.0878 23.0612 16.7231 23.0612 15.2916C23.0612 9.57541 18.1055 4.93042 12.0025 4.93042C5.9028 4.93042 0.944824 9.57541 0.944824 15.2916C0.944824 16.7253 1.25577 18.0878 1.8226 19.3221C3.49667 17.5938 7.42198 16.3737 12.0025 16.3737Z" fill="#0084CB"/>
<path fill-rule="evenodd" clip-rule="evenodd" d="M12.0026 16.3815C16.567 16.3815 20.4797 17.5939 22.1572 19.3091C22.7206 18.0846 23.0315 16.7342 23.0315 15.307C23.0315 9.63799 18.0862 5.01709 12.0026 5.01709C5.91669 5.01709 0.973633 9.64127 0.973633 15.3125C0.973633 16.7364 1.28343 18.0846 1.84567 19.3091C3.5186 17.5939 7.43587 16.3815 12.0026 16.3815Z" fill="#0086CC"/>
<path fill-rule="evenodd" clip-rule="evenodd" d="M12.0014 16.3902C16.5566 16.3902 20.4578 17.5939 22.1285 19.297C22.6919 18.0824 23.0017 16.7418 23.0017 15.3289C23.0017 9.71019 18.0701 5.11011 12.0014 5.11011C5.93044 5.11011 1 9.71019 1 15.3354C1 16.7418 1.30636 18.0824 1.86859 19.297C3.53464 17.5939 7.44732 16.3902 12.0014 16.3902Z" fill="#0088CD"/>
<path fill-rule="evenodd" clip-rule="evenodd" d="M11.9979 16.4032C16.5428 16.4032 20.4372 17.5938 22.1032 19.2859C22.6654 18.0801 22.9729 16.7482 22.9729 15.3463C22.9729 9.77472 18.0551 5.19873 11.9979 5.19873C5.94304 5.19873 1.02637 9.77472 1.02637 15.3551C1.02637 16.7482 1.33732 18.0801 1.89381 19.2859C3.56215 17.5938 7.45762 16.4032 11.9979 16.4032Z" fill="#0089CE"/>
<path fill-rule="evenodd" clip-rule="evenodd" d="M11.9978 16.4142C16.529 16.4142 20.4095 17.5982 22.0744 19.2706C22.6366 18.0779 22.9407 16.7526 22.9407 15.3748C22.9407 9.83608 18.0367 5.28638 11.9978 5.28638C5.95783 5.28638 1.05493 9.83608 1.05493 15.3748C1.05493 16.7526 1.36014 18.0779 1.92008 19.2706C3.58039 17.5982 7.46553 16.4142 11.9978 16.4142Z" fill="#008BCF"/>
<path fill-rule="evenodd" clip-rule="evenodd" d="M11.9958 16.4264C16.5166 16.4264 20.3857 17.5983 22.0483 19.2609C22.607 18.0759 22.9111 16.7637 22.9111 15.3914C22.9111 9.90632 18.0231 5.37305 11.9958 5.37305C5.97299 5.37305 1.07812 9.90632 1.07812 15.3936C1.07812 16.7637 1.38907 18.0759 1.94557 19.2609C3.59899 17.5983 7.47496 16.4264 11.9958 16.4264Z" fill="#008DD1"/>
<path fill-rule="evenodd" clip-rule="evenodd" d="M11.9955 16.4353C16.5003 16.4353 20.3682 17.6007 22.0194 19.2446C22.5747 18.0738 22.8811 16.7759 22.8811 15.4134C22.8811 9.97109 18.0057 5.46191 11.9955 5.46191C5.98884 5.46191 1.10889 9.97328 1.10889 15.4167C1.10889 16.7759 1.41295 18.076 1.9683 19.2446C3.62172 17.6007 7.48736 16.4353 11.9955 16.4353Z" fill="#008FD2"/>
<path fill-rule="evenodd" clip-rule="evenodd" d="M11.9943 16.447C16.4899 16.447 20.344 17.6003 21.9952 19.2334C22.5482 18.068 22.85 16.7789 22.85 15.4306C22.85 10.0398 17.9872 5.55029 11.9943 5.55029C6.00366 5.55029 1.13403 10.0398 1.13403 15.4328C1.13403 16.7844 1.44154 18.068 1.99574 19.2334C3.64228 17.6003 7.4953 16.447 11.9943 16.447Z" fill="#0091D3"/>
<path fill-rule="evenodd" clip-rule="evenodd" d="M11.99 16.4581C16.4718 16.4581 20.3248 17.6005 21.9656 19.2226C22.5175 18.0638 22.8262 16.7889 22.8262 15.4527C22.8262 10.1013 17.968 5.64575 11.99 5.64575C6.01428 5.64575 1.16187 10.1035 1.16187 15.4527C1.16187 16.7889 1.46822 18.0638 2.02013 19.2226C3.66437 17.6005 7.51051 16.4581 11.99 16.4581Z" fill="#0093D4"/>
<path fill-rule="evenodd" clip-rule="evenodd" d="M11.9899 16.4724C16.4602 16.4724 20.2983 17.6005 21.9368 19.2084C22.4922 18.0605 22.7905 16.7966 22.7905 15.4702C22.7905 10.1692 17.953 5.7334 11.9899 5.7334C6.02907 5.7334 1.19043 10.1692 1.19043 15.4724C1.19043 16.7977 1.4899 18.0605 2.04411 19.2084C3.68376 17.6005 7.52071 16.4724 11.9899 16.4724Z" fill="#0094D6"/>
<path fill-rule="evenodd" clip-rule="evenodd" d="M11.9852 16.4812C16.4509 16.4812 20.2729 17.6027 21.9092 19.1942C22.4588 18.0606 22.764 16.8076 22.764 15.49C22.764 10.2317 17.9357 5.82324 11.9852 5.82324C6.04731 5.82324 1.21899 10.236 1.21899 15.49C1.21899 16.8076 1.51847 18.0606 2.07152 19.1942C3.70429 17.6027 7.52862 16.4812 11.9852 16.4812Z" fill="#0096D7"/>
<path fill-rule="evenodd" clip-rule="evenodd" d="M11.9853 16.493C16.4384 16.493 20.2547 17.6025 21.8795 19.1863C22.4291 18.056 22.7332 16.8096 22.7332 15.5073C22.7332 10.2982 17.9209 5.91064 11.9853 5.91064C6.05779 5.91064 1.24438 10.3037 1.24438 15.515C1.24438 16.8118 1.54386 18.0582 2.09232 19.1863C3.72165 17.6025 7.53795 16.493 11.9853 16.493Z" fill="#0098D8"/>
<path fill-rule="evenodd" clip-rule="evenodd" d="M11.9854 16.4996C16.4236 16.4996 20.2262 17.6047 21.8566 19.1699C22.3994 18.056 22.7023 16.8271 22.7023 15.5281C22.7023 10.3684 17.905 5.99829 11.9854 5.99829C6.07283 5.99829 1.27319 10.3684 1.27319 15.5314C1.27319 16.8271 1.57152 18.056 2.11769 19.1699C3.74243 17.6047 7.5484 16.4996 11.9854 16.4996Z" fill="#009AD9"/>
<path fill-rule="evenodd" clip-rule="evenodd" d="M11.9851 16.5162C16.4084 16.5162 20.2052 17.6049 21.8299 19.1602C22.3703 18.0507 22.6698 16.8316 22.6698 15.548C22.6698 10.4353 17.884 6.08496 11.9851 6.08496C6.0874 6.08496 1.2981 10.4353 1.2981 15.548C1.2981 16.8316 1.59298 18.0507 2.1403 19.1602C3.76274 17.6049 7.55838 16.5162 11.9851 16.5162Z" fill="#009CDB"/>
<path fill-rule="evenodd" clip-rule="evenodd" d="M11.982 16.5282C16.3961 16.5282 20.1802 17.6048 21.7969 19.1447C22.3443 18.0506 22.6414 16.8392 22.6414 15.5687C22.6414 10.501 17.8659 6.17798 11.982 6.17798C6.10605 6.17798 1.32593 10.501 1.32593 15.5709C1.32593 16.8392 1.62655 18.0506 2.16813 19.1447C3.78254 17.6048 7.56901 16.5282 11.982 16.5282Z" fill="#009EDC"/>
<path fill-rule="evenodd" clip-rule="evenodd" d="M11.9819 16.5381C16.3869 16.5381 20.1596 17.6048 21.7705 19.1305C22.3155 18.0462 22.615 16.8436 22.615 15.5874C22.615 10.5656 17.8498 6.26562 11.9819 6.26562C6.11636 6.26562 1.35229 10.5678 1.35229 15.5874C1.35229 16.8436 1.64948 18.0484 2.19335 19.1305C3.80547 17.6048 7.5839 16.5381 11.9819 16.5381Z" fill="#00A0DD"/>
<path fill-rule="evenodd" clip-rule="evenodd" d="M11.9808 16.5512C16.3685 16.5512 20.1389 17.6114 21.7464 19.1196C22.2857 18.0463 22.5852 16.8546 22.5852 15.6115C22.5852 10.6314 17.836 6.35327 11.9808 6.35327C6.13125 6.35327 1.37866 10.6314 1.37866 15.6115C1.37866 16.8546 1.67814 18.0463 2.21627 19.1196C3.82839 17.6114 7.59535 16.5512 11.9808 16.5512Z" fill="#00A2DE"/>
<path fill-rule="evenodd" clip-rule="evenodd" d="M11.9762 16.5611C16.357 16.5611 20.1113 17.6115 21.7177 19.1109C22.257 18.0397 22.553 16.8623 22.553 15.6258C22.553 10.6982 17.8165 6.44531 11.9762 6.44531C6.14041 6.44531 1.40503 10.6982 1.40503 15.6291C1.40503 16.8623 1.7045 18.0397 2.24149 19.1109C3.84558 17.6115 7.60221 16.5611 11.9762 16.5611Z" fill="#00A4E0"/>
<path fill-rule="evenodd" clip-rule="evenodd" d="M11.9763 16.5721C16.3433 16.5721 20.0919 17.6115 21.6891 19.0967C22.2307 18.0376 22.5222 16.8711 22.5222 15.6488C22.5222 10.7694 17.8028 6.53296 11.9763 6.53296C6.15774 6.53296 1.43384 10.7694 1.43384 15.6488C1.43384 16.8678 1.73102 18.0397 2.26916 19.0967C3.8675 17.6115 7.61725 16.5721 11.9763 16.5721Z" fill="#00A6E1"/>
<path fill-rule="evenodd" clip-rule="evenodd" d="M11.9761 16.5808C16.326 16.5808 20.0642 17.6158 21.6591 19.0801C22.2007 18.0342 22.4979 16.8842 22.4979 15.6662C22.4979 10.8307 17.7843 6.62158 11.9761 6.62158C6.17363 6.62158 1.45776 10.8307 1.45776 15.6662C1.45776 16.8842 1.75609 18.0342 2.29308 19.0801C3.88684 17.6158 7.62741 16.5808 11.9761 16.5808Z" fill="#00A8E2"/>
<path fill-rule="evenodd" clip-rule="evenodd" d="M11.9739 16.5938C16.3146 16.5938 20.0425 17.6157 21.6317 19.0669C22.1733 18.0297 22.4636 16.8884 22.4636 15.6891C22.4636 10.893 17.7649 6.7124 11.9739 6.7124C6.18867 6.7124 1.48657 10.8985 1.48657 15.6891C1.48657 16.8863 1.78375 18.0319 2.31501 19.0669C3.90762 17.6157 7.63442 16.5938 11.9739 16.5938Z" fill="#00AAE4"/>
<path fill-rule="evenodd" clip-rule="evenodd" d="M11.9739 16.6037C16.3031 16.6037 20.0184 17.6157 21.6064 19.0582C22.1423 18.0297 22.4303 16.894 22.4303 15.7056C22.4303 10.9609 17.7511 6.80225 11.9739 6.80225C6.20242 6.80225 1.51294 10.9631 1.51294 15.7056C1.51294 16.894 1.80782 18.0297 2.34367 19.0582C3.92825 17.6157 7.64472 16.6037 11.9739 16.6037Z" fill="#00ADE5"/>
<path fill-rule="evenodd" clip-rule="evenodd" d="M11.9705 16.6138C16.2928 16.6138 19.999 17.6193 21.5801 19.042C22.1091 18.0289 22.404 16.9052 22.404 15.7267C22.404 11.0247 17.7317 6.89014 11.9705 6.89014C6.21739 6.89014 1.54053 11.0302 1.54053 15.7267C1.54053 16.903 1.83541 18.03 2.36896 19.042C3.9478 17.6193 7.6551 16.6138 11.9705 16.6138Z" fill="#00AFE6"/>
<path fill-rule="evenodd" clip-rule="evenodd" d="M11.9705 16.628C16.2744 16.628 19.976 17.6192 21.5502 19.031C22.0792 18.0233 22.3706 16.9073 22.3706 15.7463C22.3706 11.0958 17.7133 6.97656 11.9705 6.97656C6.23111 6.97656 1.57031 11.0958 1.57031 15.7463C1.57031 16.9073 1.85831 18.0288 2.39071 19.031C3.96841 17.6192 7.66767 16.628 11.9705 16.628Z" fill="#00B1E8"/>
<path fill-rule="evenodd" clip-rule="evenodd" d="M11.9705 16.6343C16.2652 16.6343 19.9484 17.6201 21.525 19.0143C22.0562 18.0231 22.3442 16.9191 22.3442 15.7636C22.3442 11.157 17.6961 7.06616 11.9705 7.06616C6.24488 7.06616 1.59326 11.157 1.59326 15.7636C1.59326 16.9191 1.88356 18.0231 2.41596 19.0143C3.99021 17.6201 7.67685 16.6343 11.9705 16.6343Z" fill="#00B3E9"/>
<path fill-rule="evenodd" clip-rule="evenodd" d="M11.9679 16.65C16.2466 16.65 19.9263 17.6204 21.4948 19.007C22.0249 18.0201 22.3152 16.926 22.3152 15.7891C22.3152 11.2273 17.6831 7.15845 11.9679 7.15845C6.26062 7.15845 1.62622 11.2273 1.62622 15.7891C1.62622 16.926 1.91422 18.0234 2.43974 19.007C4.01169 17.6204 7.68686 16.65 11.9679 16.65Z" fill="#00B5EA"/>
<path fill-rule="evenodd" clip-rule="evenodd" d="M11.9624 16.6565C16.2365 16.6565 19.9036 17.6204 21.4698 18.9938C21.9977 18.0136 22.2857 16.9347 22.2857 15.8055C22.2857 11.2931 17.6662 7.2417 11.9624 7.2417C6.27693 7.2417 1.64941 11.2931 1.64941 15.8055C1.64941 16.9347 1.93741 18.0201 2.46752 18.9938C4.02915 17.6204 7.69973 16.6565 11.9624 16.6565Z" fill="#00B8EC"/>
<path fill-rule="evenodd" clip-rule="evenodd" d="M11.9621 16.6728C16.2213 16.6728 19.8804 17.6202 21.4386 18.9805C21.9675 18.0112 22.2567 16.9477 22.2567 15.825C22.2567 11.3608 17.651 7.33789 11.9621 7.33789C6.28812 7.33789 1.67896 11.3608 1.67896 15.825C1.67896 16.9455 1.96237 18.0134 2.48788 18.9805C4.05181 17.6202 7.70517 16.6728 11.9621 16.6728Z" fill="#03BAED"/>
<path fill-rule="evenodd" clip-rule="evenodd" d="M11.9625 16.6827C16.2079 16.6827 19.8567 17.6202 21.4126 18.9619C21.9369 18.0112 22.2238 16.9532 22.2238 15.8481C22.2238 11.4276 17.633 7.42554 11.9625 7.42554C6.29998 7.42554 1.70459 11.4276 1.70459 15.8481C1.70459 16.9532 1.99144 18.0112 2.51696 18.9619C4.0717 17.6202 7.71474 16.6827 11.9625 16.6827Z" fill="#12BCEF"/>
<path fill-rule="evenodd" clip-rule="evenodd" d="M11.9624 16.696C16.1941 16.696 19.836 17.6225 21.3838 18.9544C21.9094 18.0037 22.1951 16.9643 22.1951 15.8668C22.1951 11.4913 17.6146 7.5144 11.9624 7.5144C6.31715 7.5144 1.73438 11.4913 1.73438 15.8668C1.73438 16.961 2.01664 18.0114 2.53871 18.9544C4.09346 17.6225 7.72961 16.696 11.9624 16.696Z" fill="#1BBFF0"/>
<path fill-rule="evenodd" clip-rule="evenodd" d="M11.9602 16.7046C16.1827 16.7046 19.8085 17.6246 21.3575 18.9379C21.8796 18.0003 22.1619 16.9719 22.1619 15.8843C22.1619 11.558 17.5974 7.60522 11.9602 7.60522C6.32755 7.60522 1.75854 11.558 1.75854 15.8843C1.75854 16.9686 2.0431 18.0036 2.56632 18.9379C4.11304 17.6246 7.73887 16.7046 11.9602 16.7046Z" fill="#20C3F3"/>
<path fill-rule="evenodd" clip-rule="evenodd" d="M11.9601 16.7275C16.1734 16.7275 19.8027 17.6442 21.3482 18.9509C21.8669 18.0232 22.148 16.9948 22.148 15.917C22.148 11.6148 17.5916 7.68506 11.9601 7.68506C6.33775 7.68506 1.77563 11.6148 1.77563 15.917C1.77563 16.9926 2.05905 18.0232 2.57882 18.9509C4.12095 17.6442 7.74448 16.7275 11.9601 16.7275Z" fill="#32C5F3"/>
<path fill-rule="evenodd" clip-rule="evenodd" d="M11.9624 16.7528C16.1711 16.7528 19.7889 17.6641 21.3322 18.962C21.8508 18.0376 22.1377 17.019 22.1377 15.95C22.1377 11.6763 17.5824 7.76733 11.9624 7.76733C6.34351 7.76733 1.78369 11.6763 1.78369 15.95C1.78369 17.0168 2.07169 18.0398 2.58918 18.962C4.13015 17.6641 7.75024 16.7528 11.9624 16.7528Z" fill="#3FC6F3"/>
<path fill-rule="evenodd" clip-rule="evenodd" d="M11.962 16.7791C16.1616 16.7791 19.7794 17.6816 21.318 18.9729C21.8367 18.0562 22.1235 17.0398 22.1235 15.9774C22.1235 11.7322 17.5752 7.84839 11.962 7.84839C6.35347 7.84839 1.80054 11.7322 1.80054 15.9774C1.80054 17.0398 2.08395 18.0562 2.60143 18.9729C4.14585 17.6816 7.75676 16.7791 11.962 16.7791Z" fill="#4AC8F4"/>
<path fill-rule="evenodd" clip-rule="evenodd" d="M11.9624 16.8096C16.1607 16.8096 19.7682 17.7033 21.3046 18.9825C21.8255 18.0735 22.1089 17.0669 22.1089 16.0089C22.1089 11.7955 17.5663 7.9292 11.9624 7.9292C6.36182 7.9292 1.81348 11.7955 1.81348 16.0089C1.81348 17.0637 2.09804 18.0757 2.61322 18.9825C4.15305 17.7033 7.76052 16.8096 11.9624 16.8096Z" fill="#54C9F4"/>
<path fill-rule="evenodd" clip-rule="evenodd" d="M11.9624 16.8316C16.1551 16.8316 19.7579 17.7199 21.2943 18.9969C21.8095 18.0879 22.0975 17.0879 22.0975 16.0408C22.0975 11.8536 17.5595 8.01367 11.9624 8.01367C6.36761 8.01367 1.82959 11.8536 1.82959 16.0408C1.82959 17.0879 2.11071 18.0901 2.62934 18.9969C4.16687 17.7199 7.76172 16.8316 11.9624 16.8316Z" fill="#5CCBF4"/>
<path fill-rule="evenodd" clip-rule="evenodd" d="M11.9621 16.8579C16.1501 16.8579 19.7484 17.7418 21.2814 19.0068C21.7965 18.1032 22.0788 17.1131 22.0788 16.0737C22.0788 11.9139 17.5534 8.09253 11.9621 8.09253C6.37301 8.09253 1.84302 11.9139 1.84302 16.0737C1.84302 17.1131 2.12413 18.1098 2.63932 19.0068C4.17341 17.7418 7.77515 16.8579 11.9621 16.8579Z" fill="#64CDF5"/>
<path fill-rule="evenodd" clip-rule="evenodd" d="M11.9623 16.8862C16.1446 16.8862 19.7406 17.7614 21.2678 19.0143C21.7853 18.1217 22.0687 17.1371 22.0687 16.1009C22.0687 11.9696 17.541 8.17236 11.9623 8.17236C6.38702 8.17236 1.85474 11.9751 1.85474 16.1009C1.85474 17.1371 2.137 18.1217 2.65104 19.0143C4.18743 17.7614 7.77883 16.8862 11.9623 16.8862Z" fill="#6CCEF5"/>
<path fill-rule="evenodd" clip-rule="evenodd" d="M11.9623 16.9072C16.14 16.9072 19.728 17.7812 21.2587 19.0309C21.7704 18.1415 22.0584 17.1591 22.0584 16.1339C22.0584 12.03 17.5353 8.25684 11.9623 8.25684C6.39046 8.25684 1.86621 12.03 1.86621 16.1339C1.86621 17.1591 2.15306 18.1437 2.66366 19.0309C4.19661 17.7812 7.78457 16.9072 11.9623 16.9072Z" fill="#73D0F5"/>
<path fill-rule="evenodd" clip-rule="evenodd" d="M11.9624 16.9336C16.1298 16.9336 19.7144 17.7989 21.2427 19.0398C21.7602 18.1614 22.0425 17.1855 22.0425 16.1625C22.0425 12.0893 17.5297 8.33911 11.9624 8.33911C6.39862 8.33911 1.88354 12.0893 1.88354 16.1625C1.88354 17.1855 2.16581 18.1614 2.67641 19.0398C4.20706 17.7989 7.78814 16.9336 11.9624 16.9336Z" fill="#7AD2F6"/>
<path fill-rule="evenodd" clip-rule="evenodd" d="M11.9624 16.9609C16.1298 16.9609 19.7063 17.8207 21.2289 19.0517C21.7464 18.1722 22.0263 17.2084 22.0263 16.1964C22.0263 12.1505 17.5216 8.42334 11.9624 8.42334C6.40772 8.42334 1.8938 12.1505 1.8938 16.1964C1.8938 17.2084 2.18065 18.1744 2.6901 19.0517C4.21616 17.8207 7.79265 16.9642 11.9624 16.9609Z" fill="#81D3F6"/>
<path fill-rule="evenodd" clip-rule="evenodd" d="M11.9621 16.9806C16.1226 16.9806 19.6933 17.8437 21.2205 19.0627C21.7266 18.1909 22.0111 17.2325 22.0111 16.2271C22.0111 12.2075 17.5144 8.5022 11.9621 8.5022C6.41317 8.5022 1.91187 12.2075 1.91187 16.2271C1.91187 17.2325 2.19298 18.1941 2.70358 19.0627C4.2262 17.8437 7.79925 16.9828 11.9621 16.9806Z" fill="#87D5F6"/>
<path fill-rule="evenodd" clip-rule="evenodd" d="M11.9623 17.0114C16.116 17.0114 19.6844 17.858 21.2059 19.0705C21.7176 18.2107 22.0011 17.2578 22.0011 16.26C22.0011 12.2624 17.5055 8.58447 11.9623 8.58447C6.42262 8.58447 1.92017 12.2624 1.92017 16.26C1.92017 17.2578 2.20358 18.2129 2.71303 19.0705C4.23794 17.858 7.80755 17.0114 11.9623 17.0114Z" fill="#8ED7F7"/>
<path fill-rule="evenodd" clip-rule="evenodd" d="M11.9625 17.0341C16.1115 17.0341 19.6731 17.8797 21.1923 19.0834C21.7029 18.2247 21.9863 17.2795 21.9863 16.2872C21.9863 12.3256 17.4987 8.66309 11.9625 8.66309C6.42963 8.66309 1.9375 12.3256 1.9375 16.2872C1.9375 17.2795 2.21747 18.2269 2.72577 19.0834C4.24839 17.8797 7.81341 17.0341 11.9625 17.0341Z" fill="#94D9F7"/>
<path fill-rule="evenodd" clip-rule="evenodd" d="M11.9625 17.0639C16.1047 17.0639 19.6639 17.8974 21.1785 19.0967C21.6891 18.2424 21.976 17.3026 21.976 16.3213C21.976 12.3849 17.4919 8.75195 11.9625 8.75195C6.43426 8.75195 1.95361 12.3871 1.95361 16.3213C1.95361 17.3026 2.23129 18.2424 2.74303 19.0967C4.26221 17.8974 7.81919 17.0639 11.9625 17.0639Z" fill="#9ADBF7"/>
<path fill-rule="evenodd" clip-rule="evenodd" d="M11.9624 17.088C16.1022 17.088 19.65 17.9182 21.1658 19.1109C21.6741 18.2599 21.9575 17.3278 21.9575 16.3487C21.9575 12.4397 17.4791 8.82861 11.9624 8.82861C6.44215 8.82861 1.96265 12.4397 1.96265 16.3487C1.96265 17.3311 2.24721 18.2621 2.75092 19.1109C4.2678 17.9182 7.82364 17.088 11.9624 17.088Z" fill="#A0DDF8"/>
<path fill-rule="evenodd" clip-rule="evenodd" d="M11.9621 17.1132C16.0928 17.1132 19.6383 17.939 21.1586 19.1197C21.6589 18.2785 21.94 17.3519 21.94 16.3815C21.94 12.5065 17.4742 8.91187 11.9621 8.91187C6.44989 8.91187 1.98071 12.5076 1.98071 16.3815C1.98071 17.3519 2.25724 18.2785 2.76325 19.1197C4.28013 17.939 7.82908 17.1132 11.9621 17.1132Z" fill="#A6DEF8"/>
<path fill-rule="evenodd" clip-rule="evenodd" d="M11.9625 17.1404C16.0886 17.1404 19.6329 17.9564 21.1441 19.1272C21.6501 18.2937 21.9324 17.3748 21.9324 16.4143C21.9324 12.56 17.4655 8.9895 11.9625 8.9895C6.45719 8.9895 1.99146 12.56 1.99146 16.4088C1.99146 17.3748 2.27142 18.297 2.78202 19.1272C4.29202 17.9564 7.83523 17.1404 11.9625 17.1404Z" fill="#ACE0F9"/>
<path fill-rule="evenodd" clip-rule="evenodd" d="M11.962 17.1647C16.0813 17.1647 19.6187 17.9762 21.131 19.1427C21.6313 18.3125 21.9136 17.4012 21.9136 16.4429C21.9136 12.6248 17.4604 9.07837 11.962 9.07837C6.46363 9.07837 2.00708 12.6248 2.00708 16.4429C2.00708 17.4012 2.28705 18.3147 2.79076 19.1427C4.30076 17.9762 7.84053 17.1647 11.962 17.1647Z" fill="#B2E2F9"/>
<path fill-rule="evenodd" clip-rule="evenodd" d="M11.9624 17.1941C16.0758 17.1941 19.6087 17.9947 21.1141 19.1535C21.6201 18.3288 21.9024 17.4241 21.9024 16.4723C21.9024 12.6773 17.4516 9.1582 11.9624 9.1582C6.47313 9.1582 2.02002 12.6806 2.02002 16.4723C2.02002 17.4263 2.29769 18.3288 2.80256 19.1535C4.31255 17.9947 7.84314 17.1941 11.9624 17.1941Z" fill="#B8E4F9"/>
<path fill-rule="evenodd" clip-rule="evenodd" d="M11.9624 17.2182C16.0702 17.2182 19.5985 18.02 21.1027 19.1634C21.6076 18.3474 21.8899 17.446 21.8899 16.5041C21.8899 12.7375 17.4471 9.24146 11.9624 9.24146C6.48353 9.24146 2.03271 12.7397 2.03271 16.5041C2.03271 17.4482 2.31383 18.3474 2.81755 19.1634C4.32295 18.02 7.85355 17.2182 11.9624 17.2182Z" fill="#BDE6FA"/>
<path fill-rule="evenodd" clip-rule="evenodd" d="M11.9621 17.2412C16.0641 17.2412 19.5855 18.0375 21.0875 19.1755C21.5935 18.3617 21.8734 17.4734 21.8734 16.5381C21.8734 12.8 17.4387 9.32471 11.9621 9.32471C6.48431 9.32471 2.04956 12.8 2.04956 16.5381C2.04956 17.4767 2.32494 18.3617 2.82636 19.1755C4.33291 18.0375 7.85777 17.2467 11.9621 17.2412Z" fill="#C3E8FA"/>
<path fill-rule="evenodd" clip-rule="evenodd" d="M11.9624 17.2664C16.0587 17.2664 19.5778 18.0561 21.0763 19.1864C21.5835 18.3814 21.8634 17.4964 21.8634 16.5688C21.8634 12.8602 17.4298 9.40576 11.9624 9.40576C6.49725 9.40576 2.0625 12.8602 2.0625 16.5688C2.0625 17.4986 2.34017 18.3814 2.84159 19.1864C4.34126 18.0561 7.86382 17.2697 11.9624 17.2664Z" fill="#C9EAFA"/>
<path fill-rule="evenodd" clip-rule="evenodd" d="M11.962 17.2927C16.0526 17.2927 19.5705 18.078 21.0633 19.1941C21.5659 18.3989 21.847 17.5205 21.847 16.5994C21.847 12.9183 17.4214 9.48682 11.962 9.48682C6.5015 9.48682 2.07593 12.9183 2.07593 16.5994C2.07593 17.5227 2.35131 18.3989 2.85273 19.1941C4.35584 18.078 7.86692 17.2927 11.962 17.2927Z" fill="#CEECFB"/>
<path fill-rule="evenodd" clip-rule="evenodd" d="M11.9624 17.32C16.0507 17.32 19.5549 18.0954 21.0545 19.206C21.556 18.4174 21.8359 17.5434 21.8359 16.6278C21.8359 12.9773 17.4161 9.56665 11.9624 9.56665C6.50878 9.56665 2.09009 12.9773 2.09009 16.6278C2.09009 17.5467 2.36891 18.4174 2.86574 19.206C4.36656 18.0954 7.8765 17.32 11.9624 17.32Z" fill="#D4EEFB"/>
<path fill-rule="evenodd" clip-rule="evenodd" d="M11.9623 17.3431C16.0448 17.3431 19.5433 18.1153 21.0429 19.216C21.5409 18.434 21.8232 17.5665 21.8232 16.6608C21.8232 13.0376 17.4068 9.64673 11.9623 9.64673C6.51437 9.64673 2.09912 13.0376 2.09912 16.6564C2.09912 17.5687 2.3768 18.4384 2.88051 19.216C4.37674 18.1153 7.87979 17.3475 11.9623 17.3431Z" fill="#D9F0FB"/>
<path fill-rule="evenodd" clip-rule="evenodd" d="M11.9623 17.3704C16.0391 17.3704 19.5364 18.1381 21.0281 19.2312C21.5249 18.4492 21.806 17.5938 21.806 16.6913C21.806 13.0978 17.3999 9.72656 11.9623 9.72656C6.52245 9.72656 2.11523 13.0978 2.11523 16.688C2.11523 17.5938 2.39291 18.4492 2.89203 19.2312C4.38711 18.1381 7.88902 17.3704 11.9623 17.3704Z" fill="#DFF2FC"/>
<path fill-rule="evenodd" clip-rule="evenodd" d="M11.9625 17.3946C16.0312 17.3946 19.5262 18.1569 21.011 19.239C21.5101 18.468 21.7889 17.6191 21.7889 16.721C21.7889 13.1549 17.3897 9.81543 11.9625 9.81543C6.53175 9.81543 2.13257 13.1549 2.13257 16.721C2.13257 17.6202 2.4068 18.468 2.90134 19.239C4.39642 18.1569 7.89603 17.3946 11.9625 17.3946Z" fill="#E5F4FC"/>
<path fill-rule="evenodd" clip-rule="evenodd" d="M11.9622 17.4241C16.0264 17.4241 19.5134 18.1721 21.0004 19.2521C21.4984 18.4865 21.7795 17.642 21.7795 16.7527C21.7795 13.2128 17.3803 9.89966 11.9622 9.89966C6.53842 9.89966 2.14038 13.2128 2.14038 16.7505C2.14038 17.6442 2.4192 18.4865 2.91374 19.2521C4.40882 18.1721 7.9004 17.4241 11.9622 17.4241Z" fill="#EAF6FD"/>
<path fill-rule="evenodd" clip-rule="evenodd" d="M11.9623 17.4461C16.0207 17.4461 19.5019 18.1942 20.9901 19.261C21.4858 18.4997 21.7646 17.6641 21.7646 16.7846C21.7646 13.2743 17.3746 9.97754 11.9623 9.97754C6.54535 9.97754 2.15649 13.2743 2.15649 16.7846C2.15649 17.6652 2.43187 18.4997 2.92756 19.261C4.41919 18.1942 7.90504 17.4461 11.9623 17.4461Z" fill="#F0F8FD"/>
<path fill-rule="evenodd" clip-rule="evenodd" d="M11.962 17.4735C16.0124 17.4735 19.4868 18.2128 20.9773 19.2686C21.4729 18.5206 21.7529 17.686 21.7529 16.8152C21.7529 13.3301 17.364 10.0586 11.962 10.0586C6.55312 10.0586 2.17114 13.3301 2.17114 16.812C2.17114 17.6925 2.44767 18.5206 2.93876 19.2686C4.4304 18.2128 7.90936 17.4768 11.962 17.4735Z" fill="#F6FBFD"/>
<path fill-rule="evenodd" clip-rule="evenodd" d="M11.9624 17.4986C16.0116 17.4986 19.4791 18.2357 20.965 19.286C21.4572 18.5336 21.7361 17.71 21.7361 16.8436C21.7361 13.3935 17.3633 10.1406 11.9624 10.1406C6.56037 10.1406 2.18872 13.3935 2.18872 16.8436C2.18872 17.7154 2.46181 18.5336 2.95405 19.286C4.44339 18.2357 7.91202 17.4986 11.9624 17.4986Z" fill="#FEFEFE"/>
</g>
<path fill-rule="evenodd" clip-rule="evenodd" d="M11.9625 14.0474C8.425 14.0474 5.13421 14.6268 2.41943 15.5982C4.04991 19.1151 7.70557 21.5554 11.9625 21.5554C16.2194 21.5554 19.8785 19.1129 21.5055 15.5982C18.793 14.6268 15.5034 14.0474 11.9625 14.0474Z" fill="#0083C9"/>
</svg>
