<svg width="24" height="24" viewBox="0 0 24 24" fill="none" xmlns="http://www.w3.org/2000/svg">
<g clip-path="url(#clip0_8045_4276)">
<path d="M6.10634 6.22852H10.83C11.4893 6.22852 11.8994 6.76596 11.7456 7.42752L9.54644 16.8694C9.39124 17.5287 8.73106 18.0666 8.07122 18.0666H3.34808C2.68962 18.0666 2.27859 17.5287 2.43241 16.8694L4.63251 7.42752C4.78633 6.76596 5.44617 6.22852 6.10634 6.22852Z" fill="#E21836"/>
<path d="M10.4371 6.22852H15.8691C16.5284 6.22852 16.2311 6.76596 16.076 7.42752L13.8772 16.8694C13.7229 17.5287 13.771 18.0666 13.1104 18.0666H7.67837C7.01773 18.0666 6.60889 17.5287 6.76409 16.8694L8.96281 7.42752C9.11893 6.76596 9.77738 6.22852 10.4371 6.22852Z" fill="#00447C"/>
<path d="M15.6537 6.22852H20.3773C21.0376 6.22852 21.4477 6.76596 21.2926 7.42752L19.0938 16.8694C18.9386 17.5287 18.2779 18.0666 17.6178 18.0666H12.8963C12.2357 18.0666 11.8259 17.5287 11.9807 16.8694L14.1798 7.42752C14.3337 6.76596 14.993 6.22852 15.6537 6.22852Z" fill="#007B84"/>
<path d="M7.34015 9.25446C6.85439 9.25942 6.71094 9.25446 6.66511 9.24364C6.6475 9.32734 6.31971 10.8394 6.31879 10.8407C6.24821 11.1466 6.19686 11.3646 6.02243 11.5054C5.92342 11.5873 5.80782 11.6268 5.67381 11.6268C5.45839 11.6268 5.3329 11.5198 5.31183 11.317L5.3078 11.2473C5.3078 11.2473 5.37342 10.8376 5.37342 10.8353C5.37342 10.8353 5.71744 9.45733 5.77904 9.27519C5.78226 9.26483 5.78319 9.25942 5.78399 9.25446C5.11437 9.26034 4.99567 9.25446 4.98749 9.24364C4.983 9.25849 4.96642 9.34392 4.96642 9.34392L4.61515 10.897L4.58498 11.0287L4.52661 11.4595C4.52661 11.5873 4.55171 11.6916 4.60168 11.7798C4.76172 12.0595 5.21822 12.1014 5.47647 12.1014C5.80921 12.1014 6.12133 12.0307 6.33226 11.9016C6.69839 11.6853 6.79418 11.3471 6.87961 11.0466L6.91921 10.8925C6.91921 10.8925 7.2736 9.46136 7.33381 9.27519C7.33612 9.26483 7.33704 9.25942 7.34015 9.25446ZM8.54591 10.409C8.46048 10.409 8.30436 10.4297 8.16413 10.4984C8.11324 10.5246 8.06511 10.5547 8.01434 10.5848L8.06016 10.4193L8.03506 10.3915C7.73767 10.4517 7.67112 10.4597 7.39641 10.4984L7.37338 10.5137C7.34149 10.7782 7.31317 10.977 7.19493 11.4969C7.14991 11.6884 7.10316 11.8819 7.0563 12.073L7.06897 12.0973C7.35047 12.0824 7.4359 12.0824 7.68056 12.0865L7.70037 12.0649C7.73145 11.9057 7.73548 11.8684 7.80433 11.5459C7.83668 11.393 7.90415 11.057 7.93743 10.9374C7.99856 10.9091 8.05889 10.8812 8.11646 10.8812C8.25359 10.8812 8.23689 11.0009 8.23159 11.0485C8.22572 11.1285 8.17575 11.3899 8.12452 11.6143L8.09032 11.7591C8.06649 11.8661 8.04036 11.9701 8.01652 12.0761L8.02689 12.0973C8.30436 12.0824 8.38898 12.0824 8.62593 12.0865L8.65379 12.0649C8.69662 11.8162 8.70917 11.7497 8.78516 11.3876L8.82338 11.2212C8.89765 10.8956 8.93495 10.7305 8.87876 10.5961C8.81935 10.4453 8.67682 10.409 8.54591 10.409ZM9.89289 10.7499C9.7454 10.7782 9.65134 10.7971 9.55785 10.8093C9.46517 10.8241 9.37478 10.8376 9.23225 10.8574L9.22096 10.8676L9.2106 10.8758C9.19575 10.982 9.18539 11.0737 9.1657 11.1816C9.14901 11.2932 9.12333 11.4199 9.08154 11.6021C9.04918 11.7415 9.03249 11.7901 9.01407 11.8391C8.99611 11.8882 8.97631 11.9359 8.93992 12.073L8.94844 12.0856L8.95558 12.0973C9.08879 12.0909 9.17595 12.0864 9.26552 12.0856C9.35498 12.0824 9.44766 12.0856 9.59112 12.0864L9.60367 12.0762L9.61714 12.0649C9.63787 11.9413 9.64097 11.908 9.65364 11.8477C9.66619 11.783 9.68783 11.6934 9.74091 11.4541C9.76601 11.3418 9.79399 11.2297 9.82001 11.1151C9.84706 11.0009 9.87539 10.8884 9.90233 10.776L9.8983 10.7624L9.89289 10.7499ZM9.89603 10.2902C9.76201 10.2111 9.5268 10.2362 9.36849 10.3455C9.21064 10.4526 9.19268 10.6045 9.32623 10.6847C9.45795 10.7616 9.69409 10.7387 9.85101 10.6285C10.0085 10.5191 10.0282 10.3685 9.89603 10.2902ZM10.7065 12.1221C10.9777 12.1221 11.2556 12.0473 11.4648 11.8256C11.6257 11.6458 11.6996 11.3782 11.7251 11.268C11.8084 10.9028 11.7435 10.7323 11.6621 10.6284C11.5385 10.4701 11.32 10.4193 11.0933 10.4193C10.9569 10.4193 10.6323 10.4328 10.3786 10.6667C10.1965 10.8353 10.1123 11.0642 10.0615 11.2837C10.0103 11.5072 9.95135 11.9098 10.3215 12.0595C10.4357 12.1086 10.6004 12.1221 10.7065 12.1221ZM10.6853 11.3003C10.7479 11.0238 10.8217 10.7917 11.01 10.7917C11.1576 10.7917 11.1683 10.9644 11.1027 11.2419C11.091 11.3035 11.0371 11.5325 10.9642 11.63C10.9133 11.7019 10.8531 11.7456 10.7865 11.7456C10.7667 11.7456 10.649 11.7456 10.6471 11.5707C10.6462 11.4843 10.6638 11.3961 10.6853 11.3003ZM12.4029 12.0865L12.4241 12.065C12.4541 11.9057 12.4591 11.8683 12.5256 11.5459C12.5589 11.393 12.6278 11.0571 12.6601 10.9375C12.7214 10.909 12.7807 10.8812 12.8401 10.8812C12.9763 10.8812 12.9597 11.0008 12.9543 11.0484C12.9493 11.1286 12.8994 11.3898 12.8472 11.6142L12.8149 11.7591C12.7901 11.8661 12.7632 11.97 12.7393 12.0761L12.7497 12.0973C13.0281 12.0825 13.1095 12.0825 13.3478 12.0865L13.3766 12.065C13.4184 11.8162 13.4297 11.7496 13.508 11.3876L13.5453 11.2211C13.6199 10.8955 13.6576 10.7306 13.6024 10.5961C13.5412 10.4454 13.3978 10.409 13.2687 10.409C13.1832 10.409 13.0262 10.4296 12.8868 10.4985C12.837 10.5246 12.787 10.5546 12.7379 10.5848L12.7807 10.4194L12.7577 10.3914C12.4605 10.4517 12.3925 10.4598 12.1182 10.4985L12.0971 10.5138C12.0638 10.7782 12.0368 10.9769 11.9185 11.4969C11.8735 11.6885 11.8268 11.8819 11.78 12.073L11.7926 12.0973C12.0745 12.0825 12.1587 12.0825 12.4029 12.0865ZM14.4483 12.0973C14.4658 12.0118 14.5698 11.5055 14.5707 11.5055C14.5707 11.5055 14.6592 11.1339 14.6647 11.1205C14.6647 11.1205 14.6925 11.0818 14.7204 11.0665H14.7614C15.1481 11.0665 15.5848 11.0665 15.9271 10.8147C16.16 10.642 16.3193 10.3869 16.3903 10.077C16.4087 10.001 16.4223 9.91064 16.4223 9.82026C16.4223 9.70155 16.3985 9.58412 16.3296 9.49235C16.1551 9.24815 15.8075 9.24366 15.4062 9.24182C15.405 9.24182 15.2084 9.24366 15.2084 9.24366C14.6948 9.25 14.4888 9.24816 14.4042 9.23779C14.3971 9.27521 14.3836 9.34176 14.3836 9.34176C14.3836 9.34176 14.1996 10.1944 14.1996 10.1958C14.1996 10.1958 13.7594 12.0087 13.7386 12.0942C14.1871 12.0887 14.371 12.0887 14.4483 12.0973ZM14.7892 10.5826C14.7892 10.5826 14.9848 9.7316 14.9839 9.73483L14.9903 9.69119L14.993 9.65792L15.0712 9.66598C15.0712 9.66598 15.4746 9.70063 15.4841 9.70155C15.6433 9.76315 15.7089 9.92192 15.6631 10.1292C15.6213 10.3186 15.4985 10.4778 15.3406 10.5547C15.2106 10.6199 15.0514 10.6253 14.8873 10.6253H14.7812L14.7892 10.5826ZM16.0072 11.3161C15.9555 11.5365 15.8961 11.939 16.2644 12.0824C16.3818 12.1324 16.487 12.1473 16.594 12.1419C16.707 12.1357 16.8116 12.0791 16.9086 11.9976C16.8998 12.0311 16.8911 12.0646 16.8823 12.0982L16.899 12.1197C17.1639 12.1086 17.2461 12.1086 17.5332 12.1108L17.5592 12.091C17.6011 11.8446 17.6406 11.6053 17.7495 11.134C17.8026 10.9082 17.8555 10.6846 17.91 10.4597L17.9015 10.435C17.6051 10.4899 17.5259 10.5017 17.2408 10.5421L17.2192 10.5597C17.2163 10.5826 17.2133 10.6046 17.2106 10.6266C17.1662 10.555 17.102 10.4938 17.0028 10.4557C16.8761 10.4059 16.5784 10.4701 16.3224 10.7031C16.1426 10.8695 16.0562 11.0975 16.0072 11.3161ZM16.6296 11.3296C16.693 11.058 16.7659 10.8282 16.9547 10.8282C17.0741 10.8282 17.137 10.9384 17.1242 11.1263C17.1141 11.1731 17.1031 11.2225 17.0901 11.2783C17.0712 11.3591 17.0507 11.4391 17.0308 11.5192C17.0106 11.574 16.987 11.6257 16.9611 11.6601C16.9125 11.729 16.7969 11.7717 16.7303 11.7717C16.7114 11.7717 16.5949 11.7717 16.5909 11.5999C16.59 11.5144 16.6076 11.4263 16.6296 11.3296ZM19.8799 10.4328L19.857 10.4067C19.5637 10.4661 19.5106 10.4755 19.2412 10.5119L19.2214 10.5317C19.2205 10.5349 19.2197 10.5399 19.2183 10.5444L19.2174 10.5399C19.0168 11.0026 19.0227 10.9028 18.8594 11.2671C18.8585 11.2505 18.8585 11.2401 18.8576 11.2225L18.8167 10.4328L18.7911 10.4067C18.4839 10.4661 18.4766 10.4755 18.1929 10.5119L18.1708 10.5317C18.1677 10.5411 18.1677 10.5515 18.1659 10.5628L18.1677 10.5668C18.2032 10.748 18.1947 10.7076 18.2302 10.9936C18.2468 11.134 18.2689 11.2751 18.2855 11.4137C18.3135 11.6457 18.3291 11.7599 18.3633 12.114C18.1717 12.4301 18.1264 12.5498 17.9419 12.8272L17.9432 12.83L17.8133 13.0354C17.7985 13.057 17.785 13.0719 17.7661 13.0782C17.7454 13.0885 17.7185 13.0903 17.681 13.0903H17.6091L17.5021 13.4461L17.8691 13.4524C18.0845 13.4515 18.2199 13.3507 18.2928 13.2153L18.5235 12.82H18.5198L18.5441 12.7921C18.6993 12.458 19.8799 10.4328 19.8799 10.4328ZM16.0072 15.1052H15.8515L16.4276 13.1996H16.6187L16.6794 13.0033L16.6853 13.2216C16.6782 13.3566 16.7843 13.4762 17.0632 13.4564H17.3857L17.4966 13.0895H17.3753C17.3055 13.0895 17.2732 13.0718 17.2772 13.0341L17.2713 12.812H16.6741V12.8131C16.481 12.8172 15.9045 12.8317 15.7877 12.8628C15.6464 12.8991 15.4976 13.0062 15.4976 13.0062L15.5561 12.8097H14.9974L14.881 13.1996L14.2972 15.1343H14.1839L14.0728 15.4986H15.1854L15.1481 15.6201H15.6964L15.7328 15.4986H15.8866L16.0072 15.1052ZM15.5507 13.5868C15.4612 13.6116 15.2947 13.6866 15.2947 13.6866L15.4428 13.1996H15.8866L15.7795 13.5545C15.7795 13.5545 15.6424 13.5625 15.5507 13.5868ZM15.5592 14.2826C15.5592 14.2826 15.4197 14.3001 15.328 14.3208C15.2376 14.3482 15.0681 14.4346 15.0681 14.4346L15.221 13.9277H15.6672L15.5592 14.2826ZM15.3105 15.1097H14.8653L14.9943 14.682H15.4382L15.3105 15.1097ZM16.3827 13.9277H17.0244L16.9322 14.2264H16.2819L16.1843 14.5529H16.7533L16.3225 15.1596C16.2923 15.2041 16.2652 15.2199 16.2352 15.2324C16.205 15.2478 16.1654 15.2657 16.1196 15.2657H15.9617L15.8533 15.6233H16.2662C16.4808 15.6233 16.6075 15.5257 16.7011 15.3975L16.9966 14.9932L17.06 15.4038C17.0735 15.4807 17.1287 15.5257 17.1662 15.5432C17.2075 15.5639 17.2502 15.5995 17.3105 15.6048C17.3753 15.6075 17.422 15.6097 17.4531 15.6097H17.6559L17.7778 15.2095H17.6977C17.6518 15.2095 17.5727 15.2018 17.5592 15.1874C17.5458 15.1699 17.5458 15.143 17.5385 15.102L17.4742 14.6905H17.2106L17.3262 14.5529H17.9752L18.075 14.2264H17.4742L17.5678 13.9277H18.1668L18.2779 13.5594H16.4919L16.3827 13.9277ZM10.9624 15.1929L11.1122 14.6946H11.7278L11.8403 14.324H11.2241L11.3181 14.0172H11.9203L12.0319 13.6584H10.5252L10.4159 14.0172H10.7582L10.6669 14.324H10.3237L10.21 14.7009H10.5521L10.3525 15.3602C10.3256 15.4474 10.3652 15.4807 10.3903 15.5212C10.4159 15.5607 10.442 15.5869 10.5005 15.6017C10.5608 15.6152 10.6021 15.6232 10.6583 15.6232H11.3523L11.476 15.2127L11.1683 15.2549C11.1089 15.2549 10.9444 15.2478 10.9624 15.1929ZM11.033 12.8074L10.877 13.0894C10.8436 13.151 10.8135 13.1892 10.7865 13.2068C10.7626 13.2217 10.7154 13.2279 10.6471 13.2279H10.5657L10.4568 13.5886H10.7272C10.8572 13.5886 10.957 13.5409 11.0047 13.5171C11.0559 13.4897 11.0694 13.5054 11.109 13.4671L11.2003 13.388H12.0444L12.1565 13.0125H11.5385L11.6464 12.8074H11.033ZM12.2792 15.2001C12.2648 15.1794 12.2752 15.1429 12.2972 15.0669L12.5279 14.3032H13.3487C13.4683 14.3015 13.5547 14.3001 13.6109 14.2961C13.6712 14.2897 13.7368 14.2682 13.8083 14.2295C13.8821 14.189 13.9199 14.1463 13.9518 14.0972C13.9874 14.0483 14.0445 13.9412 14.0935 13.7761L14.3835 12.8097L13.5318 12.8146C13.5318 12.8146 13.2695 12.8533 13.154 12.896C13.0375 12.9437 12.871 13.0768 12.871 13.0768L12.9479 12.8119H12.4218L11.6851 15.2549C11.659 15.3498 11.6415 15.4186 11.6375 15.46C11.6361 15.5045 11.6937 15.5486 11.731 15.5819C11.7751 15.6152 11.8402 15.6098 11.9028 15.6152C11.9685 15.6201 12.062 15.6232 12.191 15.6232H12.5954L12.7195 15.2041L12.3575 15.2383C12.3188 15.2383 12.2909 15.2176 12.2792 15.2001ZM12.6768 13.7874H13.5389L13.4841 13.9592C13.4764 13.9632 13.458 13.9507 13.3703 13.961H12.6237L12.6768 13.7874ZM12.8495 13.2113H13.7189L13.6564 13.4182C13.6564 13.4182 13.2466 13.4142 13.181 13.4262C12.8922 13.4762 12.7235 13.6305 12.7235 13.6305L12.8495 13.2113ZM13.5034 14.5344C13.4963 14.5601 13.485 14.5758 13.4692 14.5875C13.4517 14.5988 13.4234 14.6028 13.3811 14.6028H13.2583L13.2655 14.3936H12.7546L12.7339 15.4164C12.7331 15.4902 12.7402 15.5329 12.7942 15.5671C12.8482 15.6098 13.0146 15.6152 13.2385 15.6152H13.5587L13.6743 15.2324L13.3955 15.2477L13.3029 15.2531C13.2902 15.2477 13.2781 15.2427 13.2646 15.2293C13.2529 15.2176 13.2331 15.2248 13.2363 15.151L13.2385 14.8888L13.5308 14.8767C13.6887 14.8767 13.7561 14.8254 13.8137 14.7765C13.8686 14.7296 13.8866 14.6757 13.9073 14.6028L13.9564 14.3707H13.5547L13.5034 14.5344Z" fill="#FEFEFE"/>
</g>
<defs>
<clipPath id="clip0_8045_4276">
<rect width="18.96" height="11.85" fill="white" transform="translate(2.40015 6.22852)"/>
</clipPath>
</defs>
</svg>
