<svg width="24" height="24" viewBox="0 0 24 24" fill="none" xmlns="http://www.w3.org/2000/svg">
<path d="M6.43529 6.74588C6.09019 7.58706 4.65372 8.17372 3.89451 8.93294C2.13451 10.6929 2.6047 13.9455 4.41647 14.571C6.08588 15.1404 4.50706 12.1122 6.08588 10.7965C7.7596 9.51529 12.069 11.7541 8.61372 14.6745C7.80274 15.2698 7.68196 15.4682 7.15568 15.9945C4.32588 18.8243 8.91568 22.0294 12.2761 21.6196C15.2525 21.2573 16.0678 19.3031 16.482 16.5208C16.8573 13.9843 16.3525 13.1 16.7451 11.258C18.009 7.76823 22.0941 10.7404 22.6678 12.4314C22.6808 12.2373 22.698 12.0475 22.698 11.849C22.698 5.86157 17.8408 1 11.8447 1C8.41098 1 5.35686 2.60039 3.37255 5.08941C5.66313 3.66157 7.14706 5.02471 6.43529 6.74588Z" fill="url(#paint0_radial_8045_4135)"/>
<path fill-rule="evenodd" clip-rule="evenodd" d="M16.6051 13.6232C16.5745 12.8573 16.5473 12.176 16.7451 11.258C18.009 7.76817 22.0898 10.7403 22.6722 12.4356C22.3702 18.1556 17.651 22.7066 11.849 22.7066C5.85726 22.7066 1 17.845 1 11.8533C1 9.29523 1.88863 6.94857 3.37255 5.09366C5.66314 3.66151 7.14706 5.02464 6.43529 6.74582C6.2277 7.25562 5.61189 7.67257 4.99063 8.09322C4.59205 8.36309 4.19123 8.63448 3.89451 8.93288C2.13451 10.6929 2.60471 13.9454 4.41647 14.5709C5.26602 14.8607 5.27437 14.2188 5.28574 13.345C5.29672 12.5018 5.31051 11.4426 6.08588 10.7964C7.75529 9.51523 12.069 11.7541 8.61373 14.6744C7.98641 15.1349 7.77207 15.3579 7.46358 15.6789C7.37326 15.7729 7.27487 15.8753 7.15569 15.9944C4.32588 18.8243 8.91569 22.0293 12.2761 21.6195C15.2525 21.2572 16.0722 19.3074 16.482 16.5207C16.6702 15.2506 16.636 14.394 16.6051 13.6232ZM19.1002 8.05715C18.5998 8.75598 17.3574 8.70421 16.3178 7.95794C15.2825 7.20735 14.8469 6.03402 15.3429 5.33951C15.8433 4.645 17.0943 4.69245 18.1296 5.44735C19.1649 6.18931 19.6049 7.36264 19.1002 8.05715Z" fill="url(#paint1_radial_8045_4135)"/>
<defs>
<radialGradient id="paint0_radial_8045_4135" cx="0" cy="0" r="1" gradientUnits="userSpaceOnUse" gradientTransform="translate(14.4013 7.16378) scale(14.4135 14.9549)">
<stop stop-color="#EF402F"/>
<stop offset="0.2057" stop-color="#E0382B"/>
<stop offset="0.5402" stop-color="#C42225"/>
<stop offset="0.6" stop-color="#BE1E24"/>
<stop offset="1" stop-color="#7A1113"/>
</radialGradient>
<radialGradient id="paint1_radial_8045_4135" cx="0" cy="0" r="1" gradientUnits="userSpaceOnUse" gradientTransform="translate(15.5075 6.55873) scale(14.0625 11.8181)">
<stop offset="0.005618" stop-color="#E6E7E8"/>
<stop offset="1" stop-color="#8A9297"/>
</radialGradient>
</defs>
</svg>
