<svg width="24" height="24" viewBox="0 0 24 24" fill="none" xmlns="http://www.w3.org/2000/svg">
<path fill-rule="evenodd" clip-rule="evenodd" d="M13.6365 2C13.483 2 13.3611 2.12384 13.3611 2.27947L13.3654 2.74853C13.3611 4.27519 13.6811 5.93885 14.3506 7.67812L14.8394 8.85627C14.8786 8.94942 14.9668 9.01847 15.0735 9.02614H15.0952L21.1828 8.98449C21.3384 8.98449 21.4625 8.85955 21.4625 8.70612C21.4625 8.67324 21.4593 8.64365 21.4473 8.61625L21.444 8.61296C20.2629 5.19579 17.303 2.62031 13.6844 2.00219C13.6844 2.00219 13.6768 2.00219 13.6746 2H13.6365ZM16.2412 12.1815C16.2412 12.0236 16.3664 11.8954 16.5199 11.8954L21.718 11.8582C21.8715 11.8582 21.9945 11.9831 21.9945 12.1343C21.9978 12.1354 21.9989 12.1365 22 12.1387V12.1826C21.9357 14.7021 20.9538 16.9971 19.3742 18.732C19.3734 18.732 19.3729 18.7326 19.3726 18.7334C19.3721 18.7347 19.3721 18.7363 19.3721 18.7363C19.3187 18.7857 19.248 18.824 19.1685 18.824C19.0553 18.824 18.954 18.7517 18.9116 18.6509L16.2652 12.2911V12.2801C16.2501 12.2487 16.2457 12.2152 16.2414 12.1827L16.2412 12.1815ZM11.9999 11.9314C11.3608 11.9336 10.8111 12.338 10.5977 12.9025C10.5954 12.9042 10.5943 12.9065 10.5933 12.9087C10.5925 12.9106 10.5916 12.9124 10.5901 12.9134L7.50715 20.6311C7.50715 20.6333 7.5028 20.6366 7.5028 20.6366C7.48756 20.6749 7.4832 20.7056 7.4832 20.744C7.4832 20.8492 7.54743 20.9456 7.63561 20.9917H7.63779C8.9746 21.6503 10.478 22.0109 12.0674 21.9999C13.6546 21.9857 15.1601 21.6021 16.486 20.9303C16.4881 20.9282 16.4901 20.9271 16.492 20.9261C16.4942 20.9249 16.4963 20.9239 16.498 20.9215C16.5818 20.8722 16.633 20.7801 16.633 20.6793C16.633 20.641 16.6254 20.6026 16.6134 20.573V20.5708L13.3715 12.783C13.1222 12.2778 12.6106 11.9314 12.0151 11.9314H11.9999ZM7.47572 11.9587L2.27977 11.9938C2.12628 11.9938 2 12.122 2.00544 12.2788V12.2799C2.00544 12.2799 2 12.2842 2 12.2908C2.09035 14.8214 3.1093 17.1119 4.71827 18.8303C4.71827 18.8327 4.72077 18.835 4.72309 18.8372C4.7251 18.8391 4.72698 18.8409 4.72698 18.8424C4.77814 18.8884 4.84672 18.9224 4.92401 18.9224C5.03941 18.9224 5.13847 18.8479 5.17875 18.7492L7.7359 12.3467C7.75114 12.3116 7.75876 12.2733 7.7555 12.2404C7.7555 12.0848 7.63248 11.9587 7.47899 11.9587H7.47572ZM10.1755 2.02514H10.1852C10.1983 2.02075 10.2136 2.02075 10.2212 2.02075C10.3747 2.02075 10.5042 2.1424 10.5042 2.29912L10.5075 2.77148H10.5042C10.5293 4.29814 10.2331 5.96398 9.58978 7.71312L9.11841 8.89674C9.0814 8.98223 9.00737 9.04799 8.91593 9.06662H8.89742H8.8898C8.87891 9.0721 8.86694 9.0721 8.86694 9.0721L2.77615 9.11593C2.6183 9.11593 2.4942 8.99319 2.48984 8.83866C2.48984 8.80688 2.49746 8.77619 2.50508 8.74989V8.7466C3.63942 5.31737 6.5667 2.69257 10.1755 2.02514Z" fill="url(#paint0_linear_8045_4140)"/>
<defs>
<linearGradient id="paint0_linear_8045_4140" x1="-16.6297" y1="-26.1904" x2="-16.159" y2="30.5813" gradientUnits="userSpaceOnUse">
<stop stop-color="#024DA1"/>
<stop offset="1" stop-color="#00ACED"/>
</linearGradient>
</defs>
</svg>
