<svg width="24" height="24" viewBox="0 0 24 24" fill="none" xmlns="http://www.w3.org/2000/svg">
<path fill-rule="evenodd" clip-rule="evenodd" d="M5.41096 12.4427C5.41659 12.3785 5.41962 12.3134 5.41962 12.2477C5.41962 11.0271 4.43016 10.0376 3.20957 10.0376C1.98898 10.0376 0.999512 11.0271 0.999512 12.2477C0.999512 13.4682 1.98898 14.4577 3.20957 14.4577C3.93187 14.4577 4.5732 14.1111 4.9765 13.5753L4.44268 12.9835C4.1992 13.4172 3.7475 13.7083 3.21585 13.7083C2.4156 13.7083 1.76688 13.0492 1.76688 12.2363C1.76688 11.4233 2.4156 10.7642 3.21585 10.7642C3.85397 10.7642 4.37688 11.1835 4.56269 11.7655H2.98099C2.98099 11.7655 2.60235 11.7655 2.60235 12.1794C2.60235 12.337 2.62833 12.4427 2.62833 12.4427H4.62188H5.41096ZM8.25587 14.5318H7.3498V13.4417H8.18141C8.4716 13.4417 8.70687 13.6395 8.70687 13.9896C8.70687 14.2381 8.54782 14.5318 8.25587 14.5318ZM7.3498 11.8204H8.12933C8.40133 11.8204 8.62186 11.9948 8.62186 12.3129C8.62186 12.5386 8.51018 12.8054 8.1991 12.8054H7.3498V11.8204ZM8.90023 13.0659C9.22711 12.9065 9.45232 12.5711 9.45232 12.183C9.45232 11.5502 8.87019 11.2014 8.28452 11.2014H6.51902V15.1605H8.46442C9.09047 15.1605 9.60805 14.7818 9.60805 14.0949C9.60805 13.5266 9.30653 13.1748 8.90023 13.0659ZM11.1253 11.8066V12.7916H12.7099V13.4381H11.1253V14.5163H12.9484V15.1603H10.3147V11.1926H12.9658L12.8611 11.8066H11.1253ZM20.0238 11.2046H16.7249V11.8613H17.9516C17.7717 11.9947 17.7715 12.2615 17.7715 12.2615V15.1603H18.6232V12.282C18.6232 12.0075 18.8669 11.8613 18.9738 11.8613H19.8289L20.0238 11.2046ZM15.1112 11.1037C15.5331 11.0916 16.1447 11.2303 16.163 11.2424C16.1659 11.2444 16.168 11.2446 16.1695 11.2448C16.1723 11.2452 16.1728 11.2453 16.1718 11.2559C16.1684 11.2912 16.0555 11.5253 16.0555 11.5253C15.9811 11.6664 15.9042 11.739 15.9042 11.739C15.8118 11.8348 15.6921 11.7904 15.6921 11.7904C15.415 11.7425 15.2577 11.7527 15.2577 11.7527C14.8301 11.7493 14.7036 11.9135 14.7036 11.9135C14.5565 12.023 14.5497 12.2555 14.5497 12.2555C14.5531 12.5839 14.9875 12.6797 14.9875 12.6797C15.3535 12.8028 15.6647 12.9054 15.6647 12.9054C16.1162 13.0833 16.3728 13.4253 16.3728 13.9076C16.3728 15.0055 15.191 15.1612 14.7618 15.1594C14.5744 15.1587 14.1434 15.1113 14.0837 15.103C14.0239 15.0947 13.5827 15.0129 13.568 15.0055C13.5407 14.9918 13.5509 14.9747 13.5509 14.9747C13.5509 14.9747 13.5944 14.8311 13.6525 14.6703C13.716 14.492 13.8211 14.4104 13.8211 14.4104C13.8793 14.3385 14.0127 14.3933 14.0127 14.3933C14.2247 14.4873 14.6352 14.4856 14.6352 14.4856C15.4869 14.4668 15.4381 13.9732 15.4381 13.9732C15.4732 13.617 14.9407 13.4765 14.9407 13.4765C14.6347 13.3862 14.3688 13.2959 14.3688 13.2959C13.536 12.9598 13.6121 12.2876 13.6121 12.2876C13.6364 11.3064 14.601 11.1182 15.1112 11.1037Z" fill="#005D94"/>
<path fill-rule="evenodd" clip-rule="evenodd" d="M21.5792 11.1061C21.1978 11.1061 20.8886 10.7969 20.8886 10.4156C20.8886 10.0342 21.1978 9.7251 21.5792 9.7251C21.9605 9.7251 22.2697 10.0342 22.2697 10.4156C22.2697 10.7969 21.9605 11.1061 21.5792 11.1061ZM21.5791 9C20.7973 9 20.1636 9.63381 20.1636 10.4156C20.1636 11.1974 20.7973 11.8311 21.5791 11.8311C22.3609 11.8311 22.9947 11.1974 22.9947 10.4156C22.9947 9.63381 22.3609 9 21.5791 9Z" fill="#F29600"/>
</svg>
