<svg width="24" height="24" viewBox="0 0 24 24" fill="none" xmlns="http://www.w3.org/2000/svg">
<path fill-rule="evenodd" clip-rule="evenodd" d="M12.1069 1.09835L12.0714 20.2578L2.07137 20.3676L2 22.8539L22 23L21.9642 20.4771L14.2142 20.4039L14.2857 17.7349C14.2857 17.7349 13.5356 17.6617 14.8571 17.6983C16.1785 17.7349 19.9719 16.8934 20.0358 12.9084C20.0714 10.6781 18.357 9.03261 18.357 9.03261C18.357 9.03261 19.4642 8.66711 19.4285 6.18056C19.3927 3.69429 17.2142 1.20802 13.6785 1.02513C13.3313 1.00712 13.0606 1 12.8496 1C12.0635 1 12.1069 1.09835 12.1069 1.09835ZM14.2501 15.5777V3.54817C14.2501 3.54817 17.2501 3.51156 17.2501 6.18058C17.2501 8.84988 15 9.36166 15 9.36166C15 9.36166 17.8575 9.61777 17.8217 12.7255C17.7909 15.3941 15.1801 15.5828 14.4422 15.5828C14.3208 15.5828 14.2501 15.5777 14.2501 15.5777ZM4.21433 6.1076C4.03583 8.63062 5.35714 10.02 6.60707 11.1169C7.85715 12.2138 8.35733 12.9817 8.35733 13.7494C8.35733 15.5778 5.17863 17.735 5.17863 17.735L8.07141 17.8447C8.07141 17.8447 10.5714 16.6015 10.6787 13.5301C10.7858 10.4587 6.53584 9.06933 6.53584 6.1076C6.53584 3.14601 10.4643 3.40198 10.4643 3.40198L10.5714 1.13507C10.5714 1.13507 10.0023 1.02524 9.7144 1.02524C6.21431 1.02524 4.39283 3.58472 4.21433 6.1076Z" fill="url(#paint0_linear_8045_3877)"/>
<defs>
<linearGradient id="paint0_linear_8045_3877" x1="2.66192" y1="2.45623" x2="2.66192" y2="23" gradientUnits="userSpaceOnUse">
<stop stop-color="#B3D56F"/>
<stop offset="0.479154" stop-color="#00AD52"/>
<stop offset="1" stop-color="#0079AC"/>
</linearGradient>
</defs>
</svg>
