<svg width="24" height="24" viewBox="0 0 24 24" fill="none" xmlns="http://www.w3.org/2000/svg">
<path fill-rule="evenodd" clip-rule="evenodd" d="M0.999756 22.9909H22.9918V0.999512H0.999756V22.9909Z" fill="#0090D0"/>
<path fill-rule="evenodd" clip-rule="evenodd" d="M0.999756 0.999756L6.49615 6.50001L11.9951 0.999756H0.999756Z" fill="#0090D0"/>
<path fill-rule="evenodd" clip-rule="evenodd" d="M0.999756 0.999756V11.9951L6.49615 6.50001L0.999756 0.999756Z" fill="#0099D7"/>
<path fill-rule="evenodd" clip-rule="evenodd" d="M1.00049 11.9947H11.9952L6.5001 6.49634L1.00049 11.9947Z" fill="#0090D0"/>
<path fill-rule="evenodd" clip-rule="evenodd" d="M11.9953 0.999756L6.49951 6.49615L11.9953 11.9951V0.999756Z" fill="#0082C8"/>
<path fill-rule="evenodd" clip-rule="evenodd" d="M11.9956 0.999756V11.9951L17.492 6.50001L11.9956 0.999756Z" fill="#0070BA"/>
<path fill-rule="evenodd" clip-rule="evenodd" d="M11.9958 11.9947H22.9912L17.4955 6.49634L11.9958 11.9947Z" fill="#004C97"/>
<path fill-rule="evenodd" clip-rule="evenodd" d="M0.999756 11.9949L6.49615 17.4951L11.9951 11.9949H0.999756Z" fill="#0082C8"/>
<path fill-rule="evenodd" clip-rule="evenodd" d="M0.999756 22.9911L6.49615 17.4947L0.999756 11.9951V22.9911Z" fill="#0070BA"/>
<path fill-rule="evenodd" clip-rule="evenodd" d="M1.00049 22.991H11.9952L6.5001 17.4907L1.00049 22.991Z" fill="#0066B2"/>
<path fill-rule="evenodd" clip-rule="evenodd" d="M6.50024 17.491L11.996 22.9912V11.9958L6.50024 17.491Z" fill="#00519B"/>
<path fill-rule="evenodd" clip-rule="evenodd" d="M11.9956 11.9949L17.492 17.4951L22.991 11.9949H11.9956Z" fill="#1B3281"/>
<path fill-rule="evenodd" clip-rule="evenodd" d="M11.9956 22.9911L17.492 17.4947L11.9956 11.9951V22.9911Z" fill="#004C97"/>
<path fill-rule="evenodd" clip-rule="evenodd" d="M11.9958 22.991H22.9912L17.4955 17.4907L11.9958 22.991Z" fill="#1B3281"/>
<path fill-rule="evenodd" clip-rule="evenodd" d="M17.4956 17.491L22.992 22.9912V11.9958L17.4956 17.491Z" fill="#1B3281"/>
<path fill-rule="evenodd" clip-rule="evenodd" d="M11.9956 0.999756L17.492 6.50001L22.991 0.999756H11.9956Z" fill="#0066B2"/>
<path fill-rule="evenodd" clip-rule="evenodd" d="M22.9918 0.999756L17.4954 6.49615L22.9918 11.9951V0.999756Z" fill="#00519B"/>
<path fill-rule="evenodd" clip-rule="evenodd" d="M5.26538 18.7521L9.16394 22.65L15.9504 15.965L22.9913 22.9674V14.7469L15.9504 8.04004L5.26538 18.7521Z" fill="#FEFEFE"/>
</svg>
