<svg width="24" height="24" viewBox="0 0 24 24" fill="none" xmlns="http://www.w3.org/2000/svg">
<path fill-rule="evenodd" clip-rule="evenodd" d="M12 2C17.5228 2 22 6.47715 22 12C22 17.5228 17.5228 22 12 22C6.47715 22 2 17.5228 2 12C2 6.47715 6.47715 2 12 2ZM12.0002 3.00002C7.02963 3.00002 3.0002 7.02946 3.0002 12C3.0002 16.9706 7.02963 21 12.0002 21C16.9708 21 21.0002 16.9706 21.0002 12C21.0002 7.02946 16.9708 3.00002 12.0002 3.00002ZM11.5 6.99993V7.99993H8.49995V9.99993H11.5V13.9999H8.49995V15.9999H11.5V16.9999H7.49995V12.9999H10.5V10.9999H7.49995V6.99993H11.5ZM12.5001 6.99998V7.99998H15.5001V9.99998H12.5001V14H15.5001V16H12.5001V17H16.5001V13H13.5001V11H16.5001V6.99998H12.5001Z" fill="#B2292E"/>
</svg>
