<svg width="24" height="24" viewBox="0 0 24 24" fill="none" xmlns="http://www.w3.org/2000/svg">
<path fill-rule="evenodd" clip-rule="evenodd" d="M18.3764 3.08659L21.7533 6.45168C21.7533 6.45168 21.982 6.74645 21.9396 6.95631C21.8924 7.18269 21.6943 7.43028 21.6943 7.43028L20.0483 9.06215L14.4665 3.45455C12.0967 0.959541 10.2455 1.95467 10.2455 1.95467C10.2455 1.95467 14.6033 -0.549681 18.3764 3.08659ZM13.161 3.39369L19.4549 9.67577L17.0683 12.0788C17.0683 12.0788 16.7642 12.2909 16.5543 12.2344C16.3373 12.1754 16.0945 11.9632 16.0945 11.9632L11.5622 7.42846C11.4796 7.34593 11.3499 7.34593 11.2722 7.42846L6.3224 12.3736C6.24443 12.4537 6.24443 12.581 6.3224 12.6636L11.2722 17.6109C11.3499 17.6888 11.4796 17.6888 11.5622 17.6109L16.4766 12.6895C16.4766 12.6895 16.585 12.6046 16.6604 12.574C16.7831 12.5197 17.1675 12.5197 17.1675 12.5197H21.2023C21.2023 12.5197 21.5348 12.4773 21.7021 12.581C21.8389 12.6682 21.8602 12.8593 21.8578 12.9253C21.6432 18.5023 17.0589 22.9923 11.4348 22.9923C5.67392 22.9923 1 18.3183 1 12.5574C1 7.3766 4.77773 3.07771 9.7275 2.25937C10.2816 2.16978 11.8545 2.08964 13.161 3.39369Z" fill="#005BAC"/>
</svg>
