<svg width="24" height="24" viewBox="0 0 24 24" fill="none" xmlns="http://www.w3.org/2000/svg">
<path fill-rule="evenodd" clip-rule="evenodd" d="M11.9869 2C12.5903 2 13.179 2.05629 13.7521 2.15957L11.9989 3.13729L10.2384 2.15586C10.8074 2.05543 11.3909 2 11.9869 2ZM10.6246 3.54228L8.79959 2.52485C8.37402 2.66842 7.96045 2.83871 7.56316 3.03571L6.99116 5.04914C8.04845 4.28585 9.28445 3.758 10.6246 3.54228ZM16.4247 3.04373L16.9975 5.05988C15.9422 4.2943 14.7065 3.76345 13.3669 3.54588L15.1889 2.52959C15.6141 2.67388 16.0271 2.84559 16.4247 3.04373ZM5.05822 6.97681L3.04308 7.55052C2.84351 7.94738 2.67265 8.36009 2.52822 8.78566L3.54408 10.6075C3.76208 9.26781 4.29337 8.03252 5.05822 6.97681ZM2.15812 10.2222C2.05498 10.7956 1.99927 11.3851 1.99927 11.9878C1.99927 12.5835 2.05355 13.1678 2.1547 13.7361L3.13512 11.9759L2.15812 10.2222ZM21.45 8.79991L20.4316 10.6252C20.2165 9.28548 19.6886 8.04962 18.926 6.99248L20.9386 7.56419C21.1353 7.96191 21.3059 8.37534 21.45 8.79991ZM3.54152 13.3502L2.5231 15.1753C2.6671 15.6003 2.83781 16.0139 3.03538 16.4115L5.0471 16.9832C4.2851 15.9261 3.75624 14.6902 3.54152 13.3502ZM6.26826 20.1695C5.30483 19.4945 4.46726 18.6552 3.79312 17.6904L5.71997 18.238L6.26826 20.1695ZM6.28387 3.79497C5.31944 4.46797 4.47959 5.30669 3.80444 6.26954L5.7363 5.72069L6.28387 3.79497ZM17.689 20.181C18.653 19.5077 19.4932 18.6685 20.1687 17.7061L18.2374 18.255L17.689 20.181ZM20.9313 16.4254L18.9143 16.9981C19.6802 15.9435 20.2112 14.7079 20.4286 13.3682L21.4447 15.1904C21.3007 15.6162 21.1292 16.0284 20.9313 16.4254ZM6.97695 18.916L7.54881 20.9324C7.94624 21.13 8.35924 21.3016 8.78395 21.4462L10.6067 20.4297C9.26681 20.2123 8.03138 19.6809 6.97695 18.916ZM15.1744 21.4511L13.3494 20.4332C14.6891 20.218 15.9261 19.6897 16.9831 18.9268L16.4105 20.9395C16.0124 21.1369 15.5997 21.3078 15.1744 21.4511ZM21.8152 13.7534C21.9172 13.1801 21.9744 12.5907 21.9744 11.988C21.9744 11.3918 21.9184 10.8084 21.8184 10.2405L20.8372 11.9992L21.8152 13.7534ZM11.9863 21.9755C11.3837 21.9755 10.7945 21.9192 10.22 21.8159L11.9737 20.8379L13.7335 21.8192C13.1654 21.9201 12.5831 21.9755 11.9863 21.9755ZM8.70073 11.1319C9.11773 11.3807 9.66501 11.5072 10.326 11.5072H11.5202V10.4494H10.5857C10.2596 10.4494 9.9873 10.4119 9.77573 10.3379C9.55787 10.2608 9.35844 10.1284 9.18287 9.9428C8.8843 9.62865 8.73259 9.24708 8.73259 8.81037C8.73259 8.34651 8.89016 7.95023 9.20116 7.63337C9.36616 7.46537 9.55559 7.34194 9.76487 7.26708C9.96859 7.19465 10.2219 7.15794 10.5186 7.15794H11.5202V6.09951H10.3844C10.0343 6.09951 9.71601 6.13008 9.44144 6.19223C8.98259 6.29194 8.58273 6.50565 8.2513 6.8268C8.02301 7.04951 7.83573 7.31351 7.69716 7.61051C7.51187 8.00108 7.41787 8.40894 7.41787 8.82237C7.41787 9.1378 7.47444 9.4508 7.58473 9.75394C7.80001 10.3502 8.17587 10.8141 8.70073 11.1319ZM10.6513 12.5609C10.8619 12.6204 11.0502 12.7208 11.2106 12.8615C11.3823 13.0105 11.5186 13.1976 11.6163 13.4198C11.7142 13.6429 11.7639 13.8754 11.7639 14.1086C11.7639 14.4239 11.6769 14.7196 11.5072 14.9895C11.3438 15.2519 11.1369 15.4418 10.8953 15.5548C10.6473 15.6695 10.313 15.7282 9.90148 15.7282H8.88162V17.8764H7.6269V14.6699H9.60819C9.91176 14.6699 10.1065 14.6325 10.2265 14.5474C10.3729 14.4395 10.4509 14.2815 10.4509 14.0918C10.4509 13.8384 10.3245 13.7085 10.2193 13.6438C10.0896 13.5652 9.89362 13.5264 9.62133 13.5264H7.6269V12.4684H9.7759C10.1363 12.4684 10.4313 12.4992 10.6513 12.5609ZM12.5976 13.5264H16.4921V12.4684H12.5976V13.5264ZM16.4921 17.8764H12.5976V14.67H16.4921V15.7283H13.8531V16.8179H16.4921V17.8764Z" fill="#1D9ADD"/>
<path fill-rule="evenodd" clip-rule="evenodd" d="M17.705 3.80591C18.6687 4.48091 19.5065 5.32077 20.179 6.28491L18.2539 5.73805L17.705 3.80591ZM15.5242 10.4493L13.9722 6.09956H15.1101L17.0206 11.5073H12.0701L13.1275 8.30227H14.2278L13.6155 10.4493H15.5242Z" fill="#F73449"/>
</svg>
