<svg width="24" height="24" viewBox="0 0 24 24" fill="none" xmlns="http://www.w3.org/2000/svg">
<rect width="24" height="24" rx="4.8" fill="#E7231F"/>
<path fill-rule="evenodd" clip-rule="evenodd" d="M13.0811 11.8889V11.8776C13.0811 10.7511 13.9301 9.82861 15.1471 9.82861C15.7414 9.82861 16.1433 9.987 16.4716 10.2304C16.5622 10.2984 16.6414 10.4228 16.6414 10.5757C16.6414 10.8134 16.449 11.0002 16.2111 11.0002C16.0923 11.0002 16.0131 10.955 15.9507 10.9153C15.7075 10.7342 15.4528 10.6323 15.1413 10.6323C14.4735 10.6323 13.9923 11.1871 13.9923 11.8663V11.8776C13.9923 12.5568 14.4621 13.1228 15.1413 13.1228C15.5093 13.1228 15.7527 13.0096 16.0018 12.8116C16.0697 12.7549 16.1603 12.7152 16.2622 12.7152C16.4829 12.7152 16.6696 12.8964 16.6696 13.1172C16.6696 13.2531 16.6018 13.3606 16.5226 13.4285C16.1659 13.7398 15.7471 13.9266 15.1131 13.9266C13.947 13.9266 13.0811 13.0266 13.0811 11.8889ZM8.4478 12.2001L7.89883 10.8926L7.34969 12.2001H8.4478ZM5.99694 13.2983L7.37801 10.1795C7.47427 9.96439 7.64975 9.83416 7.88753 9.83416H7.93844C8.17614 9.83416 8.34598 9.96439 8.44223 10.1795L9.8233 13.2983C9.85162 13.3605 9.86857 13.4171 9.86857 13.4737C9.86857 13.7058 9.68743 13.8926 9.45546 13.8926C9.25166 13.8926 9.11578 13.7737 9.03647 13.5926L8.77046 12.9699H7.02711L6.74972 13.6209C6.67614 13.7906 6.52897 13.8926 6.34783 13.8926C6.12143 13.8926 5.94595 13.7114 5.94595 13.485C5.94595 13.4228 5.96862 13.3605 5.99694 13.2983ZM4.56229 11.8605C4.99814 11.8605 5.25286 11.6002 5.25286 11.2606V11.2492C5.25286 10.8587 4.98112 10.6492 4.54534 10.6492H3.87179V11.8605H4.56229ZM3 10.2983C3 10.0549 3.19251 9.86248 3.43586 9.86248H4.61885C5.56414 9.86248 6.13587 10.4228 6.13587 11.2322V11.2435C6.13587 12.1605 5.42262 12.636 4.53397 12.636H3.87179V13.4567C3.87179 13.7001 3.67928 13.8926 3.43586 13.8926C3.19251 13.8926 3 13.7001 3 13.4567V10.2983ZM9.51126 10.5927L10.7904 12.3304V13.4567C10.7904 13.7001 10.9829 13.8926 11.2263 13.8926C11.4696 13.8926 11.6621 13.7001 11.6621 13.4567V12.3134L12.9413 10.5869C12.9979 10.5077 13.0546 10.4002 13.0546 10.2813C13.0546 10.0435 12.896 9.85684 12.63 9.85684C12.449 9.85684 12.3187 9.95866 12.2111 10.1171L11.2319 11.5153L10.2697 10.1285C10.1621 9.97004 10.0376 9.86248 9.83949 9.86248C9.59614 9.86248 9.40371 10.0493 9.40371 10.2813C9.40371 10.4059 9.44898 10.5077 9.51126 10.5927ZM20.1969 11.8776V11.8889C20.1969 12.5681 19.7101 13.1228 19.0082 13.1228C18.3064 13.1228 17.8083 12.5568 17.8083 11.8776V11.8663C17.8083 11.1871 18.295 10.6323 18.9969 10.6323C19.6988 10.6323 20.1969 11.1984 20.1969 11.8776ZM16.897 11.8776V11.8889C16.897 13.0153 17.7743 13.9266 18.9969 13.9266C20.2195 13.9266 21.1082 13.004 21.1082 11.8776V11.8663C21.1082 10.7399 20.2309 9.82861 19.0082 9.82861C17.7855 9.82861 16.897 10.7511 16.897 11.8776Z" fill="white"/>
</svg>
