<svg width="24" height="24" viewBox="0 0 24 24" fill="none" xmlns="http://www.w3.org/2000/svg">
<path fill-rule="evenodd" clip-rule="evenodd" d="M22.4351 5.03088C22.6924 5.02134 22.9325 5.20021 22.9325 5.47353C22.9325 5.6931 22.713 5.88252 22.5622 5.99708C21.7252 6.64825 20.7625 7.15069 19.7862 7.55265C16.9354 8.73282 13.7677 9.14006 10.7195 9.53194C10.5766 9.55032 10.4339 9.56866 10.2916 9.58704C8.4265 9.83273 6.55791 10.0121 4.68229 10.1317C3.98741 10.1759 3.29052 9.8056 2.70768 9.4564C2.10676 9.10067 1.52945 8.62737 1.19985 8.00183C0.925013 7.47678 0.889841 6.68392 1.3752 6.2674C1.74199 5.95136 2.30874 5.96794 2.76144 6.0001C3.12652 6.02831 3.4864 6.09305 3.84659 6.15784C4.01237 6.18766 4.17821 6.21749 4.34464 6.24378C4.72185 6.30219 5.10025 6.36864 5.47838 6.43504C5.94593 6.51714 6.41306 6.59916 6.87696 6.66583C11.7833 7.37378 17.0359 7.03714 21.6895 5.26703C21.7472 5.2451 21.8051 5.22074 21.8633 5.19623C22.0479 5.11853 22.2361 5.03928 22.4351 5.03088ZM15.0983 12.9449C15.2209 13.2167 15.3033 13.5117 15.354 13.8147C15.4892 14.604 15.4098 15.4592 15.2727 16.2078C15.1747 16.754 15.0244 17.2901 14.8511 17.8156C14.3889 19.231 13.7096 20.6017 12.6489 21.6694C12.473 21.8482 12.2525 22.0125 11.9852 21.905C11.9209 21.8789 11.8646 21.8382 11.8244 21.7814C11.7477 21.6638 11.7932 21.5125 11.8318 21.3841C11.8367 21.3678 11.8416 21.3518 11.846 21.3362C11.8982 21.1609 11.947 20.9825 11.9932 20.8036C12.4544 19.0692 12.885 17.2001 12.7986 15.3938C12.779 14.9783 12.7283 14.5568 12.5479 14.185C12.366 13.8111 12.0304 13.4941 11.6209 13.4288C11.3873 13.3886 11.1441 13.4363 10.931 13.5398C10.8305 13.5906 10.7351 13.6529 10.6547 13.7313C10.522 13.8559 10.4296 14.0232 10.3663 14.195C10.1618 14.7341 10.2336 15.2743 10.3256 15.8264C10.3984 16.259 10.3291 16.7409 9.93519 16.9976C9.63122 17.1936 9.22775 17.2082 8.89011 17.077C8.54996 16.9464 8.27211 16.6826 8.08218 16.3731C7.49483 15.428 7.48226 14.0342 7.80785 12.9997C7.87618 12.7872 7.95607 12.5781 8.05806 12.3812C8.3535 11.7973 8.81374 11.31 9.37497 10.9728C10.6115 10.2212 12.1223 10.2172 13.3729 10.9462C14.1763 11.4135 14.7144 12.1134 15.0983 12.9449Z" fill="#009490"/>
<path fill-rule="evenodd" clip-rule="evenodd" d="M9.58032 3.87689C9.58032 4.88931 10.4008 5.70829 11.4112 5.70829C12.4216 5.70829 13.2421 4.88931 13.2421 3.87689C13.2421 3.72615 13.2055 3.57441 13.1431 3.43775C12.9879 3.10563 12.8095 2.94334 12.8271 2.5444C12.8502 2.00779 12.1609 1.99976 11.7891 1.99976C11.3846 1.99976 10.9575 2.05603 10.5902 2.23892C10.2983 2.38664 10.0476 2.61223 9.87023 2.88607C9.68785 3.16743 9.58736 3.49955 9.58032 3.83568V3.87689Z" fill="#EC1651"/>
</svg>
