<svg width="24" height="24" viewBox="0 0 24 24" fill="none" xmlns="http://www.w3.org/2000/svg">
<path fill-rule="evenodd" clip-rule="evenodd" d="M11.1164 14.0364C11.1758 14.0364 11.2802 14.0861 11.4229 14.241C12.1623 15.0448 12.9935 15.6802 13.6924 16.0637C13.7926 16.1193 13.8486 16.1602 13.8486 16.2132C13.8486 16.2528 13.8432 16.2932 13.7556 16.2932C13.5985 16.2932 12.7173 16.1193 12.4844 16.0099C12.2503 15.9004 11.7467 15.4911 11.1459 14.4562C11.0781 14.3395 11.0061 14.2385 11.0061 14.1446C11.0061 14.0511 11.0916 14.0364 11.1164 14.0364Z" fill="#6C9BD2"/>
<path fill-rule="evenodd" clip-rule="evenodd" d="M11.835 11.567C13.2582 11.367 13.1121 11.0782 13.1121 11.0782C13.1121 11.0782 13.694 11.0731 13.694 11.5278C13.694 11.7413 13.4047 11.9481 13.0447 12.0247C12.7832 12.0794 12.339 12.1464 11.5942 12.2495C11.5576 12.3535 11.5197 12.4605 11.4811 12.5696L11.4809 12.57C11.429 12.7166 11.3757 12.8672 11.3222 13.0196C11.4662 13.0011 12.1416 12.9161 12.5243 12.9161C12.9192 12.9161 13.0064 13.0963 13.0064 13.2933C13.0064 13.7918 12.3761 14.5017 12.0148 14.7742C11.686 15.0226 11.0224 15.4773 10.8738 15.4773C10.8195 15.4773 10.7319 15.4137 10.838 15.3333C11.8005 14.6007 12.2973 14.0066 12.2973 13.7994C12.2973 13.7102 12.211 13.6348 12.0435 13.6348C11.8666 13.6348 11.2308 13.7325 11.0586 13.767L10.7042 14.7707L10.7031 14.774C10.5171 15.3007 10.3803 15.6883 10.3529 15.7649C10.2515 16.0512 9.64345 16.2975 9.37314 16.2975C9.10324 16.2975 9.15167 16.082 9.21145 15.9476L10.7849 12.351C10.6986 12.3597 10.6267 12.366 10.5454 12.3732L10.5454 12.3732L10.5453 12.3732C10.4883 12.3782 10.4267 12.3836 10.3521 12.3906C10.0658 12.4188 9.61777 12.1607 9.61777 11.9064C9.61777 11.7607 9.68388 11.6175 9.94198 11.6432C10.1277 11.6617 10.539 11.6811 11.094 11.6441L11.5171 10.6756C11.5782 10.5337 11.6851 10.4209 11.8325 10.4209C11.9795 10.4209 12.1832 10.5754 12.0927 10.8382C12.0927 10.8382 11.99 11.1274 11.835 11.567ZM0 13.3298H0.45221V14.5269C0.45221 14.9926 0.717053 15.2907 1.19705 15.2907C1.38063 15.2907 1.52211 15.273 1.65011 15.2351L1.632 14.7513C1.56758 14.7922 1.46316 14.8149 1.35284 14.8149C1.11958 14.8149 1.06526 14.6284 1.06526 14.4263V13.3298H1.64505V12.8814H1.06526V12.2852H0.45221V12.8814H0V13.3298ZM2.11157 12.8812H2.65557V13.4163H2.66526C2.69262 13.1966 2.94357 12.826 3.30905 12.826C3.36884 12.826 3.43284 12.826 3.49726 12.845V13.4622C3.44252 13.4302 3.33262 13.4117 3.22231 13.4117C2.72462 13.4117 2.72462 14.0332 2.72462 14.3713V15.2353H2.11157V12.8812ZM5.45774 15.2352H6.03795V12.8811H5.42574V14.0335C5.42574 14.3346 5.32932 14.815 4.88595 14.815C4.49269 14.815 4.48806 14.4264 4.48806 14.1379V12.8811H3.87627V14.367C3.87627 14.8971 4.11837 15.2908 4.67585 15.2908C4.99585 15.2908 5.26153 15.1443 5.44848 14.9161H5.45774V15.2352ZM8.05583 13.8277C8.03814 13.5308 7.90046 13.2744 7.55856 13.2744C7.21498 13.2744 7.04151 13.5123 7.01372 13.8277H8.05583ZM8.46735 15.1027C8.24293 15.226 7.98735 15.2909 7.65809 15.2909C6.88082 15.2909 6.42861 14.8429 6.42861 14.0702C6.42861 13.3886 6.78946 12.826 7.52082 12.826C8.39451 12.826 8.64124 13.4252 8.64124 14.2479H7.01346C7.04124 14.6281 7.30651 14.8429 7.68546 14.8429C7.98314 14.8429 8.23872 14.7326 8.46735 14.605V15.1027ZM13.9793 12.9162H13.4353V15.2699H14.0479V14.4055C14.0479 14.0669 14.0479 13.4463 14.546 13.4463C14.6555 13.4463 14.7654 13.464 14.8205 13.4964V12.8791C14.7561 12.861 14.6925 12.861 14.6327 12.861C14.2673 12.861 14.0159 13.2307 13.9881 13.4505H13.9793V12.9162ZM15.1757 15.2702H15.7892V12.9166H15.1757V15.2702ZM15.1757 12.5223H15.7892V11.9366H15.1757V12.5223ZM17.3035 13.3089C17.6462 13.3089 17.7835 13.5645 17.802 13.8626H16.7595C16.7868 13.5468 16.9603 13.3089 17.3035 13.3089ZM17.4037 15.3255C17.733 15.3255 17.989 15.261 18.2125 15.1372V14.6396C17.9843 14.7671 17.7287 14.8766 17.4315 14.8766C17.0521 14.8766 16.7868 14.6619 16.7595 14.2825H18.386C18.386 13.4594 18.1397 12.861 17.2669 12.861C16.5351 12.861 16.1742 13.4227 16.1742 14.1048C16.1742 14.8766 16.6264 15.3255 17.4037 15.3255ZM18.7494 12.9162H19.33V13.2362H19.3393C19.5317 12.9659 19.7928 12.861 20.1119 12.861C20.6703 12.861 20.9124 13.2543 20.9124 13.7852V15.2699H20.2997V14.013C20.2997 13.7246 20.2951 13.336 19.9018 13.336C19.4589 13.336 19.3629 13.8156 19.3629 14.1183V15.2699H18.7494V12.9162ZM22.9799 14.086C22.9799 14.4199 22.8477 14.8494 22.4401 14.8494C22.0376 14.8494 21.9243 14.4102 21.9243 14.086C21.9243 13.7702 22.0338 13.3357 22.4313 13.3357C22.8245 13.3357 22.9799 13.7563 22.9799 14.086ZM22.9941 15.0044H23.0034V15.2697H23.5975V11.8411H22.9849V13.1905H22.9756C22.7925 12.9657 22.5781 12.8609 22.2716 12.8609C21.5495 12.8609 21.2847 13.4369 21.2847 14.0861C21.2847 14.7303 21.5495 15.3253 22.2716 15.3253C22.56 15.3253 22.8114 15.2331 22.9941 15.0044Z" fill="#6A2D00"/>
</svg>
