<svg width="24" height="24" viewBox="0 0 24 24" fill="none" xmlns="http://www.w3.org/2000/svg">
<path fill-rule="evenodd" clip-rule="evenodd" d="M2.94426 11.9893C2.94426 16.9846 6.99389 21.0345 11.9894 21.0345C16.9845 21.0345 21.0346 16.9846 21.0346 11.9893C21.0346 6.99373 16.9845 2.9436 11.9894 2.9436C6.99389 2.9436 2.94426 6.99373 2.94426 11.9893ZM2 11.9894C2 6.47235 6.47235 2 11.9891 2C17.5064 2 21.9785 6.47235 21.9785 11.9894C21.9785 17.5059 17.5064 21.9783 11.9891 21.9783C6.47235 21.9783 2 17.5059 2 11.9894ZM12.5603 7.85406V8.61209H13.8539V9.61085H12.5603V12.257H11.3803V6.8553H13.9857V7.85406H12.5603ZM11.9888 15.917C11.3853 15.917 10.8967 15.4348 10.8967 14.8397C10.8967 14.2442 11.3853 13.7615 11.9888 13.7615C12.5918 13.7615 13.0811 14.2442 13.0811 14.8397C13.0811 15.4348 12.5918 15.917 11.9888 15.917ZM11.9888 12.7785C10.8095 12.7785 9.85398 13.6756 9.85398 14.8398C9.85398 16.0052 10.8095 16.9008 11.9888 16.9008C13.1681 16.9008 14.1239 16.0052 14.1239 14.8398C14.1239 13.6756 13.1681 12.7785 11.9888 12.7785Z" fill="#003993"/>
</svg>
