<svg width="24" height="24" viewBox="0 0 24 24" fill="none" xmlns="http://www.w3.org/2000/svg">
<path fill-rule="evenodd" clip-rule="evenodd" d="M22.3742 13.3784C22.0559 10.2499 18.4925 7.6869 14.4193 7.6539C10.3454 7.62025 7.30227 10.1283 7.62192 13.2581C7.94222 16.3853 11.503 18.9483 15.5775 18.982C19.652 19.0163 22.6945 16.5063 22.3742 13.3784ZM8.89951 12.5948C8.62063 10.0732 11.2671 8.04854 14.8065 8.07701C18.344 8.10483 21.4402 10.1709 21.7171 12.6912C21.994 15.2134 19.3508 17.2381 15.8101 17.2115C12.2726 17.1837 9.1771 15.1183 8.89951 12.5948Z" fill="#F8A883"/>
<path fill-rule="evenodd" clip-rule="evenodd" d="M8.79066 12.1633C6.45931 14.6014 6.42113 18.3485 8.70525 20.5369C10.9894 22.7246 14.7345 22.5214 17.0672 20.0852C19.3998 17.6497 19.4361 13.9013 17.152 11.7116C14.8691 9.52392 11.1246 9.72645 8.79066 12.1633ZM16.2245 19.0473C14.218 21.1406 10.9995 21.3159 9.03373 19.4356C7.06603 17.552 7.09968 14.3257 9.10685 12.2299C11.1134 10.1334 14.3344 9.96198 16.2989 11.8417C18.266 13.724 18.233 16.9489 16.2245 19.0473Z" fill="#F37C4B"/>
<mask id="mask0_8045_4222" style="mask-type:luminance" maskUnits="userSpaceOnUse" x="0" y="2" width="21" height="17">
<path fill-rule="evenodd" clip-rule="evenodd" d="M0.999268 2.64722H20.0133V18.4481H0.999268V2.64722Z" fill="white"/>
</mask>
<g mask="url(#mask0_8045_4222)">
<path fill-rule="evenodd" clip-rule="evenodd" d="M5.12893 5.66092C0.800751 9.08839 -0.301837 14.0572 2.66557 16.7554C5.63687 19.453 11.5542 18.8635 15.885 15.4354C20.2138 12.0073 21.3151 7.03915 18.3458 4.34156C15.3758 1.64074 9.4584 2.2328 5.12893 5.66092ZM9.00471 4.31847C13.1769 2.75388 17.3039 4.33724 18.2201 7.85206C19.1377 11.3662 16.4996 15.4861 12.3274 17.0494C8.15383 18.6146 4.02883 17.0299 3.10936 13.5158C2.19183 9.99965 4.83118 5.88176 9.00471 4.31847Z" fill="#F05A28"/>
</g>
</svg>
