<svg width="24" height="24" viewBox="0 0 24 24" fill="none" xmlns="http://www.w3.org/2000/svg">
<path fill-rule="evenodd" clip-rule="evenodd" d="M23.0159 11.0251C23.0159 10.3653 22.482 9.82861 21.8262 9.82861H2.17398C1.51773 9.82861 0.984271 10.3653 0.984271 11.0251L0.983887 14.3166H1.38025V11.0251C1.38025 10.5841 1.73561 10.2277 2.17398 10.2277H21.8262C22.2645 10.2277 22.6195 10.5841 22.6195 11.0251V14.3166H23.0159V11.0251ZM5.41079 11.9542C5.41079 11.9174 5.39086 11.9 5.3627 11.9H5.07982C5.04566 11.9 5.03173 11.9174 5.03173 11.9542V13.1967C5.03173 13.3475 5.14483 13.524 5.3627 13.524C5.38786 13.524 5.41871 13.524 5.44425 13.5185L5.98741 13.3649C6.01857 13.3566 6.03811 13.3706 6.03811 13.4048V14.2067C6.03811 14.2379 6.05242 14.2577 6.08581 14.2577H6.12304C6.15158 14.2577 6.17674 14.2411 6.19367 14.212L6.386 13.8963C6.40554 13.8538 6.41978 13.8111 6.41978 13.7658V11.9542C6.41978 11.9174 6.39985 11.9 6.36908 11.9H6.08581C6.05242 11.9 6.03811 11.9174 6.03811 11.9542V13.1545C6.03811 13.1884 6.01556 13.2053 5.98179 13.2053H5.46449C5.42433 13.2053 5.41079 13.1884 5.41079 13.1545V11.9542ZM20.938 11.2634C20.938 11.2318 20.9241 11.2087 20.8899 11.2087H20.6014C20.5733 11.2087 20.5594 11.2318 20.5594 11.2634V11.8515C20.5594 11.886 20.5424 11.9 20.5057 11.9H20.2453C20.1717 11.9 20.1097 11.9174 20.0473 11.9567L19.7479 12.1332C19.612 12.207 19.5469 12.3236 19.5469 12.4774V13.1945C19.5469 13.3905 19.7277 13.5269 19.8752 13.5209C19.903 13.5209 19.9286 13.5209 19.9598 13.5122L20.5057 13.3649C20.5424 13.3534 20.5594 13.3679 20.5594 13.4048V13.4503C20.5594 13.4839 20.5733 13.4955 20.6014 13.4955H20.8899C20.9241 13.4955 20.938 13.4839 20.938 13.4531V11.2634ZM18.0706 11.9542C18.0706 11.9174 18.0536 11.9 18.0229 11.9H17.3745C17.3042 11.9 17.2422 11.9174 17.1799 11.9567L16.8775 12.1332C16.7448 12.207 16.6795 12.3236 16.6795 12.4774V13.1945C16.6795 13.3764 16.8294 13.5209 17.0078 13.5209C17.0357 13.5209 17.0612 13.5209 17.092 13.5122L17.6352 13.3649C17.672 13.3534 17.6919 13.3679 17.6919 13.4048V13.4503C17.6919 13.4839 17.7032 13.4955 17.734 13.4955H18.0229C18.0536 13.4955 18.0706 13.4839 18.0706 13.4531V11.9542ZM13.3808 11.9542C13.3808 11.9174 13.3639 11.9 13.3327 11.9H12.6851C12.6141 11.9 12.5521 11.9174 12.4905 11.9567L12.1874 12.1332C12.0548 12.207 11.9898 12.3236 11.9898 12.4774V13.1945C11.9898 13.3764 12.1397 13.5209 12.3178 13.5209C12.3459 13.5209 12.3715 13.5209 12.4026 13.5122L12.9455 13.3649C12.9818 13.3534 13.0022 13.3679 13.0022 13.4048V13.4503C13.0022 13.4839 13.0131 13.4955 13.0439 13.4955H13.3327C13.3639 13.4955 13.3808 13.4839 13.3808 13.4531V11.9542ZM7.17793 11.9542C7.17793 11.9174 7.15839 11.9 7.13285 11.9H6.84688C6.81273 11.9 6.7988 11.9174 6.7988 11.9542V13.1945C6.7988 13.3789 6.95105 13.5209 7.12385 13.5209C7.15193 13.5209 7.18324 13.5209 7.21178 13.5123L7.75494 13.3649C7.78579 13.3534 7.80833 13.368 7.80833 13.4048V13.4503C7.80833 13.4839 7.81956 13.4955 7.85333 13.4955H8.13661C8.16738 13.4955 8.1873 13.4839 8.1873 13.4532V11.9542C8.1873 11.9174 8.16738 11.9 8.13661 11.9H7.85333C7.81956 11.9 7.80833 11.9174 7.80833 11.9542V13.1545C7.80833 13.1884 7.78579 13.2028 7.75194 13.2028H7.23432C7.19478 13.2028 7.17793 13.1884 7.17793 13.1545V11.9542ZM11.6675 11.2634C11.6675 11.2318 11.6535 11.2087 11.6194 11.2087H11.3309C11.3031 11.2087 11.2888 11.2318 11.2888 11.2634V11.8515C11.2888 11.886 11.2718 11.9 11.235 11.9H10.9747C10.9014 11.9 10.839 11.9174 10.7767 11.9567L10.4773 12.1332C10.3414 12.207 10.2767 12.3236 10.2767 12.4774V13.1945C10.2767 13.3905 10.4571 13.5269 10.6043 13.5209C10.6329 13.5209 10.6584 13.5209 10.6892 13.5122L11.235 13.3649C11.2718 13.3534 11.2888 13.3679 11.2888 13.4048V13.4503C11.2888 13.4839 11.3031 13.4955 11.3309 13.4955H11.6194C11.6535 13.4955 11.6675 13.4839 11.6675 13.4531V11.2634ZM3.37214 11.4538C3.37214 11.4223 3.35183 11.4055 3.32098 11.4055H3.02125C2.9927 11.4055 2.9817 11.4223 2.9817 11.4538V13.4532C2.9817 13.4839 2.9927 13.4955 3.02125 13.4955H3.32098C3.35183 13.4955 3.37214 13.4839 3.37214 13.4503V12.6452C3.37214 12.6085 3.39161 12.5884 3.42546 12.5884H4.19741C4.23388 12.5884 4.25981 12.6085 4.25981 12.6452V13.4503C4.25981 13.4839 4.27104 13.4955 4.30489 13.4955H4.59901C4.63278 13.4955 4.65309 13.4839 4.65309 13.4532V11.4538C4.65309 11.4223 4.63278 11.4055 4.59901 11.4055H4.30489C4.27104 11.4055 4.25981 11.4223 4.25981 11.4538V12.227C4.25981 12.2639 4.23388 12.2814 4.19741 12.2814H3.42546C3.39161 12.2814 3.37214 12.2639 3.37214 12.227V11.4538ZM9.9544 12.207C9.9544 12.031 9.81015 11.8745 9.62382 11.8745C9.60309 11.8745 9.5843 11.8789 9.56496 11.8834C9.5573 11.8852 9.54956 11.887 9.54158 11.8885L9.00173 12.0366C8.95888 12.0481 8.94503 12.0334 8.94503 12.0026V11.9542C8.94503 11.9174 8.92472 11.9 8.89994 11.9H8.61367C8.58028 11.9 8.56636 11.9174 8.56636 11.9542V13.4531C8.56636 13.4839 8.58028 13.4954 8.61367 13.4954H8.89994C8.92472 13.4954 8.94503 13.4839 8.94503 13.4503V12.2501C8.94503 12.213 8.96195 12.193 9.00173 12.193H9.51903C9.55281 12.193 9.57573 12.213 9.57573 12.2501V13.4503C9.57573 13.4839 9.58704 13.4954 9.62082 13.4954H9.9037C9.93409 13.4954 9.9544 13.4839 9.9544 13.4531V12.207ZM14.1389 11.9542C14.1389 11.9174 14.1186 11.9 14.0908 11.9H13.8075C13.7708 11.9 13.7595 11.9174 13.7595 11.9542V13.4532C13.7595 13.4839 13.7708 13.4955 13.8075 13.4955H14.0908C14.1186 13.4955 14.1389 13.4839 14.1389 13.4532V11.9542ZM16.4158 11.4568C16.4158 11.4222 16.3989 11.4055 16.3655 11.4055H15.6641C15.5991 11.4055 15.5285 11.4222 15.4688 11.4591L15.1382 11.6442C14.9991 11.7264 14.9315 11.8492 14.9315 12.0081V13.0862C14.9315 13.3505 15.1434 13.4955 15.3448 13.4955H15.9553C16.0232 13.4955 16.0908 13.4815 16.1562 13.4441L16.3989 13.3082C16.4301 13.291 16.4447 13.2652 16.4447 13.2343C16.4447 13.2053 16.4248 13.1912 16.3937 13.1912H15.3839C15.35 13.1912 15.3357 13.1745 15.3357 13.1376V11.7663C15.3357 11.7292 15.35 11.7094 15.3839 11.7094H16.3655C16.3989 11.7094 16.4158 11.6956 16.4158 11.6641V11.4568ZM19.4905 11.9312C19.4905 11.9 19.4702 11.883 19.4395 11.883H19.2727C19.199 11.883 19.1366 11.9 19.0769 11.9312L18.9131 12.0396C18.9019 12.0449 18.8906 12.0449 18.8824 12.0449C18.8455 12.0449 18.8313 12.0309 18.8313 11.9998V11.9543C18.8313 11.9174 18.8088 11.9 18.7805 11.9H18.4951C18.4609 11.9 18.4496 11.9174 18.4496 11.9543V13.4532C18.4496 13.4839 18.4609 13.4955 18.4951 13.4955H18.7805C18.8088 13.4955 18.8313 13.4839 18.8313 13.4503V12.2501C18.8313 12.2131 18.8455 12.193 18.8824 12.193H19.4395C19.4702 12.193 19.4905 12.1787 19.4905 12.1503V11.9312ZM10.6554 12.253C10.6554 12.213 10.6696 12.193 10.7095 12.193H11.2325C11.2718 12.193 11.2888 12.213 11.2888 12.253V13.1544C11.2888 13.1884 11.2718 13.2028 11.2325 13.2028H10.7095C10.6696 13.2028 10.6554 13.1884 10.6554 13.1544V12.253ZM12.3685 12.253C12.3685 12.213 12.3827 12.193 12.4222 12.193H12.9455C12.9818 12.193 13.0022 12.213 13.0022 12.253V13.1544C13.0022 13.1884 12.9818 13.2028 12.9455 13.2028H12.4222C12.3827 13.2028 12.3685 13.1884 12.3685 13.1544V12.253ZM17.0582 12.253C17.0582 12.213 17.0724 12.193 17.1123 12.193H17.6352C17.672 12.193 17.6919 12.213 17.6919 12.253V13.1544C17.6919 13.1884 17.672 13.2028 17.6352 13.2028H17.1123C17.0724 13.2028 17.0582 13.1884 17.0582 13.1544V12.253ZM19.9256 12.253C19.9256 12.213 19.9403 12.193 19.9797 12.193H20.5027C20.5424 12.193 20.5594 12.213 20.5594 12.253V13.1544C20.5594 13.1884 20.5424 13.2028 20.5027 13.2028H19.9797C19.9403 13.2028 19.9256 13.1884 19.9256 13.1544V12.253ZM14.1389 11.2634C14.1389 11.2318 14.1186 11.2088 14.0908 11.2088H13.8075C13.7708 11.2088 13.7595 11.2318 13.7595 11.2634V11.4961C13.7595 11.5305 13.7708 11.542 13.8075 11.542H14.0908C14.1186 11.542 14.1389 11.5305 14.1389 11.4961V11.2634Z" fill="black"/>
</svg>
