<svg width="403" height="401" viewBox="0 0 403 401" fill="none" xmlns="http://www.w3.org/2000/svg">
<path fill-rule="evenodd" clip-rule="evenodd" d="M402.5 60.7803C402.5 93.9174 189.728 120.78 181.403 120.78C173.079 120.78 0.5 93.9174 0.5 60.7803C0.5 27.6432 90.4908 0.780273 201.5 0.780273C312.509 0.780273 402.5 27.6432 402.5 60.7803ZM0.500002 340.22C0.500002 307.083 213.272 280.22 221.597 280.22C229.921 280.22 402.5 307.083 402.5 340.22C402.5 373.357 312.509 400.22 201.5 400.22C90.4908 400.22 0.500002 373.357 0.500002 340.22ZM185.893 258.455C293.12 287.044 387.031 284.271 395.651 252.263C404.27 220.255 324.333 171.132 217.107 142.544C109.88 113.956 15.9681 116.728 7.34868 148.736C-1.27071 180.744 78.6663 229.867 185.893 258.455Z" fill="#1C6BF9"/>
</svg>
