<svg width="18" height="24" viewBox="0 0 18 24" fill="none" xmlns="http://www.w3.org/2000/svg">
<path id="Vector" d="M15.1434 5.45285C15.5069 8.36105 12.841 9.69397 12.841 9.69397C12.9621 -0.121199 5.32825 7.05204e-05 5.32825 7.05204e-05C6.90353 1.21189 8.72118 5.57412 4.11642 8.36105C4.04894 8.40182 3.98231 8.4431 3.91671 8.48438C-2.62029 12.6024 -0.256417 22.344 6.74407 24C5.65951 22.0768 4.17175 17.7485 8.99986 13.1604C13.7435 17.6682 12.3902 21.9256 11.3129 23.8971C15.1104 22.8176 17.8637 19.313 17.928 15.1541C17.997 10.6778 15.1434 5.45285 15.1434 5.45285Z" fill="#EE5648"/>
</svg>
