<svg width="17" height="22" viewBox="0 0 17 22" fill="none" xmlns="http://www.w3.org/2000/svg">
<path d="M5.45557 21.9472C6.73631 21.9472 7.29804 21.0597 8.89335 21.0597C10.4887 21.0597 10.8706 21.9135 12.2862 21.9135C13.7017 21.9135 14.6117 20.5879 15.4993 19.2846C16.4879 17.7904 16.8924 16.33 16.9261 16.2625C16.8362 16.2401 14.1624 15.1054 14.1624 11.9485C14.1624 9.20724 16.2745 7.97144 16.3868 7.88156C14.9937 5.8144 12.8704 5.76946 12.2974 5.76946C10.7358 5.76946 9.45507 6.74687 8.64618 6.74687C7.78112 6.74687 6.6352 5.82564 5.27582 5.82564C2.69187 5.82564 0.0742188 8.02761 0.0742188 12.1732C0.0742188 14.7459 1.05163 17.4759 2.24249 19.2397C3.26483 20.7339 4.1636 21.9585 5.45557 21.9585V21.9472ZM8.7473 5.5223C9.67976 5.5223 10.8594 4.8707 11.5559 4.00564C12.1851 3.21922 12.6457 2.11823 12.6457 1.01724C12.6457 0.871192 12.6345 0.713908 12.6007 0.601562C11.5559 0.646501 10.3089 1.32058 9.55619 2.23058C8.96075 2.92712 8.4215 4.00564 8.4215 5.11786C8.4215 5.27514 8.44396 5.44366 8.46643 5.49983C8.53384 5.51107 8.63495 5.5223 8.7473 5.5223Z" fill="white"/>
</svg>
