<svg width="24" height="24" viewBox="0 0 24 24" fill="none" xmlns="http://www.w3.org/2000/svg">
<path id="Union" fill-rule="evenodd" clip-rule="evenodd" d="M23.4856 4.01646C23.4856 5.91001 11.3272 7.44503 10.8515 7.44503C10.3758 7.44503 0.514193 5.91001 0.514193 4.01646C0.514193 2.12291 5.65652 0.587891 11.9999 0.587891C18.3433 0.587891 23.4856 2.12291 23.4856 4.01646ZM0.51416 19.9847C0.51416 18.0911 12.6726 16.5561 13.1483 16.5561C13.624 16.5561 23.4856 18.0911 23.4856 19.9847C23.4856 21.8782 18.3433 23.4132 11.9999 23.4132C5.65649 23.4132 0.51416 21.8782 0.51416 19.9847ZM11.1081 15.3122C17.2353 16.9458 22.6017 16.7874 23.0942 14.9584C23.5868 13.1293 19.0189 10.3223 12.8917 8.68868C6.76447 7.05506 1.39808 7.21347 0.905544 9.04249C0.413007 10.8715 4.98084 13.6786 11.1081 15.3122Z" fill="#1C6BF9"/>
</svg>
