<svg width="36" height="36" viewBox="0 0 36 36" fill="none" xmlns="http://www.w3.org/2000/svg">
<g id="Frame 2085665553">
<path id="Vector" d="M36 18C36 27.9408 27.9408 36 18 36C8.05919 36 0 27.9408 0 18C0 8.05918 8.05919 0 18 0C27.9408 0 36 8.05918 36 18Z" fill="#1C6BF9"/>
<path id="Vector_2" d="M31.4991 18.0002C31.4991 25.4562 25.4549 31.5004 17.9997 31.5004C10.5445 31.5004 4.49951 25.4562 4.49951 18.0002C4.49951 10.5442 10.5437 4.5 17.9997 4.5C25.4557 4.5 31.4991 10.5442 31.4991 18.0002Z" fill="#E6E7E8"/>
<g id="Clip path group">
<mask id="mask0_8134_8768" style="mask-type:luminance" maskUnits="userSpaceOnUse" x="4" y="4" width="28" height="28">
<g id="clippath-753">
<path id="Vector_3" d="M31.5001 18.0002C31.5001 25.4562 25.4559 31.5004 18.0007 31.5004C10.5455 31.5004 4.50049 25.4562 4.50049 18.0002C4.50049 10.5442 10.5447 4.5 18.0007 4.5C25.4567 4.5 31.5001 10.5442 31.5001 18.0002Z" fill="white"/>
</g>
</mask>
<g mask="url(#mask0_8134_8768)">
<g id="Group">
<path id="Vector_4" d="M16.7533 7.08564C22.7597 6.3449 28.2142 10.4915 28.9364 16.347C29.0858 17.5591 29.0203 18.7487 28.7695 19.8812L8.20335 22.4163C7.68576 21.3786 7.33258 20.2402 7.18326 19.0289C6.46182 13.1734 10.746 7.82638 16.7524 7.08564H16.7533Z" fill="#221813"/>
<path id="Vector_5" d="M25.6473 18.9826C25.8453 20.5899 27.31 21.7333 28.9181 21.5353C30.5254 21.3365 31.6688 19.8726 31.47 18.2645C31.272 16.6563 29.8082 15.5138 28.2 15.7117C26.5919 15.9097 25.4493 17.3744 25.6473 18.9826Z" fill="#F7C4C0"/>
<path id="Vector_6" d="M11.09 20.7782C11.288 22.3863 10.1454 23.8502 8.53725 24.0481C6.92911 24.247 5.46525 23.1036 5.26643 21.4954C5.06846 19.8881 6.21102 18.4234 7.81917 18.2254C9.42731 18.0274 10.8912 19.17 11.0891 20.7782H11.09Z" fill="#F7C4C0"/>
<path id="Vector_7" d="M14.0679 27.1139C14.0679 29.6818 16.1491 31.7631 18.717 31.7631C21.2848 31.7631 23.3669 29.6818 23.3669 27.1139C23.3669 24.5461 21.2848 22.4648 18.717 22.4648C16.1491 22.4648 14.0679 24.5461 14.0679 27.1139Z" fill="#F5AFAD"/>
<path id="Vector_8" d="M8.56278 21.0904C9.21376 26.3695 14.1313 30.1076 19.5463 29.4407C24.9622 28.7729 28.8244 23.9518 28.1734 18.6727C27.5233 13.3944 22.6058 9.65553 17.1899 10.3233C11.774 10.991 7.91181 15.8113 8.56278 21.0904Z" fill="#F7C4C0"/>
<path id="Vector_9" d="M20.7295 18.2254C20.7857 18.6801 21.2001 19.0039 21.6548 18.9477C22.1103 18.8915 22.4333 18.4771 22.3771 18.0216C22.3217 17.5669 21.9073 17.2431 21.4518 17.2993C20.9971 17.3555 20.6733 17.7699 20.7295 18.2254Z" fill="#060302"/>
<path id="Vector_10" d="M18.8392 23.9829C18.6991 23.9829 18.5774 23.878 18.5598 23.7346C18.5405 23.5802 18.6504 23.4393 18.8056 23.4208C20.0228 23.2707 20.8735 22.6239 21.3332 21.4989C21.688 20.6315 21.6712 19.7901 21.6712 19.7817C21.6671 19.6257 21.7895 19.4965 21.9456 19.4923C22.0974 19.4873 22.2299 19.6106 22.235 19.7658C22.2358 19.8036 22.3029 23.5576 18.8744 23.9804C18.8627 23.9821 18.8509 23.9829 18.8392 23.9829Z" fill="#060302"/>
<path id="Vector_11" d="M18.3345 24.0132C15.3547 24.0132 14.5981 20.7416 14.5897 20.7063C14.5561 20.5545 14.6526 20.4035 14.8044 20.3699C14.9563 20.3364 15.1064 20.4329 15.1408 20.5847C15.1442 20.6006 15.3329 21.4169 15.8857 22.1694C16.6055 23.1483 17.587 23.5686 18.8051 23.4193C18.9594 23.3992 19.1004 23.5099 19.1197 23.6643C19.139 23.8186 19.0291 23.9595 18.8747 23.9788C18.6876 24.0023 18.5081 24.0132 18.3361 24.0132H18.3345Z" fill="#060302"/>
<path id="Vector_12" d="M23.1939 20.7903C23.3356 21.9438 24.3859 22.7626 25.5385 22.6208C26.6912 22.4782 27.5108 21.4287 27.369 20.2761C27.2264 19.1226 26.1769 18.3039 25.0235 18.4456C23.8708 18.5874 23.0512 19.6377 23.1939 20.7903Z" fill="#F7A5A8"/>
<path id="Vector_13" d="M15.6754 18.8458C15.7316 19.3013 15.4078 19.7157 14.9531 19.7719C14.4984 19.8273 14.084 19.5043 14.0278 19.0488C13.9716 18.5941 14.2954 18.1797 14.7501 18.1235C15.2056 18.0673 15.6192 18.3911 15.6754 18.8458Z" fill="#060302"/>
<path id="Vector_14" d="M13.9094 21.9356C14.0511 23.089 13.2324 24.1385 12.0789 24.2811C10.9263 24.4229 9.87599 23.6033 9.73422 22.4506C9.59244 21.298 10.4112 20.2477 11.5647 20.106C12.7173 19.9634 13.7676 20.7829 13.9094 21.9356Z" fill="#F7A5A8"/>
<path id="Vector_15" d="M19.1125 19.5423C18.9741 19.5423 18.8541 19.4416 18.834 19.3007C18.8139 19.1723 18.7124 18.7579 18.2367 18.8166C18.0823 18.8359 17.9414 18.7252 17.9221 18.5709C17.9028 18.4165 18.0127 18.2756 18.1679 18.2563C18.9548 18.159 19.3314 18.7806 19.3927 19.2218C19.4145 19.3762 19.3063 19.5188 19.1519 19.5398C19.1385 19.5423 19.1259 19.5423 19.1125 19.5423Z" fill="#060302"/>
<path id="Vector_16" d="M17.4945 19.739C17.3519 19.739 17.2303 19.6324 17.2143 19.4882C17.1665 19.0452 17.3813 18.3515 18.1681 18.2542C18.3233 18.2349 18.4634 18.3447 18.4827 18.4999C18.502 18.6543 18.3921 18.7952 18.2369 18.8145C17.7613 18.8724 17.7638 19.3002 17.7755 19.4294C17.7898 19.5838 17.6774 19.7222 17.523 19.7373C17.5138 19.7373 17.5037 19.739 17.4945 19.739Z" fill="#060302"/>
<path id="Vector_17" d="M7.67235 17.0318L12.7006 10.3191L17.0696 9.34345L21.545 9.22852L28.0523 14.5194L28.8366 15.7047L27.7838 16.9127C27.7838 16.9127 25.5314 18.9479 17.4848 12.7149C11.1932 20.7146 8.51375 19.2876 8.51375 19.2876L7.19922 18.3724L7.67235 17.0318Z" fill="#221813"/>
</g>
</g>
</g>
</g>
</svg>
