<svg width="28" height="25" viewBox="0 0 28 25" fill="none" xmlns="http://www.w3.org/2000/svg">
<g id="Group">
<path id="Vector" d="M12.3389 1.00606C18.5175 0.244085 24.1282 4.50961 24.8712 10.5329C25.0248 11.7799 24.9575 13.0035 24.6995 14.1685L3.54394 16.7763C3.01151 15.7089 2.64822 14.5378 2.49462 13.2918C1.7525 7.26843 6.15947 1.76804 12.338 1.00606H12.3389Z" fill="#221813"/>
<path id="Vector_2" d="M21.4878 13.243C21.6914 14.8964 23.1981 16.0726 24.8523 15.8689C26.5057 15.6644 27.6819 14.1586 27.4774 12.5043C27.2737 10.8501 25.7679 9.67475 24.1137 9.8784C22.4594 10.0821 21.2841 11.5888 21.4878 13.243Z" fill="#F7C4C0"/>
<path id="Vector_3" d="M6.51338 15.0922C6.71703 16.7465 5.54172 18.2523 3.88749 18.456C2.23326 18.6605 0.727447 17.4843 0.522933 15.83C0.319282 14.1767 1.49459 12.6699 3.14882 12.4663C4.80305 12.2626 6.30886 13.438 6.51251 15.0922H6.51338Z" fill="#F7C4C0"/>
<path id="Vector_4" d="M3.91347 15.4131C4.5831 20.8436 9.64158 24.6888 15.2118 24.0028C20.7828 23.3159 24.7558 18.3566 24.0861 12.9261C23.4174 7.49644 18.3589 3.65031 12.7878 4.33721C7.21676 5.02411 3.24384 9.98257 3.91347 15.4131Z" fill="#F7C4C0"/>
<path id="Vector_5" d="M16.4284 12.4651C16.4862 12.9328 16.9125 13.2659 17.3802 13.2081C17.8488 13.1502 18.181 12.7239 18.1232 12.2554C18.0662 11.7877 17.64 11.4546 17.1714 11.5124C16.7037 11.5702 16.3706 11.9965 16.4284 12.4651Z" fill="#060302"/>
<path id="Vector_6" d="M14.4859 18.389C14.3418 18.389 14.2167 18.2811 14.1985 18.1336C14.1787 17.9748 14.2918 17.8298 14.4514 17.8108C15.7035 17.6564 16.5785 16.991 17.0514 15.8338C17.4164 14.9416 17.3992 14.076 17.3992 14.0674C17.3948 13.9069 17.5208 13.774 17.6813 13.7697C17.8375 13.7645 17.9739 13.8914 17.979 14.051C17.9799 14.0898 18.0489 17.9515 14.5221 18.3864C14.5101 18.3881 14.498 18.389 14.4859 18.389Z" fill="#060302"/>
<path id="Vector_7" d="M13.9654 18.4187C10.9003 18.4187 10.1219 15.0532 10.1133 15.017C10.0788 14.8608 10.178 14.7054 10.3342 14.6709C10.4904 14.6364 10.6449 14.7356 10.6802 14.8918C10.6837 14.9082 10.8779 15.7479 11.4465 16.5219C12.1869 17.529 13.1965 17.9613 14.4495 17.8077C14.6083 17.787 14.7533 17.9009 14.7731 18.0597C14.793 18.2185 14.6799 18.3634 14.5211 18.3833C14.3287 18.4075 14.144 18.4187 13.9671 18.4187H13.9654Z" fill="#060302"/>
<path id="Vector_8" d="M18.9638 15.1041C19.1097 16.2907 20.1901 17.1329 21.3757 16.9871C22.5614 16.8404 23.4045 15.7608 23.2586 14.5751C23.1119 13.3886 22.0324 12.5464 20.8459 12.6922C19.6602 12.838 18.8171 13.9184 18.9638 15.1041Z" fill="#F7A5A8"/>
<path id="Vector_9" d="M11.2306 13.1011C11.2884 13.5697 10.9553 13.9959 10.4876 14.0538C10.0199 14.1107 9.59363 13.7785 9.53582 13.3099C9.478 12.8422 9.81109 12.4159 10.2788 12.3581C10.7474 12.3003 11.1728 12.6334 11.2306 13.1011Z" fill="#060302"/>
<path id="Vector_10" d="M9.41569 16.2815C9.56153 17.468 8.71931 18.5476 7.53278 18.6943C6.34712 18.8401 5.26674 17.997 5.1209 16.8113C4.97507 15.6256 5.81728 14.5452 7.00381 14.3994C8.18947 14.2527 9.26986 15.0958 9.41569 16.2815Z" fill="#F7A5A8"/>
<path id="Vector_11" d="M14.7658 13.8197C14.6234 13.8197 14.5 13.7161 14.4793 13.5712C14.4586 13.4391 14.3542 13.0128 13.8649 13.0732C13.7061 13.0931 13.5612 12.9792 13.5413 12.8204C13.5215 12.6616 13.6345 12.5166 13.7942 12.4968C14.6036 12.3967 14.991 13.0361 15.054 13.49C15.0765 13.6488 14.9652 13.7955 14.8064 13.8171C14.7926 13.8197 14.7796 13.8197 14.7658 13.8197Z" fill="#060302"/>
<path id="Vector_12" d="M13.1004 14.0218C12.9537 14.0218 12.8286 13.9123 12.8122 13.7638C12.763 13.3082 12.9839 12.5945 13.7933 12.4944C13.9529 12.4746 14.0971 12.5876 14.1169 12.7473C14.1368 12.9061 14.0237 13.051 13.8641 13.0709C13.3748 13.1304 13.3774 13.5705 13.3895 13.7034C13.4041 13.8622 13.2885 14.0046 13.1297 14.0201C13.1202 14.0201 13.1099 14.0218 13.1004 14.0218Z" fill="#060302"/>
<path id="Vector_13" d="M2.99841 11.238L8.1708 4.33276L12.6649 3.32917L17.2687 3.21094L23.9624 8.65351L24.7692 9.87285L23.6863 11.1155C23.6863 11.1155 21.3693 13.209 13.0921 6.79733C6.62012 15.0263 3.86393 13.5585 3.86393 13.5585L2.51172 12.617L2.99841 11.238Z" fill="#221813"/>
</g>
</svg>
