<svg width="96" height="101" viewBox="0 0 96 101" fill="none" xmlns="http://www.w3.org/2000/svg">
<g id="Frame 2085665646">
<g id="Group">
<path id="Vector" d="M28.8043 81.4397L12.5522 40.0096L26.3499 35.7019L39.708 76.8847L28.8043 81.4397Z" fill="#02734A"/>
<path id="Vector_2" d="M9.2657 35.863C8.00421 31.6553 10.8833 27.0789 15.6964 25.6413C20.5095 24.2036 25.4339 26.4491 26.6954 30.6568C27.9568 34.8644 25.0777 39.4408 20.2647 40.8785C15.4516 42.3161 10.5272 40.0706 9.2657 35.863Z" fill="#FBCECA"/>
</g>
<g id="Group_2">
<path id="Vector_3" d="M73.0595 128.215L85.3389 116.168L61.446 92.6643C58.0625 89.3352 52.6111 89.3735 49.2701 92.7516C45.9307 96.128 45.9665 101.565 49.3518 104.896L73.0595 128.215Z" fill="#142A42"/>
<path id="Vector_4" d="M64.683 106.509L72.0726 98.6497L85.3395 116.165L64.683 106.509Z" fill="#142A42"/>
<path id="Vector_5" d="M52.3296 110.074L73.1198 127.981L58.0315 102.051L40.5562 100.756L52.3296 110.074Z" fill="#142A42"/>
</g>
<g id="Group_3">
<path id="Vector_6" d="M23.3896 131.266L40.1128 135.355L47.6284 102.721C48.693 98.1001 45.7983 93.4922 41.1655 92.4326C36.5328 91.373 31.9115 94.2624 30.8469 98.8837L23.3896 131.262L23.3896 131.266Z" fill="#142A42"/>
<path id="Vector_7" d="M36.546 108.491L54.4925 101.097L40.1126 135.355L36.546 108.491Z" fill="#142A42"/>
<path id="Vector_8" d="M27.9912 104.137L23.6215 131.196L37.8285 104.761L29.7637 89.2468L27.9912 104.137Z" fill="#142A42"/>
</g>
<g id="Group_4">
<path id="Vector_9" d="M77.3467 101.88C71.4387 65.489 51.9177 64.0671 51.9177 64.0671L43.1173 64.1361L35.6216 65.7422C35.6216 65.7422 21.2967 76.8258 25.2309 107.627C25.6947 107.71 47.2309 111.479 77.345 101.882L77.3467 101.88Z" fill="#02734A"/>
<path id="Vector_10" d="M35.3246 67.2857C37.8659 63.9201 42.6605 63.2451 46.0336 65.7782C49.4068 68.3113 50.0811 73.0931 47.5399 76.4587C44.9986 79.8244 40.204 80.4993 36.8309 77.9662C33.4577 75.4331 32.7834 70.6513 35.3246 67.2857Z" fill="#F2B4AE"/>
<g id="Group_5">
<path id="Vector_11" d="M19.8126 44.1247C16.5183 79.7476 69.5449 85.5045 74.049 50.0184C77.3414 14.3972 24.3166 8.6386 19.8126 44.1247Z" fill="#221713"/>
<g id="Group_6">
<path id="Vector_12" d="M55.9378 54.9924C55.0431 64.6743 69.4531 66.2381 70.6758 56.5948C71.5723 46.9147 57.1606 45.3491 55.9378 54.9924Z" fill="#FBCECA"/>
<path id="Vector_13" d="M58.8623 55.3128C58.323 61.1547 67.0173 62.0989 67.7559 56.2799C68.2952 50.438 59.6009 49.4937 58.8623 55.3128Z" fill="#FFB0B0"/>
</g>
<path id="Vector_14" d="M21.9386 51.2988C19.3871 78.904 60.4762 83.3637 63.9677 55.8657C66.521 28.2623 25.4302 23.8008 21.9386 51.2988Z" fill="#FBCECA"/>
<path id="Vector_15" d="M21.5144 45.7913C21.5144 45.7913 32.2815 44.5661 41.3324 36.8928C41.3324 36.8928 47.4971 47.5739 64.0667 52.6043L69.4136 46.997L57.9185 24.7673L34.2698 27.3219L23.8656 37.5127L21.5197 45.793L21.5144 45.7913Z" fill="#221713"/>
<path id="Vector_16" d="M72.1982 32.8443C72.1982 32.8443 73.9471 49.6814 84.3094 59.6227C84.3094 59.6227 75.0345 67.2591 60.928 64.9002L72.1982 32.8443Z" fill="#221713"/>
<g id="Group_7">
<path id="Vector_17" d="M39.6873 56.3575C39.2401 60.4227 48.0297 61.3775 48.4769 57.3123C48.924 53.2471 40.1327 52.294 39.6873 56.3575Z" fill="#FFB0B0"/>
<path id="Vector_18" d="M28.3034 55.1213C28.0294 57.621 24.6008 58.2199 22.1037 57.3691C21.8273 55.6225 21.7484 53.7491 21.8988 51.7526C24.6096 51.0219 28.6074 52.349 28.3016 55.1231L28.3034 55.1213Z" fill="#FFB0B0"/>
<g id="Group_8">
<path id="Vector_19" d="M39.0497 52.6458C38.659 56.6688 42.336 57.0672 42.8255 53.0548C43.2162 49.0318 39.5392 48.6333 39.0497 52.6458Z" fill="#332522"/>
<path id="Vector_20" d="M25.9569 51.2239C25.5662 55.2469 29.2432 55.6454 29.7327 51.6329C30.1234 47.6099 26.4464 47.2115 25.9569 51.2239Z" fill="#332522"/>
</g>
<path id="Vector_21" d="M33.3208 61.8937C29.5503 61.483 26.761 58.7044 27.0933 55.6823L40.7502 57.1671C40.4197 60.1875 37.093 62.3026 33.3225 61.8919L33.3208 61.8937Z" fill="#FF9191"/>
<path id="Vector_22" d="M40.0027 59.2027L27.3792 57.8301C27.1166 57.1495 27.0109 56.4248 27.0922 55.686L40.7492 57.1708C40.6679 57.9096 40.4067 58.5957 40.0027 59.2027Z" fill="white"/>
</g>
</g>
</g>
<g id="Group_9">
<path id="Vector_23" d="M10.0539 30.4821C9.29275 25.8998 22.1895 19.9457 38.8596 17.1833C55.5297 14.4208 69.6605 15.8961 70.4217 20.4784C71.1828 25.0607 58.286 31.0148 41.6159 33.7772C24.9458 36.5397 10.815 35.0644 10.0539 30.4821Z" fill="#FFBE3B"/>
<path id="Vector_24" d="M8.48672 21.0974L68.8545 11.0938L70.4128 20.4754L10.045 30.4791L8.48672 21.0974Z" fill="#FFBE3B"/>
<path id="Vector_25" d="M8.49333 21.0993C7.7322 16.517 20.629 10.5629 37.2991 7.80045C53.9692 5.03801 68.1 6.51329 68.8611 11.0956C69.6222 15.6779 56.7255 21.632 40.0554 24.3944C23.3853 27.1569 9.25447 25.6816 8.49333 21.0993Z" fill="#FFD254"/>
<path id="Vector_26" d="M11.8915 20.5347C11.3415 17.2237 22.8881 12.5523 37.6815 10.1008C52.4749 7.64937 64.9132 8.34618 65.4632 11.6572C66.0131 14.9682 54.4666 19.6396 39.6732 22.0911C24.8797 24.5425 12.4415 23.8457 11.8915 20.5347Z" fill="#FFEA73"/>
<path id="Vector_27" d="M64.985 13.1431C61.7776 10.9504 50.8221 10.7384 38.1325 12.84C25.4411 14.9434 15.1425 18.6803 12.8174 21.7908C12.2866 21.4268 11.9675 21.01 11.8882 20.5404C11.3388 17.23 22.8845 12.5588 37.6782 10.1066C52.4719 7.65446 64.9104 8.34979 65.4598 11.6602C65.5373 12.1316 65.3696 12.6294 64.9868 13.1449L64.985 13.1431Z" fill="#FFBE3B"/>
<path id="Vector_28" d="M41.7817 32.0473C42.2227 31.7904 42.4821 31.2784 42.394 30.7472L41.7284 26.7508C41.6139 26.0596 40.9597 25.5936 40.2683 25.7099C39.5752 25.8244 39.1077 26.4771 39.2239 27.1666L39.8896 31.1629C40.0041 31.8542 40.6583 32.3202 41.3496 32.2039C41.5066 32.1775 41.653 32.123 41.7835 32.049L41.7817 32.0473Z" fill="#FFD254"/>
<path id="Vector_29" d="M53.1714 29.4906C53.6123 29.2337 53.8717 28.7218 53.7837 28.1906L53.1198 24.196C53.0053 23.5047 52.3511 23.0387 51.6598 23.155C50.9684 23.2712 50.4991 23.9222 50.6153 24.6117L51.2793 28.6063C51.3937 29.2976 52.0479 29.7636 52.7393 29.6473C52.8962 29.6209 53.0426 29.5663 53.1714 29.4906Z" fill="#FFD254"/>
<path id="Vector_30" d="M64.3237 25.5004C64.7647 25.2435 65.0241 24.7315 64.936 24.2003L64.2703 20.204C64.1559 19.5127 63.5017 19.0467 62.8103 19.163C62.1172 19.2775 61.6497 19.9302 61.7659 20.6197L62.4316 24.6161C62.5461 25.3073 63.2003 25.7733 63.8916 25.6571C64.0486 25.6306 64.195 25.5761 64.3237 25.5004Z" fill="#FFD254"/>
<path id="Vector_31" d="M30.1772 33.3031C30.6182 33.0462 30.8776 32.5343 30.7895 32.0031L30.1256 28.0085C30.0112 27.3172 29.357 26.8512 28.6656 26.9675C27.9725 27.082 27.505 27.7347 27.6212 28.4242L28.2851 32.4188C28.3996 33.1101 29.0538 33.5761 29.7451 33.4598C29.9021 33.4334 30.0485 33.3788 30.179 33.3049L30.1772 33.3031Z" fill="#FFD254"/>
<path id="Vector_32" d="M18.3306 33.1254C18.7715 32.8685 19.0309 32.3565 18.9429 31.8253L18.2772 27.829C18.1627 27.1377 17.5085 26.6717 16.8172 26.788C16.124 26.9025 15.6565 27.5552 15.7728 28.2447L16.4384 32.2411C16.5529 32.9323 17.2071 33.3983 17.8984 33.2821C18.0554 33.2556 18.2018 33.2011 18.3323 33.1272L18.3306 33.1254Z" fill="#FFD254"/>
</g>
<path id="Vector_33" d="M56.5264 28.4821C55.265 24.2745 58.1441 19.6981 62.9571 18.2604C67.7702 16.8228 72.6946 19.0683 73.9561 23.2759C75.2176 27.4836 72.3385 32.06 67.5254 33.4976C62.7123 34.9353 57.7879 32.6898 56.5264 28.4821Z" fill="#FBCECA"/>
<path id="Vector_34" d="M72.3877 85.6293L73.5327 29.2315L55.7172 27.6917L44.9326 87.5807L72.3877 85.6293Z" fill="#02734A"/>
</g>
</svg>
