<svg width="417" height="232" viewBox="0 0 417 232" fill="none" xmlns="http://www.w3.org/2000/svg">
<path d="M268.502 18C268.502 27.9411 204.987 36 202.503 36C200.018 36 148.502 27.9411 148.502 18C148.502 8.05888 175.364 0 208.502 0C241.639 0 268.502 8.05888 268.502 18Z" fill="#1C6BF9"/>
<path d="M148.502 102C148.502 92.0589 212.016 84 214.501 84C216.986 84 268.502 92.0589 268.502 102C268.502 111.941 241.639 120 208.502 120C175.364 120 148.502 111.941 148.502 102Z" fill="#1C6BF9"/>
<ellipse cx="208.501" cy="59.9978" rx="60" ry="18" transform="rotate(15 208.501 59.9978)" fill="#1C6BF9"/>
<path d="M53.9578 202.538V205.738H11.1219C11.6358 211.329 13.2875 215.559 16.0772 218.428C18.8669 221.223 22.6476 222.621 27.4194 222.621C34.6138 222.621 39.3121 219.458 41.5145 213.131H52.6364C51.0948 218.942 48.0848 223.54 43.6067 226.924C39.202 230.234 33.7329 231.89 27.1992 231.89C19.0504 231.89 12.4801 229.168 7.48803 223.724C2.49601 218.28 0 211.071 0 202.097C0 193.122 2.49601 185.913 7.48803 180.469C12.4801 175.025 18.977 172.303 26.9789 172.303C35.3479 172.303 41.955 175.136 46.8002 180.8C51.572 186.464 53.9578 193.71 53.9578 202.538ZM26.9789 181.572C22.6476 181.572 19.0872 182.897 16.2975 185.545C13.5813 188.193 11.8927 192.018 11.232 197.021H42.6157C42.1018 192.386 40.4501 188.671 37.6604 185.876C34.9442 183.007 31.3836 181.572 26.9789 181.572ZM72.0929 230.566H61.0811V152H72.0929V230.566ZM102.806 232C87.0228 232 78.7272 225.49 77.9197 212.469H88.9315C89.372 216.441 90.6567 219.237 92.7857 220.855C94.9146 222.474 98.2916 223.283 102.916 223.283C111.285 223.283 115.47 220.634 115.47 215.338C115.47 213.058 114.589 211.292 112.827 210.041C111.065 208.791 107.909 207.761 103.357 206.952L97.5207 205.848C85.4811 203.641 79.4614 197.977 79.4614 188.855C79.4614 183.779 81.4068 179.77 85.2976 176.828C89.1884 173.811 94.5476 172.303 101.375 172.303C117.011 172.303 125.014 178.667 125.38 191.393H114.699C114.479 187.568 113.304 184.883 111.175 183.338C109.047 181.72 105.779 180.91 101.375 180.91C97.8511 180.91 95.1348 181.572 93.2261 182.897C91.3174 184.221 90.3631 186.097 90.3631 188.524C90.3631 190.731 91.2073 192.46 92.8958 193.71C94.5842 194.887 97.2638 195.844 100.934 196.579L106.881 197.572C113.855 198.897 118.883 200.883 121.967 203.531C125.05 206.179 126.592 209.858 126.592 214.566C126.592 220.083 124.499 224.386 120.315 227.476C116.13 230.492 110.294 232 102.806 232ZM193.181 197.352L200.559 173.628H212.342L193.511 230.566H181.949L174.131 205.517C172.149 199.191 170.35 193.085 168.735 187.2C166.312 195.807 164.55 201.913 163.449 205.517L155.741 230.566H144.068L125.238 173.628H137.131L144.399 197.352C146.381 203.752 148.363 210.52 150.345 217.655C151.667 212.359 153.575 205.591 156.071 197.352L163.339 173.628H174.351L181.509 197.352C184.518 207.577 186.464 214.308 187.345 217.545C188.226 214.308 190.171 207.577 193.181 197.352ZM243.729 172.303C249.969 172.303 254.851 174.069 258.375 177.6C261.899 181.058 263.661 185.986 263.661 192.386V230.566H252.649V193.931C252.649 185.986 248.648 182.014 240.646 182.014C236.975 182.014 233.671 183.411 230.735 186.207C227.798 189.076 226.331 193.159 226.331 198.455V230.566H215.319V152H226.331V181.462C230.661 175.356 236.461 172.303 243.729 172.303ZM324.749 202.538V205.738H281.913C282.427 211.329 284.079 215.559 286.869 218.428C289.659 221.223 293.439 222.621 298.211 222.621C305.405 222.621 310.103 219.458 312.306 213.131H323.428C321.886 218.942 318.876 223.54 314.398 226.924C309.993 230.234 304.524 231.89 297.99 231.89C289.842 231.89 283.272 229.168 278.279 223.724C273.287 218.28 270.791 211.071 270.791 202.097C270.791 193.122 273.287 185.913 278.279 180.469C283.272 175.025 289.769 172.303 297.77 172.303C306.139 172.303 312.746 175.136 317.591 180.8C322.364 186.464 324.749 193.71 324.749 202.538ZM297.77 181.572C293.439 181.572 289.879 182.897 287.089 185.545C284.373 188.193 282.684 192.018 282.023 197.021H313.407C312.893 192.386 311.242 188.671 308.452 185.876C305.736 183.007 302.175 181.572 297.77 181.572ZM360.173 172.745C361.788 172.745 362.852 172.782 363.367 172.855V183.338H360.614C354.961 183.338 350.593 184.736 347.51 187.531C344.426 190.326 342.885 194.372 342.885 199.669V230.566H331.873V173.628H342.444V183.779C346.041 176.423 351.95 172.745 360.173 172.745ZM417 202.538V205.738H374.164C374.678 211.329 376.329 215.559 379.119 218.428C381.908 221.223 385.689 222.621 390.462 222.621C397.655 222.621 402.354 219.458 404.557 213.131H415.679C414.137 218.942 411.127 223.54 406.649 226.924C402.244 230.234 396.774 231.89 390.241 231.89C382.093 231.89 375.522 229.168 370.53 223.724C365.538 218.28 363.042 211.071 363.042 202.097C363.042 193.122 365.538 185.913 370.53 180.469C375.522 175.025 382.019 172.303 390.021 172.303C398.39 172.303 404.997 175.136 409.842 180.8C414.613 186.464 417 193.71 417 202.538ZM390.021 181.572C385.689 181.572 382.129 182.897 379.34 185.545C376.623 188.193 374.935 192.018 374.274 197.021H405.658C405.143 192.386 403.492 188.671 400.703 185.876C397.986 183.007 394.426 181.572 390.021 181.572Z" fill="black"/>
</svg>
